<svg width="82" height="74" viewBox="0 0 82 74" fill="none" xmlns="http://www.w3.org/2000/svg">
<g id="Frame 1000001849">
<g id="Group 55">
<g id="Group 12">
<path id="Path 23" fill-rule="evenodd" clip-rule="evenodd" d="M34.1762 16.8101C34.8691 16.4872 35.643 16.3754 36.3999 16.4889C37.1568 16.6025 37.8628 16.9362 38.4287 17.4479C38.9945 17.9596 39.3947 18.6263 39.5788 19.3638C39.7628 20.1012 39.7224 20.8762 39.4626 21.5909C39.2029 22.3055 38.7354 22.9277 38.1194 23.3787C37.5034 23.8297 36.7664 24.0893 36.0017 24.1247C35.237 24.1601 34.4789 23.9696 33.8233 23.5775C33.1676 23.1853 32.6439 22.609 32.3183 21.9214C31.8819 20.9991 31.8325 19.9425 32.1809 18.984C32.5293 18.0255 33.247 17.2436 34.1762 16.8101Z" fill="#F0D0B0"/>
<path id="Path 24" fill-rule="evenodd" clip-rule="evenodd" d="M35.973 18.2167C36.4827 17.9792 37.052 17.8969 37.6089 17.9805C38.1658 18.064 38.6852 18.3095 39.1015 18.6859C39.5177 19.0624 39.8122 19.5529 39.9476 20.0954C40.083 20.6379 40.0533 21.2081 39.8622 21.7338C39.6712 22.2596 39.3273 22.7173 38.8741 23.0491C38.4209 23.381 37.8788 23.572 37.3162 23.5981C36.7536 23.6241 36.1959 23.4841 35.7135 23.1956C35.2312 22.9071 34.8458 22.4832 34.6062 21.9774C34.2853 21.2988 34.2489 20.5215 34.5052 19.8163C34.7615 19.1111 35.2894 18.5358 35.973 18.2167Z" fill="#E2B586"/>
</g>
<g id="Group 13">
<path id="Path 25" fill-rule="evenodd" clip-rule="evenodd" d="M81.2407 28.5983C80.7851 27.9878 80.1573 27.525 79.4368 27.2685C78.7162 27.012 77.9351 26.9733 77.1924 27.1573C76.4497 27.3413 75.7786 27.7398 75.264 28.3022C74.7494 28.8647 74.4145 29.566 74.3014 30.3174C74.1884 31.0688 74.3025 31.8366 74.6291 32.5237C74.9558 33.2108 75.4804 33.7863 76.1366 34.1775C76.7928 34.5687 77.5512 34.7581 78.3158 34.7216C79.0805 34.6851 79.817 34.4244 80.4324 33.9725C81.2575 33.3661 81.8062 32.4593 81.9578 31.4515C82.1094 30.4437 81.8514 29.4174 81.2407 28.5983Z" fill="#F0D0B0"/>
<path id="Path 26" fill-rule="evenodd" clip-rule="evenodd" d="M78.9872 28.9902C78.652 28.541 78.1902 28.2005 77.66 28.0117C77.1299 27.823 76.5552 27.7945 76.0088 27.9298C75.4623 28.0652 74.9685 28.3583 74.5899 28.7722C74.2113 29.186 73.9649 29.702 73.8818 30.2548C73.7986 30.8077 73.8826 31.3726 74.123 31.8781C74.3633 32.3836 74.7494 32.807 75.2322 33.0948C75.7151 33.3825 76.2731 33.5218 76.8356 33.4948C77.3982 33.4679 77.9401 33.276 78.3928 32.9434C78.9997 32.4973 79.4032 31.8302 79.5146 31.0889C79.6261 30.3476 79.4363 29.5928 78.9872 28.9902Z" fill="#E2B586"/>
</g>
<path id="Path 27" fill-rule="evenodd" clip-rule="evenodd" d="M53.7466 45.001C53.7466 45.001 56.7096 48.4588 57.505 52.4058C57.505 52.4058 63.073 51.0169 65.0204 51.263C65.303 50.4941 65.8384 49.8422 66.5403 49.4124C67.2421 48.9827 68.0694 48.8002 68.8886 48.8944C71.9335 49.1115 72.0154 55.8909 68.2296 55.4281C68.2296 55.4281 61.0158 59.0217 56.9284 59.1298C52.8139 59.2388 50.1265 53.7943 50.1265 53.7943L53.7466 45.001Z" fill="#E2B586"/>
<path id="Path 28" fill-rule="evenodd" clip-rule="evenodd" d="M38.3579 58.4756L39.4005 59.1024C40.1441 60.0188 40.6948 61.0741 41.0199 62.2058C41.345 63.3374 41.4378 64.5222 41.2929 65.6901C40.7721 69.6371 33.4485 71.5157 23.7102 69.8819L26.589 59.4834L38.3579 58.4756Z" fill="#E2B586"/>
<path id="Path 29" fill-rule="evenodd" clip-rule="evenodd" d="M45.9017 31.6064L56.1324 39.311C56.1324 39.311 53.142 59.6733 40.1671 57.8774C40.1671 57.8774 38.9053 62.3136 29.7149 61.1163C29.7149 61.1163 16.3839 59.4294 16.4384 47.7773C16.5203 36.0989 27.9863 33.4305 34.8719 36.3161C34.8719 36.3161 35.4198 36.6431 35.0362 37.705C39.2423 36.9344 43.0669 34.7873 45.899 31.6064H45.9017Z" fill="#F0D0B0"/>
<path id="Path 30" fill-rule="evenodd" clip-rule="evenodd" d="M40.1683 57.8771C40.1683 57.8771 38.9066 62.3133 29.7161 61.116C29.7161 61.116 16.3851 59.4291 16.4396 47.777C16.5216 36.0986 27.9875 33.4302 34.8732 36.3157C34.8732 36.3157 35.421 36.6428 35.0375 37.7047C35.0375 37.7047 26.9454 49.1928 40.167 57.8771H40.1683Z" fill="#DEF3E1"/>
<path id="Path 31" fill-rule="evenodd" clip-rule="evenodd" d="M31.3631 56.8153C31.2258 62.4506 27.3306 71.298 24.2591 72.0061C21.1859 72.741 9.5007 71.5432 6.75788 71.9788C4.01506 72.4144 1.2718 73.3128 0.203104 72.0878C-0.86559 70.8628 2.34226 61.8524 8.432 64.8465C8.432 64.8465 12.5469 62.5055 15.3721 63.5666C12.8755 45.0556 31.666 44.3471 31.364 56.8153H31.3631Z" fill="#F0D0B0"/>
<path id="Path 32" fill-rule="evenodd" clip-rule="evenodd" d="M3.71265 64.8744C4.42721 64.4585 5.23962 64.237 6.06796 64.2322C6.89629 64.2273 7.71128 64.4393 8.43076 64.8467C8.43076 64.8467 12.5456 62.5057 15.3708 63.5668C14.6848 58.5561 15.5923 54.8561 17.2093 52.3784C17.1269 52.6782 14.7127 62.0157 17.3187 65.3095C15.5008 64.3735 13.392 64.1593 11.4207 64.7104C8.07467 65.6633 7.33327 67.2967 7.33327 67.2967C7.33327 67.2967 7.8829 64.3566 3.71265 64.8744Z" fill="#E2B586"/>
<path id="Path 33" fill-rule="evenodd" clip-rule="evenodd" d="M44.5265 41.5668C44.5265 41.5668 46.5753 40.9179 48.1675 44.6219C49.7664 48.351 51.3594 63.1216 54.3517 66.4224C54.3517 66.4224 59.4324 65.398 60.6593 68.0341C61.4758 69.784 50.8426 74.5178 49.6512 70.4545C49.6512 70.4545 47.3073 66.9067 44.8976 59.9816C42.4613 53.0611 39.3504 51.5921 39.3504 51.5921C39.3504 51.5921 35.7834 42.0969 44.5253 41.5653L44.5265 41.5668Z" fill="#F0D0B0"/>
<path id="Path 34" fill-rule="evenodd" clip-rule="evenodd" d="M45.0424 41.2022C45.0424 41.2022 47.0912 40.5533 48.6832 44.2574C50.282 47.9866 51.8743 62.7573 54.8664 66.0582C51.7133 64.7928 51.1822 58.0061 49.5379 52.4512C48.6858 49.457 47.62 46.5268 46.3486 43.6827C44.4705 43.6929 42.6063 43.3629 40.8476 42.7088C41.7397 41.8846 43.0744 41.3019 45.042 41.2005L45.0424 41.2022Z" fill="#E2B586"/>
<path id="Path 35" fill-rule="evenodd" clip-rule="evenodd" d="M37.6182 15.9562C33.1738 32.7526 39.6759 41.301 54.4609 43.7238C69.4106 44.9211 77.7768 38.1417 77.5572 20.8016C77.2551 0.0577922 42.9121 -4.10679 37.6182 15.9562Z" fill="#F0D0B0"/>
<path id="Path 36" fill-rule="evenodd" clip-rule="evenodd" d="M39.2365 29.6204C41.1285 36.9431 47.2462 41.0809 56.8462 42.6592C61.3735 43.0139 65.3232 42.6329 68.6152 41.4619C64.9113 43.4768 60.1661 44.184 54.4608 43.7216C44.8873 42.17 38.7976 38.0314 36.8781 30.7628C36.1925 28.0957 36.0552 24.9922 36.4937 21.4258C36.7583 19.582 37.1338 17.7555 37.6182 15.9562C39.1816 9.99437 43.323 6.15459 48.3981 4.27734C46.3178 5.35557 44.4916 6.8594 43.04 8.68959C41.5884 10.5198 40.5444 12.6347 39.977 14.8947C39.3269 17.2925 38.8956 19.7434 38.6882 22.2178C38.4655 24.6993 38.6507 27.2001 39.2365 29.6226V29.6204Z" fill="#E2B586"/>
<g id="Group 21">
<g id="Group 14">
<path id="Path 37" d="M62.936 25.3262C62.7366 26.0197 62.7488 26.7563 62.9712 27.4428C63.1935 28.1293 63.6161 28.735 64.1853 29.1832C64.7546 29.6315 65.445 29.9021 66.1692 29.9609C66.8934 30.0197 67.619 29.864 68.254 29.5135C68.8891 29.1631 69.4052 28.6336 69.737 27.992C70.0689 27.3505 70.2015 26.6257 70.1183 25.9093C70.035 25.1929 69.7395 24.5171 69.2692 23.9673C68.7989 23.4176 68.1749 23.0186 67.4761 22.8209C66.5393 22.5564 65.535 22.6717 64.6838 23.1414C63.8326 23.6111 63.204 24.3969 62.936 25.3262Z" fill="white"/>
<path id="Path 38" d="M63.4458 25.7139C63.2977 26.2288 63.3068 26.7758 63.472 27.2856C63.6371 27.7954 63.9509 28.2452 64.3736 28.578C64.7963 28.9108 65.309 29.1118 65.8468 29.1555C66.3846 29.1991 66.9233 29.0836 67.3949 28.8234C67.8665 28.5631 68.2498 28.17 68.4963 27.6936C68.7427 27.2173 68.8413 26.6791 68.7795 26.1471C68.7178 25.6151 68.4985 25.1132 68.1493 24.705C67.8002 24.2967 67.3368 24.0003 66.818 23.8534C66.1222 23.6564 65.3761 23.7418 64.7437 24.0907C64.1113 24.4396 63.6445 25.0235 63.4458 25.7139Z" fill="#382417"/>
<path id="Path 39" d="M64.9362 25.447C64.8949 25.5891 64.8971 25.7402 64.9424 25.881C64.9876 26.0219 65.074 26.1463 65.1906 26.2384C65.3071 26.3305 65.4486 26.3863 65.597 26.3986C65.7455 26.4109 65.8943 26.3792 66.0247 26.3075C66.155 26.2358 66.2609 26.1274 66.3291 25.9959C66.3973 25.8644 66.4246 25.7158 66.4077 25.5689C66.3907 25.422 66.3302 25.2834 66.2338 25.1706C66.1375 25.0578 66.0095 24.976 65.8662 24.9354C65.6746 24.8811 65.469 24.9045 65.2946 25.0004C65.1203 25.0963 64.9914 25.2569 64.9362 25.447Z" fill="white"/>
</g>
<g id="Group 15">
<path id="Path 40" d="M45.5438 20.3988C45.3445 21.0921 45.3568 21.8285 45.5792 22.5149C45.8016 23.2013 46.2241 23.8068 46.7932 24.2549C47.3624 24.703 48.0526 24.9735 48.7767 25.0323C49.5008 25.0911 50.2262 24.9354 50.8612 24.5851C51.4961 24.2347 52.0121 23.7054 52.344 23.064C52.6758 22.4226 52.8085 21.6979 52.7254 20.9817C52.6422 20.2654 52.3469 19.5897 51.8768 19.04C51.4067 18.4903 50.7829 18.0913 50.0843 17.8934C49.6204 17.762 49.135 17.7226 48.6557 17.7774C48.1765 17.8322 47.7128 17.9801 47.2912 18.2128C46.8695 18.4454 46.4982 18.7582 46.1984 19.1333C45.8986 19.5084 45.6761 19.9384 45.5438 20.3988Z" fill="white"/>
<path id="Path 41" d="M46.0526 20.7872C45.9044 21.3022 45.9135 21.8492 46.0786 22.3591C46.2438 22.869 46.5575 23.3188 46.9803 23.6518C47.403 23.9847 47.9157 24.1857 48.4536 24.2295C48.9914 24.2732 49.5303 24.1577 50.002 23.8975C50.4737 23.6373 50.8571 23.2441 51.1036 22.7677C51.3502 22.2913 51.4489 21.753 51.3872 21.2209C51.3255 20.6889 51.1062 20.1869 50.757 19.7785C50.4079 19.3702 49.9445 19.0737 49.4256 18.9266C48.7297 18.7297 47.9835 18.815 47.351 19.1639C46.7185 19.5128 46.2514 20.0967 46.0526 20.7872Z" fill="#382417"/>
<path id="Path 42" d="M47.5436 20.5196C47.5025 20.6617 47.5048 20.8127 47.5503 20.9535C47.5957 21.0943 47.6822 21.2186 47.7988 21.3106C47.9154 21.4026 48.0569 21.4582 48.2053 21.4704C48.3538 21.4826 48.5026 21.4508 48.6328 21.379C48.763 21.3072 48.8689 21.1987 48.937 21.0672C49.0051 20.9357 49.0323 20.7871 49.0153 20.6403C48.9983 20.4934 48.9377 20.3548 48.8413 20.2421C48.7449 20.1294 48.6169 20.0477 48.4737 20.0071C48.2819 19.9529 48.0762 19.9764 47.9018 20.0725C47.7275 20.1685 47.5986 20.3294 47.5436 20.5196Z" fill="white"/>
</g>
<path id="Path 43" d="M54.5505 26.905C54.5505 26.905 54.8734 24.8968 56.7269 25.3948C58.6495 25.9126 57.7013 28.032 57.7013 28.032L54.5505 26.905Z" fill="#E2B586"/>
<g id="Group 20">
<g id="Clip path group">
<mask id="mask0_2756_1919" style="mask-type:luminance" maskUnits="userSpaceOnUse" x="47" y="28" width="17" height="12">
<g id="clip-path">
<path id="Path 46" d="M53.583 39.3703C46.9396 38.1291 47.2328 31.8209 47.6735 29.1375C47.6985 28.9836 47.756 28.8367 47.8423 28.7064C47.9285 28.5761 48.0416 28.4654 48.174 28.3814C48.3064 28.2975 48.4551 28.2423 48.6105 28.2195C48.7659 28.1966 48.9244 28.2066 49.0757 28.2488L62.5395 32.064C62.6915 32.1071 62.8325 32.1819 62.9531 32.2833C63.0737 32.3847 63.1711 32.5105 63.2389 32.6522C63.3067 32.7939 63.3433 32.9484 63.3463 33.1052C63.3493 33.2621 63.3185 33.4178 63.2561 33.5619C62.284 35.8229 59.523 40.4797 53.583 39.3703Z" fill="white"/>
</g>
</mask>
<g mask="url(#mask0_2756_1919)">
<g id="Group 19">
<g id="Group 17">
<g id="Group 16">
<path id="Path 44" d="M53.583 39.3703C46.9396 38.1291 47.2328 31.8209 47.6735 29.1375C47.6985 28.9836 47.756 28.8367 47.8423 28.7064C47.9285 28.5761 48.0416 28.4654 48.174 28.3814C48.3064 28.2975 48.4551 28.2423 48.6105 28.2195C48.7659 28.1966 48.9244 28.2066 49.0757 28.2488L62.5395 32.064C62.6915 32.1071 62.8325 32.1819 62.9531 32.2833C63.0737 32.3847 63.1711 32.5105 63.2389 32.6522C63.3067 32.7939 63.3433 32.9484 63.3463 33.1052C63.3493 33.2621 63.3185 33.4178 63.2561 33.5619C62.284 35.8229 59.523 40.4797 53.583 39.3703Z" fill="#E8A2CC"/>
</g>
</g>
<g id="Group 18">
<path id="Path 45" d="M60.1425 37.8446C57.0161 33.9253 52.4419 31.1818 47.4851 31.0059C47.5092 30.3803 47.5722 29.7567 47.6738 29.1388C47.6986 28.9848 47.7561 28.8377 47.8422 28.7073C47.9284 28.5768 48.0414 28.4659 48.1738 28.3818C48.3063 28.2978 48.4551 28.2425 48.6106 28.2195C48.766 28.1966 48.9246 28.2066 49.076 28.2487L62.5398 32.0639C62.6918 32.107 62.8328 32.1818 62.9534 32.2832C63.074 32.3847 63.1714 32.5104 63.2392 32.6522C63.307 32.7939 63.3436 32.9483 63.3466 33.1052C63.3496 33.262 63.3188 33.4177 63.2564 33.5618C62.5739 35.2135 61.5068 36.6812 60.1425 37.8446Z" fill="#382417"/>
</g>
</g>
</g>
</g>
</g>
<path id="Path 47" d="M68.9884 18.7869C70.0208 19.1658 70.9364 19.8042 71.6457 20.6395C72.3699 21.3845 73.1175 22.3735 73.0776 23.4468C73.0749 23.5347 73.0284 23.8494 72.8898 23.8354C72.5798 23.8046 72.4248 23.4547 72.2724 23.2082C71.9457 22.7079 71.5696 22.2411 71.1497 21.8148C70.3326 20.9893 69.5587 20.1229 68.8307 19.2189C68.7758 19.146 68.8755 18.7517 68.9884 18.7869Z" fill="#382417"/>
<path id="Path 48" d="M45.7131 14.1212C47.4571 12.9535 49.5519 12.4148 51.6478 12.5951C51.7284 12.6048 51.6208 12.9208 51.5544 12.9437C50.5357 13.2848 49.5171 13.5881 48.4847 13.8821C47.5584 14.2137 46.5918 14.4218 45.6104 14.501C45.5151 14.5027 45.6613 14.1542 45.7131 14.1212Z" fill="#382417"/>
<path id="Path 49" d="M60.5985 7.4775C60.9781 8.61702 61.4842 9.71114 62.1074 10.7397C61.5118 11.3855 60.7647 11.8751 59.9324 12.1651C57.5802 12.9532 56.3627 11.5454 54.4503 10.5388C54.27 10.4435 53.9326 10.9907 53.9853 11.1419C55.1483 14.4854 59.0417 14.0279 61.3115 12.213C61.7089 11.8928 62.0792 11.5409 62.4188 11.1608C62.9354 11.8337 63.6916 12.2852 64.5327 12.4227C64.6886 12.4447 65.0717 11.9102 64.9313 11.7942C64.3115 11.2806 63.7631 10.6876 63.3006 10.0307C64.419 8.41377 65.0409 6.50955 65.0907 4.54888C65.1045 2.02288 62.0432 -2.14831 60.0418 1.32357C58.9168 3.28258 59.8487 5.54355 60.5985 7.4775ZM61.9493 7.47091C61.405 6.07055 60.583 4.55283 60.3797 3.0571C59.9846 0.150458 62.0095 0.697246 62.9042 1.74334C63.3992 2.27969 63.7654 2.92027 63.9755 3.61707C64.2423 4.5665 64.2988 5.56197 64.1412 6.53513C63.9532 7.61029 63.5655 8.6414 62.9976 9.57584C62.5814 8.90974 62.2303 8.2056 61.9493 7.4731V7.47091Z" fill="#E5B242"/>
</g>
</g>
</g>
</svg>
