<svg width="79" height="75" viewBox="0 0 79 75" fill="none" xmlns="http://www.w3.org/2000/svg">
<g id="Group 88">
<g id="Group 62">
<g id="Group 6">
<path id="Path 4" d="M13.1683 73.1014H67.9948C67.9948 73.1014 71.5578 67.9024 67.9948 61.7474C64.4318 55.5924 60.6326 50.8363 63.7924 39.3795C66.9522 27.9226 65.482 10.9123 49.4966 5.88595C34.1664 1.06578 19.2602 9.1373 16.5289 22.3134C13.7975 35.4896 19.0503 50.8972 16.739 56.8115C14.4277 62.7259 11.4873 68.9943 13.1683 73.1014Z" fill="#FFF5F3"/>
<path id="Path 5" d="M71.3652 73.942C71.3652 74.165 71.2766 74.3787 71.119 74.5364C70.9614 74.694 70.7476 74.7825 70.5247 74.7825H11.2768C11.0539 74.7825 10.8401 74.694 10.6825 74.5364C10.5248 74.3787 10.4363 74.165 10.4363 73.942C10.4363 73.7191 10.5248 73.5054 10.6825 73.3477C10.8401 73.1901 11.0539 73.1016 11.2768 73.1016H70.5247C70.7476 73.1016 70.9614 73.1901 71.119 73.3477C71.2766 73.5054 71.3652 73.7191 71.3652 73.942Z" fill="#FDDFD5"/>
</g>
<g id="Group 57">
<path id="Path 6" d="M44.7307 50.8753L44.5571 49.7815L44.028 46.4519C43.8511 45.3425 43.6631 44.2357 43.481 43.128L42.3816 36.4816L41.2409 29.8484L40.6685 26.5324L40.2675 24.287L41.6908 24.262L42.8113 24.2426L43.9316 24.2123L44.6093 24.1941L44.5044 23.3094L43.8263 17.5963L43.1157 11.8899L42.7463 9.03954L42.3703 6.1903C42.1124 4.29191 41.8536 2.39352 41.5727 0.5C41.6851 2.42648 41.8193 4.34853 41.9542 6.27036L42.1683 9.15079L42.3884 12.0306L42.8573 17.7839L43.2776 22.6114L42.8104 22.5985L41.6899 22.5791L39.4494 22.5399L38.6489 22.526L38.8223 23.6188L39.3516 26.9487L39.8995 30.2721L40.9996 36.9184L42.1405 43.5516C42.3318 44.6575 42.5178 45.7634 42.714 46.8673L43.1159 49.1165C41.8936 49.137 40.6716 49.1507 39.4494 49.1928L38.714 49.218L38.8891 50.1587L39.9187 55.6791L40.9804 61.1893L41.5258 63.9399L42.0765 66.6885L42.6403 69.4338C42.8341 70.3473 43.023 71.2614 43.2227 72.1723C43.1079 71.2347 42.9823 70.2995 42.8617 69.3633L42.4824 66.5594L42.0894 63.7603L41.6913 60.9626L40.8687 55.3754L40.1631 50.7857C41.4196 50.8184 42.6759 50.8299 43.9325 50.8571L44.7307 50.8753Z" fill="#FDDFD5"/>
<g id="Group 34">
<g id="Group 11">
<g id="Group 8">
<g id="Group 7">
<path id="Path 7" d="M47.8398 71.243C47.8398 71.243 48.1974 62.5345 48.1494 60.1634C48.1014 57.7924 49.0839 54.5972 49.0839 54.5972C48.4323 50.8814 48.8092 44.2593 48.8092 44.2593L52.7285 45.1712C52.7285 45.1712 51.9254 54.5736 51.7774 55.4521C51.6295 56.3306 49.1454 71.5469 49.1454 71.5469C49.1454 71.5469 50.6357 72.5595 50.6594 72.8399C50.683 73.1204 48.5429 72.4336 48.0673 72.3288C47.5918 72.2239 47.8398 71.243 47.8398 71.243Z" fill="#FFAE8A"/>
<path id="Path 8" d="M49.9676 72.1453C49.9676 72.1453 51.7306 72.8115 51.5641 73.4839C51.3975 74.1563 48.3249 73.2873 47.8398 73.0637C47.3548 72.8401 47.7755 71.5464 47.7755 71.5464C47.7755 71.5464 50.2023 73.0478 49.9676 72.1453Z" fill="#5C79E5"/>
</g>
<path id="Path 9" opacity="0.06" d="M47.7875 71.5534C47.7984 71.4491 47.8159 71.3457 47.8399 71.2437C47.8399 71.2437 48.1976 62.5352 48.1496 60.1641C48.1016 57.7931 49.084 54.5979 49.084 54.5979C48.8155 53.066 48.7218 51.0407 48.7043 49.189L49.196 49.8202C49.196 49.8202 49.5277 53.3874 49.7407 54.7822C49.7407 54.7822 48.9396 59.4754 48.8118 61.9484C48.6839 64.4214 48.2619 71.8309 48.2619 71.8309C48.447 72.3239 48.7598 72.7587 49.1684 73.0908C49.577 73.4229 50.0666 73.6403 50.587 73.7207C49.6479 73.6123 48.7252 73.3922 47.8384 73.0651C47.3533 72.8408 47.774 71.5478 47.774 71.5478L47.7875 71.5534Z" fill="#050505"/>
</g>
<g id="Group 10">
<g id="Group 9">
<path id="Path 10" d="M54.1462 71.5175C54.1462 71.5175 53.4426 62.8395 53.0932 60.5051C52.7437 58.1708 53.3073 54.8361 53.3073 54.8361C52.1888 51.2773 51.7166 44.6636 51.7166 44.6636L55.7077 44.8724C55.7077 44.8724 56.1132 54.3103 56.0795 55.2054C56.0459 56.1006 55.4766 71.5874 55.4766 71.5874C55.4766 71.5874 57.0793 72.3257 57.1386 72.5979C57.1978 72.8702 54.9944 72.5709 54.5109 72.551C54.0274 72.5311 54.1462 71.5175 54.1462 71.5175Z" fill="#FFAE8A"/>
<path id="Path 11" d="M56.3649 72.0336C56.3649 72.0336 58.1929 72.3806 58.1142 73.0749C58.0355 73.7692 54.8865 73.4542 54.3785 73.3182C53.8704 73.1822 54.1212 71.8301 54.1212 71.8301C54.1212 71.8301 56.7121 72.8831 56.3649 72.0336Z" fill="#5C79E5"/>
</g>
<path id="Path 12" opacity="0.06" d="M52.7291 49.8192C52.7291 49.8192 53.5345 53.386 54.0593 54.7179C53.4624 56.3603 53.2353 58.1141 53.3942 59.8544C53.6964 62.5817 54.428 71.9467 54.428 71.9467C54.428 71.9467 54.9036 73.4768 56.805 73.5025C55.9918 73.5245 55.1784 73.4626 54.3778 73.3178C53.8691 73.1824 54.1206 71.8297 54.1206 71.8297L54.1332 71.8344C54.1306 71.7286 54.1347 71.6227 54.1454 71.5174C54.1454 71.5174 53.4418 62.8394 53.0923 60.5051C52.7429 58.1707 53.3064 54.836 53.3064 54.836C52.8515 53.3891 52.5038 51.4371 52.2507 49.6299L52.7291 49.8192Z" fill="#050505"/>
</g>
</g>
<g id="Group 33">
<path id="Path 13" d="M51.7098 18.4101C53.5235 18.1226 55.5911 18.7905 56.7865 21.2005C57.982 23.6105 56.9245 27.0175 55.1056 29.0559C53.2866 31.0943 53.0603 33.5034 51.2398 35.1521C49.4193 36.8008 49.665 40.9866 49.665 40.9866C49.665 40.9866 47.1999 39.7816 46.5021 35.9134C45.8043 32.0452 45.3111 19.4246 51.7098 18.4101Z" fill="#C35B50"/>
<g id="Group 26">
<g id="Group 25">
<g id="Group 24">
<g id="Group 23">
<path id="Path 14" d="M53.4076 28.0357L53.6336 29.8443C53.6336 29.8443 53.899 33.1737 51.0989 29.9856L51.6151 27.5703L53.4076 28.0357Z" fill="#FCA181"/>
<g id="Group 22">
<g id="Group 17">
<g id="Group 16">
<g id="Group 15">
<g id="Group 14">
<path id="Path 15" d="M56.3021 23.4225C55.8777 19.484 52.2853 20.04 52.2842 20.0403C52.2831 20.0405 48.6451 20.1811 49.0786 24.2009C49.0786 24.2009 49.3219 26.5211 49.9854 27.3277C50.8556 28.388 52.2881 28.8366 53.2217 28.7359C53.8311 28.6516 54.4106 28.4193 54.9094 28.0593C55.4083 27.6993 55.8114 27.2226 56.0834 26.6708C56.5589 25.6492 56.3021 23.4225 56.3021 23.4225Z" fill="#FFAE8A"/>
<g id="Group 13">
<g id="Group 12">
<path id="Path 16" d="M49.1647 24.667C49.1647 24.667 48.8887 24.2109 48.6752 24.5633C48.4618 24.9156 48.6836 26.2316 49.4757 26.148C49.4757 26.148 49.2023 24.9822 49.1647 24.667Z" fill="#FFAE8A"/>
<path id="Path 17" d="M49.2129 25.1516C49.2129 25.1516 49.0016 24.6975 48.8687 24.9581C48.811 25.0919 48.8039 25.2421 48.8486 25.3808C48.8934 25.5195 48.987 25.6372 49.112 25.7121C49.112 25.7121 48.9109 24.8661 49.2129 25.1516Z" fill="#F9916B"/>
</g>
</g>
</g>
</g>
</g>
</g>
<g id="Group 21">
<g id="Group 19">
<g id="Group 18">
<path id="Path 18" d="M51.4193 25.655C51.4461 25.9043 51.3578 26.1195 51.2225 26.1337C51.0871 26.1478 50.9539 25.9567 50.927 25.7081C50.9 25.4595 50.9887 25.2437 51.1247 25.2288C51.2607 25.214 51.3923 25.4056 51.4193 25.655Z" fill="#AA5B50"/>
<path id="Path 19" d="M55.5241 25.2124C55.5509 25.4617 55.4626 25.6769 55.3266 25.6913C55.1905 25.7056 55.0589 25.5143 55.032 25.2655C55.005 25.0167 55.093 24.801 55.2288 24.7864C55.3646 24.7718 55.4969 24.9629 55.5241 25.2124Z" fill="#AA5B50"/>
</g>
<path id="Path 20" d="M54.2346 27.2289C54.1634 27.2091 54.0902 27.1969 54.0163 27.1924C53.942 27.1858 53.8674 27.1831 53.7927 27.1844C53.7111 27.1844 53.6255 27.1968 53.5395 27.2065C53.4557 27.2177 53.3726 27.2333 53.2904 27.2532C53.2189 27.2734 53.1486 27.2975 53.0796 27.3253C53.012 27.3509 52.9469 27.3826 52.885 27.42C52.9588 27.4295 53.0332 27.4334 53.1075 27.4317C53.18 27.4309 53.2525 27.4263 53.3245 27.418C53.363 27.4118 53.4054 27.4142 53.4464 27.408L53.5716 27.3945C53.7252 27.3724 53.8774 27.3414 54.0274 27.3014C54.0979 27.2814 54.1671 27.2572 54.2346 27.2289Z" fill="#F75C6C"/>
<path id="Path 21" d="M53.0838 26.4387C53.0927 26.5843 53.2674 26.692 53.4742 26.6794C53.681 26.6668 53.8409 26.538 53.8319 26.3918C53.8228 26.2456 53.6481 26.1388 53.4415 26.1514C53.2349 26.164 53.075 26.2934 53.0838 26.4387Z" fill="#F9916B"/>
</g>
<g id="Group 20">
<path id="Path 22" d="M51.6096 24.5083C51.6009 24.5229 51.5906 24.5364 51.5788 24.5486C51.5493 24.5826 51.5152 24.6124 51.4775 24.637C51.4538 24.6551 51.4279 24.67 51.4003 24.6813C51.3703 24.6964 51.3395 24.71 51.3081 24.7217C51.2378 24.7437 51.1649 24.7559 51.0913 24.758L50.9792 24.7525C50.9429 24.7494 50.9073 24.7409 50.8735 24.7273C50.8396 24.7175 50.8071 24.7052 50.7779 24.693C50.7496 24.6826 50.7234 24.6671 50.7007 24.6472C50.6505 24.6118 50.6048 24.5705 50.5647 24.524C50.6237 24.5258 50.6825 24.5326 50.7403 24.5444C50.7947 24.5537 50.8497 24.5592 50.9049 24.5609C50.9341 24.5655 50.9637 24.5678 50.9933 24.5678C51.0241 24.5678 51.0551 24.5665 51.086 24.566C51.1168 24.5694 51.148 24.5682 51.1785 24.5625C51.2088 24.5583 51.2397 24.5592 51.2694 24.5572C51.3273 24.5461 51.3862 24.5441 51.4348 24.5351L51.6096 24.5083Z" fill="#C35B50"/>
<path id="Path 23" d="M54.6951 24.1753C54.7067 24.1878 54.7198 24.1988 54.734 24.2082C54.7701 24.2349 54.8097 24.2564 54.8517 24.2724C54.8786 24.2853 54.9072 24.2946 54.9366 24.3C54.9691 24.3085 55.002 24.3152 55.0352 24.3202C55.1086 24.3265 55.1825 24.3228 55.2549 24.3091C55.2909 24.2991 55.3276 24.2894 55.3635 24.2799C55.3983 24.2691 55.4313 24.2531 55.4612 24.2324C55.4908 24.2159 55.5195 24.198 55.5473 24.1786C55.5731 24.1627 55.5956 24.1421 55.6136 24.1178C55.655 24.0723 55.6908 24.0221 55.7205 23.9683C55.6632 23.9828 55.6071 24.002 55.553 24.0258C55.5019 24.0464 55.4493 24.0635 55.3958 24.0769C55.3679 24.0879 55.3391 24.0964 55.3097 24.1025L55.2193 24.1207C55.1898 24.1305 55.159 24.136 55.1279 24.137C55.0974 24.1392 55.0671 24.1465 55.0379 24.1512C54.9788 24.1525 54.9211 24.1633 54.8713 24.1645L54.6951 24.1753Z" fill="#C35B50"/>
</g>
</g>
</g>
</g>
<path id="Path 24" d="M54.1472 21.4568C54.1472 21.4568 53.9418 23.0531 52.108 23.6686C52.108 23.6686 52.7476 22.8967 52.8341 22.2155C52.513 22.917 51.9478 23.4779 51.2438 23.7936C50.0906 24.2853 49.3417 24.4109 49.2578 24.9114C49.2578 24.9114 49.1727 24.3414 48.6752 24.5622C48.6752 24.5622 47.3524 20.5703 50.8506 19.226C54.0477 17.9976 56.7258 20.2642 56.5915 23.6111C56.5915 23.6111 56.2509 23.754 56.2608 23.9011C56.2708 24.0482 56.2509 23.754 56.2509 23.754C55.7687 22.8132 55.042 22.0197 54.1472 21.4568Z" fill="#C35B50"/>
</g>
</g>
</g>
<g id="Group 27">
<path id="Path 25" d="M55.0269 41.3828C55.0269 41.3828 56.9718 49.7065 57.2947 52.1793C57.2947 52.1793 51.767 53.797 47.8194 52.2748C47.8194 52.2748 47.7309 44.8432 49.4756 41.3828H55.0269Z" fill="#5C79E5"/>
<path id="Path 26" opacity="0.1" d="M47.8194 52.2748C47.8194 52.2748 47.7309 44.8432 49.4756 41.3828H50.9221C50.9221 41.3828 49.2648 50.0378 49.1969 52.6732C48.7277 52.5776 48.2671 52.4444 47.8194 52.2748Z" fill="#050505"/>
</g>
<g id="Group 32">
<path id="Path 27" d="M53.6336 29.8441L55.5289 30.4435C55.5289 30.4435 54.7691 32.2033 54.8853 32.8692C55.1399 33.262 55.287 33.7146 55.3118 34.182C55.3367 34.6494 55.2385 35.1151 55.027 35.5327C55.027 35.5327 54.6953 38.6102 55.027 41.3829C55.027 41.3829 52.7013 42.2388 49.4754 41.3829C49.4754 41.3829 49.912 34.3912 49.7218 32.7739C49.7218 32.7739 49.4741 31.2035 48.813 30.3484L51.1728 29.6387C51.1728 29.6387 53.0269 30.8618 53.6336 29.8441Z" fill="#FFB6BD"/>
<path id="Path 28" d="M48.8132 30.3486C48.8132 30.3486 47.8351 30.4592 47.5498 31.7595C47.2645 33.0599 47.5816 36.5793 47.9304 37.0548C48.2792 37.5303 50.8943 38.2602 52.1711 37.7526C52.1711 37.7526 50.0934 37.0864 49.7412 36.4842C49.7412 36.4842 50.267 32.2351 48.8132 30.3486Z" fill="#FFB6BD"/>
<path id="Path 29" d="M55.5288 30.4438C55.5288 30.4438 56.1557 30.5544 56.3713 31.9817C56.587 33.409 57.1897 36.4843 56.6184 37.2458C56.47 37.4435 55.0013 37.7678 52.1711 37.753C52.1711 37.753 50.474 37.3405 49.7412 36.6431L49.7678 36.225C49.7678 36.225 53.7992 35.9477 54.9876 36.0417L55.0279 35.533C55.2277 35.1123 55.3195 34.6484 55.2947 34.1833C55.2699 33.7182 55.1295 33.2666 54.8861 32.8695C54.8861 32.8695 54.7405 32.4572 55.5288 30.4438Z" fill="#FFB6BD"/>
<g id="Group 31">
<g id="Group 28">
<path id="Path 30" d="M50.7754 36.3172C52.3646 36.1243 54.957 36.1352 54.9835 36.1361L55.0747 36.1394L55.12 35.5643C55.9076 34.3036 55.1136 33.0358 54.98 32.8392C54.9771 32.1221 55.611 30.4947 55.6177 30.479L55.4299 30.4126C55.4022 30.4825 54.769 32.1321 54.7902 32.8723V32.9022L54.8079 32.9263C54.8174 32.9391 55.7497 34.2229 54.9459 35.482L54.9331 35.5019L54.8982 35.9443C53.4857 35.9482 52.0744 36.0229 50.6694 36.1681L50.7754 36.3172Z" fill="#F9A0AD"/>
</g>
<g id="Group 29">
<path id="Path 31" d="M50.6918 37.9445C51.1428 37.9458 51.5925 37.8981 52.0331 37.8022L52.3056 37.7359L52.0494 37.6224C51.2884 37.2851 50.0958 36.7258 49.9297 36.5658C49.7485 36.3922 49.8947 36.1297 49.9009 36.1184L49.912 36.0996L49.9133 36.0775C50.215 31.4603 48.9726 30.3629 48.918 30.3164L48.8134 30.348L48.73 30.3646C48.7428 30.3755 50.0139 31.5621 49.7253 36.0443C49.6654 36.1475 49.6402 36.2672 49.6533 36.3859C49.6665 36.5045 49.7173 36.6158 49.7983 36.7034C49.9934 36.8908 51.1435 37.4227 51.6956 37.6724C51.0299 37.7821 50.3505 37.7777 49.6864 37.6594L49.6488 37.8458C49.9923 37.9131 50.3417 37.9461 50.6918 37.9445Z" fill="#F9A0AD"/>
</g>
<g id="Group 30">
<path id="Path 32" d="M53.0206 37.8833C54.0849 37.8833 54.8785 37.817 54.89 37.8154V37.64C53.9347 37.6988 52.9764 37.6907 52.0222 37.6157L52.0056 37.8053C52.3009 37.8314 52.7475 37.8833 53.0206 37.8833Z" fill="#F9A0AD"/>
</g>
</g>
<path id="Path 33" d="M50.6706 36.1669L51.5199 37.3834C51.5199 37.3834 50.0929 36.7676 49.8865 36.5135C49.8865 36.5135 49.7164 36.1357 50.6706 36.1669Z" fill="#FFAE8A"/>
<path id="Path 34" opacity="0.4" d="M50.9221 41.3829L51.0991 37.8836L49.6486 37.8462L49.4758 41.3829H50.9221Z" fill="#F9A0AD"/>
<path id="Path 35" opacity="0.4" d="M47.9304 37.0543C47.5816 36.5788 47.2645 33.0592 47.5498 31.7591C47.5904 31.4989 47.6878 31.2509 47.8351 31.0327C47.9825 30.8145 48.1761 30.6315 48.4022 30.4966C48.1161 31.424 47.9871 32.3927 48.0205 33.3626C48.049 34.9151 47.8906 36.8851 49.1622 37.6389C48.5493 37.4644 48.0665 37.2401 47.9304 37.0543Z" fill="#F9A0AD"/>
</g>
</g>
</g>
<g id="Group 56">
<path id="Path 36" d="M23.8453 29.7627C23.8453 29.7627 22.3696 30.572 22.0622 33.0001C21.7547 35.4282 22.0622 47.4613 22.0622 47.4613H24.7679L23.8453 29.7627Z" fill="#4D6FDB"/>
<path id="Path 37" opacity="0.1" d="M23.8454 29.7627C23.4826 29.9945 23.1711 30.2981 22.9302 30.6549L23.8063 47.4613H24.768L23.8454 29.7627Z" fill="#050505"/>
<path id="Path 38" d="M24.2834 47.4624C24.2834 47.4624 24.6372 48.7674 24.4603 48.8824C24.2834 48.9974 23.9295 48.1083 23.7684 48.1724C23.6074 48.2365 23.8607 50.1508 23.7684 50.497C23.6762 50.8431 22.546 49.6897 22.477 49.1133C22.408 48.5369 22.3845 47.4624 22.3845 47.4624H24.2834Z" fill="#FFAE8A"/>
<g id="Group 54">
<g id="Group 47">
<path id="Path 39" d="M28.0847 25.7395L27.8378 27.714L26.7319 29.8957C26.7319 29.8957 27.5479 31.3488 30.6048 27.8684L30.0412 25.2314L28.0847 25.7395Z" fill="#FCA181"/>
<g id="Group 46">
<g id="Group 45">
<g id="Group 40">
<g id="Group 39">
<g id="Group 38">
<g id="Group 37">
<path id="Path 40" d="M24.9247 20.7024C25.3879 16.4029 29.3101 17.0098 29.3112 17.01C29.3123 17.0102 33.2842 17.1648 32.8111 21.5524C32.8111 21.5524 32.5444 24.0853 31.8214 24.9663C30.8718 26.1237 29.3074 26.6132 28.2887 26.5035C27.6234 26.4115 26.9908 26.1579 26.4462 25.7649C25.9016 25.3719 25.4616 24.8514 25.1647 24.249C24.6445 23.1331 24.9247 20.7024 24.9247 20.7024Z" fill="#FFAE8A"/>
<g id="Group 36">
<g id="Group 35">
<path id="Path 41" d="M32.7167 22.0616C32.7167 22.0616 33.018 21.564 33.2506 21.9486C33.4833 22.3332 33.2416 23.7698 32.3772 23.6785C32.3772 23.6785 32.6762 22.4058 32.7167 22.0616Z" fill="#FFAE8A"/>
<path id="Path 42" d="M32.6643 22.5914C32.6643 22.5914 32.8946 22.0957 33.0403 22.3799C33.1033 22.526 33.1112 22.69 33.0624 22.8414C33.0135 22.9929 32.9114 23.1214 32.7749 23.2032C32.7749 23.2032 32.9928 22.2795 32.6643 22.5914Z" fill="#F9916B"/>
</g>
</g>
</g>
</g>
</g>
</g>
<g id="Group 44">
<g id="Group 42">
<g id="Group 41">
<path id="Path 43" d="M29.7965 22.9025C29.7713 23.1385 29.8547 23.3414 29.9827 23.3553C30.1108 23.3692 30.2366 23.1888 30.2618 22.9528C30.2871 22.7168 30.2037 22.5137 30.0752 22.4998C29.9467 22.4858 29.823 22.6663 29.7965 22.9025Z" fill="#AA5B50"/>
<path id="Path 44" d="M25.9164 22.4846C25.891 22.7204 25.9746 22.9234 26.1031 22.9371C26.2316 22.9508 26.3561 22.7706 26.3816 22.5346C26.407 22.2986 26.3238 22.0957 26.1953 22.0818C26.0668 22.0679 25.9419 22.2484 25.9164 22.4846Z" fill="#AA5B50"/>
</g>
<path id="Path 45" d="M27.1353 24.3903C27.2026 24.3716 27.2718 24.3599 27.3416 24.3556C27.4035 24.3501 27.4759 24.3474 27.5531 24.3483C27.6303 24.3492 27.7112 24.3598 27.7924 24.3684C27.8717 24.3787 27.9503 24.3935 28.0279 24.4127C28.0955 24.4316 28.162 24.4543 28.227 24.4806C28.2909 24.5044 28.3525 24.534 28.411 24.569C28.3413 24.5781 28.271 24.5818 28.2007 24.5799C28.1322 24.5792 28.0637 24.575 27.9956 24.5673C27.9591 24.5613 27.9189 24.5637 27.8804 24.5578L27.7621 24.5449C27.6168 24.524 27.4728 24.4944 27.331 24.4565C27.2645 24.4383 27.1991 24.4162 27.1353 24.3903Z" fill="#EF896A"/>
<path id="Path 46" d="M28.2233 23.6438C28.2149 23.7813 28.0495 23.8833 27.8544 23.8711C27.6593 23.859 27.5078 23.7384 27.5162 23.6004C27.5246 23.4624 27.6898 23.3611 27.8851 23.373C28.0804 23.385 28.2319 23.5064 28.2233 23.6438Z" fill="#F9916B"/>
</g>
<g id="Group 43">
<path id="Path 47" d="M30.6043 21.7885C30.5442 21.7907 30.4844 21.7981 30.4256 21.8106C30.3997 21.8167 30.3732 21.8196 30.3466 21.8195C30.3245 21.8206 30.3004 21.8217 30.2803 21.8246C30.2697 21.8251 30.2591 21.8262 30.2486 21.8279C30.2366 21.8299 30.2244 21.831 30.2121 21.8312V21.8755L30.1995 21.8312L30.1058 21.8299C30.0805 21.8325 30.0551 21.8316 30.0301 21.827C30.0098 21.8241 29.9892 21.8235 29.9688 21.8226H29.9467C29.9171 21.8168 29.8877 21.8137 29.8583 21.8106C29.8339 21.808 29.8105 21.8056 29.7875 21.8009L29.5347 21.7622L29.5769 21.8414C29.5864 21.8581 29.5978 21.8736 29.611 21.8876C29.6411 21.9215 29.6755 21.9512 29.7134 21.9761C29.7385 21.9955 29.766 22.0117 29.7952 22.0241L29.8138 22.0329C29.8388 22.0455 29.8647 22.0563 29.8912 22.0652L29.9308 22.075C29.9832 22.0905 30.0374 22.0993 30.092 22.1013L30.2183 22.0957C30.2445 22.0947 30.2702 22.0891 30.2944 22.0792C30.3043 22.0755 30.3145 22.0724 30.3247 22.0699C30.3535 22.0617 30.3807 22.0511 30.4063 22.0411L30.4147 22.0376C30.4472 22.0267 30.4772 22.0097 30.5032 21.9874C30.5538 21.9515 30.5998 21.9096 30.6403 21.8626L30.6992 21.7885H30.6043Z" fill="#34276F"/>
<path id="Path 48" d="M26.4661 21.4433C26.4387 21.4398 26.4112 21.4378 26.3836 21.4371L26.3555 21.432C26.3351 21.428 26.3145 21.425 26.2938 21.4232C26.2667 21.4222 26.2399 21.4172 26.2142 21.4083L26.1257 21.3909C26.1105 21.3884 26.0957 21.3842 26.0815 21.3783C26.0715 21.3745 26.0614 21.371 26.0538 21.369C26.0317 21.361 26.0096 21.3553 25.9875 21.3493C25.9598 21.3435 25.933 21.3342 25.9076 21.3216C25.8539 21.2981 25.7982 21.279 25.7413 21.2648L25.6482 21.2427L25.6907 21.3278C25.7221 21.3847 25.7601 21.4376 25.8039 21.4855C25.8226 21.5098 25.8457 21.5303 25.872 21.5459C25.899 21.5649 25.9271 21.5824 25.9561 21.5983C25.9649 21.6027 25.9735 21.6076 25.9817 21.6129C26.0042 21.6288 26.0295 21.6401 26.0563 21.6461L26.1589 21.6735C26.1995 21.6836 26.2412 21.6882 26.283 21.6872C26.3013 21.6872 26.3197 21.6872 26.3376 21.6861L26.3832 21.685C26.4101 21.6816 26.4368 21.6764 26.463 21.6696L26.4798 21.6656C26.5104 21.6599 26.5401 21.6504 26.5683 21.6373C26.6111 21.6205 26.6515 21.5982 26.6884 21.5709C26.7051 21.5597 26.7204 21.5466 26.734 21.5318L26.7917 21.4634L26.5342 21.4475C26.5137 21.4486 26.4902 21.4466 26.4661 21.4433Z" fill="#34276F"/>
</g>
</g>
</g>
<path id="Path 49" d="M32.3772 17.8348C32.3772 17.8348 32.6647 15.9965 28.4997 16.5995C25.7946 16.9912 24.9893 17.7337 24.3127 17.6501C24.4707 18.0704 24.7302 18.4452 25.0681 18.7409C24.8993 19.2859 24.6567 20.3263 24.8745 21.3124C24.8745 21.3124 25.1271 19.8882 25.5217 19.0864C26.1563 19.4704 26.8795 19.6832 27.6209 19.7042C30.3547 19.857 32.5311 21.2027 32.6638 22.5912C32.6638 22.5912 32.8386 21.9023 33.2504 21.9485C33.2513 21.9485 34.545 17.534 32.3772 17.8348Z" fill="#34276F"/>
</g>
</g>
<g id="Group 48">
<path id="Path 50" d="M26.788 71.3808C26.9475 71.898 26.9475 72.4513 26.788 72.9684H21.8115C21.8115 72.9684 21.3618 72.5194 22.2012 72.1746C23.0406 71.8298 25.0736 71.3428 25.0736 71.3428L26.788 71.3808Z" fill="#5C79E5"/>
<path id="Rectangle 5" d="M26.728 72.9688H21.812V73.1855H26.728V72.9688Z" fill="#7F9BF4"/>
</g>
<g id="Group 52">
<path id="Path 51" d="M32.9449 41.9126C32.9449 41.9126 34.5516 43.5321 34.2057 48.235C33.9504 51.7102 34.9875 56.8593 34.9875 56.8593C34.9875 56.8593 36.5665 63.1388 35.5737 71.1539L33.4738 71.1077C33.4738 71.1077 31.2766 58.7019 30.9567 57.3366C30.6369 55.9712 28.9922 49.6667 28.9922 49.6667C28.9922 49.6667 28.2108 56.3906 27.9651 56.9508C27.7193 57.5111 28.8958 62.1457 26.9414 71.3839L24.1526 71.3428C24.1526 71.3428 24.4401 58.0096 24.4808 56.1968C24.5215 54.384 23.9334 48.3892 24.6164 43.8756L32.9449 41.9126Z" fill="#34276F"/>
<g id="Group 51">
<g id="Clip path group">
<mask id="mask0_2757_2879" style="mask-type:luminance" maskUnits="userSpaceOnUse" x="24" y="41" width="12" height="31">
<g id="clip-path">
<path id="Path 53" d="M32.9449 41.9126C32.9449 41.9126 34.5516 43.5321 34.2057 48.235C33.9504 51.7102 34.9875 56.8593 34.9875 56.8593C34.9875 56.8593 36.5665 63.1388 35.5737 71.1539L33.4738 71.1077C33.4738 71.1077 31.2766 58.7019 30.9567 57.3366C30.6369 55.9712 28.9922 49.6667 28.9922 49.6667C28.9922 49.6667 28.2108 56.3906 27.9651 56.9508C27.7193 57.5111 28.8958 62.1457 26.9414 71.3839L24.1526 71.3428C24.1526 71.3428 24.4401 58.0096 24.4808 56.1968C24.5215 54.384 23.9334 48.3892 24.6164 43.8756L32.9449 41.9126Z" fill="white"/>
</g>
</mask>
<g mask="url(#mask0_2757_2879)">
<g id="Group 50">
<g id="Group 49">
<path id="Path 52" d="M35.0909 72.0694L34.9118 72.0559C35.1568 68.7712 34.7872 58.9417 34.2568 57.4098C33.6513 55.6599 32.888 51.438 33.1731 47.9354C33.467 44.3259 31.8858 41.987 31.8699 41.9635L32.0178 41.8613C32.0342 41.885 33.6513 44.2768 33.3524 47.9495C33.0691 51.4271 33.8262 55.6152 34.4269 57.3497C34.9617 58.8964 35.3373 68.7727 35.0909 72.0694Z" fill="#4D41A3"/>
</g>
</g>
</g>
</g>
</g>
<path id="Path 54" opacity="0.5" d="M28.9915 49.6665C28.5573 50.0456 27.0279 58.1598 27.0279 58.1598C27.2077 64.8142 26.2476 71.3691 26.2476 71.3691L26.9407 71.3839C28.8951 62.1457 27.7188 57.5118 27.9644 56.9508C28.2099 56.3899 28.9915 49.6665 28.9915 49.6665Z" fill="#1D1749"/>
</g>
<g id="Group 53">
<path id="Path 55" d="M27.7564 27.8751C27.7564 27.8751 28.7258 29.0263 30.5722 27.7139C30.5722 27.7139 33.7975 28.4997 34.3969 29.0394L34.7565 44.599C34.7565 44.599 26.3034 45.3459 23.6057 43.787L23.8455 29.7642L27.7564 27.8751Z" fill="#5C79E5"/>
<path id="Path 56" opacity="0.1" d="M34.7555 44.5986L34.7334 43.6327C34.2468 43.6628 25.5869 44.1784 24.8488 42.5647C24.2616 41.2818 24.3795 33.1092 24.4633 29.4648L23.844 29.7637L23.6042 43.7865C26.3033 45.3456 34.7555 44.5986 34.7555 44.5986Z" fill="#050505"/>
</g>
<path id="Path 57" d="M35.5739 71.1411L31.8359 73.1331C31.8359 73.1331 31.9403 73.4319 32.8394 73.5294C33.6872 73.6212 34.3713 73.6679 34.7858 73.4009V73.4067C35.291 73.2359 35.4898 71.8341 35.5719 71.6129C35.6192 71.4593 35.6199 71.2951 35.5739 71.1411Z" fill="#7F9BF4"/>
<path id="Path 58" d="M33.4727 71.1074C33.2688 71.4874 33.0057 71.8324 32.6931 72.1295C32.3033 72.4323 31.3253 73.0806 32.0749 73.2533C32.8244 73.4261 34.0876 73.5464 34.5505 73.2975C35.0895 73.0082 35.5726 71.1404 35.5726 71.1404L33.4727 71.1074Z" fill="#5C79E5"/>
</g>
<g id="Group 55">
<path id="Path 59" d="M31.8862 44.5264L30.7803 45.4C30.7803 45.4 31.9565 46.7147 32.5329 46.9686L33.1608 46.0176L31.8862 44.5264Z" fill="#FFAE8A"/>
<path id="Path 60" d="M34.3967 29.0391C34.3967 29.0391 35.5924 29.3191 36.5764 32.4769C37.4063 35.1399 38.4624 37.6967 38.2371 39.3653C38.0641 40.645 33.6243 46.3546 33.6243 46.3546C33.6243 46.3546 31.9022 45.2686 31.7178 43.9773C31.7178 43.9773 35.5309 39.2293 35.5924 38.8358C35.6539 38.4423 34.4989 34.1968 34.4989 34.1968C34.4989 34.1968 34.185 29.5986 34.3967 29.0391Z" fill="#4D6FDB"/>
<path id="Path 61" d="M30.78 45.4004C30.78 45.4004 31.9792 46.6459 32.5326 46.969C32.5326 46.969 31.7394 47.8407 30.9569 47.0758C30.7159 46.874 30.5627 46.5865 30.5297 46.2739C30.4966 45.9613 30.5864 45.6481 30.78 45.4004Z" fill="#4D41A3"/>
<path id="Path 62" opacity="0.1" d="M34.3967 29.0391C34.3496 29.2354 34.3273 29.4368 34.3303 29.6387C34.3341 29.6438 35.591 31.2944 36.3902 34.0678C37.1897 36.8454 37.7434 38.4472 37.3127 39.6143C36.8821 40.7815 33.1003 45.9467 33.1003 45.9467L33.1174 45.9814C33.2798 46.1147 33.4491 46.2394 33.6245 46.355C33.6245 46.355 38.0643 40.645 38.2372 39.3657C38.4626 37.6974 37.4065 35.1412 36.5766 32.4773C35.5924 29.3202 34.3967 29.0391 34.3967 29.0391Z" fill="#050505"/>
</g>
</g>
</g>
<g id="Group 59">
<g id="Group 58">
<path id="Path 63" d="M76.0665 66.8676V66.8692C74.4598 66.0015 72.7468 65.3961 71.0526 65.2652C72.3527 64.9064 74.931 63.7647 74.1363 63.0005C73.3254 62.2207 71.1643 64.647 70.6544 65.2435C69.6741 65.2048 68.6954 65.3549 67.7718 65.6859C68.8832 65.015 71.1767 63.0866 70.1672 62.5695C69.1113 62.0282 67.6457 65.3329 67.4383 65.8159C66.5416 66.1991 65.7241 66.7457 65.0274 67.4279C65.7732 66.2172 66.7433 64.0204 65.7217 63.9633C64.6005 63.9001 64.5404 67.1386 64.5426 67.93C63.9955 68.5371 63.5099 69.197 63.0927 69.8998C63.379 68.5199 63.5455 66.0148 62.548 66.3249C61.5007 66.6504 62.5037 69.5707 62.8103 70.3966C62.2458 71.4351 61.8133 72.54 61.5226 73.6857C61.5135 73.7313 61.522 73.7787 61.5464 73.8183C61.5708 73.8579 61.6093 73.8868 61.6542 73.8991C61.699 73.9115 61.7469 73.9064 61.7881 73.8849C61.8293 73.8634 61.8609 73.8271 61.8765 73.7833C62.1555 72.6881 62.5703 71.6322 63.1111 70.6399C63.6178 70.6903 66.9926 70.9807 66.7871 69.7872C66.5881 68.6276 63.7264 70.2344 63.1485 70.572C63.6073 69.733 64.1548 68.9456 64.7815 68.2233C65.3601 68.5039 68.2624 69.8476 68.4814 68.6899C68.6939 67.563 65.6188 68.014 64.8516 68.1432C64.8768 68.1151 64.9011 68.0859 64.9263 68.058C65.6703 67.2265 66.5815 66.5614 67.6002 66.1063C68.0582 66.6451 70.1137 68.9642 70.773 68.0085C71.4107 67.0842 68.5566 66.2658 67.7291 66.0508C68.3356 65.797 68.9747 65.6293 69.6277 65.5527C70.9907 65.423 72.3651 65.6165 73.6393 66.1176C73.6592 66.8544 73.8082 69.9025 74.9128 69.5753C75.9683 69.263 74.3479 66.9212 73.804 66.1818C74.7129 66.5383 75.589 66.9734 76.4222 67.4823C76.9368 68.2993 77.9191 69.597 78.7667 69.2038C79.9798 68.6417 76.0665 66.8676 76.0665 66.8676Z" fill="#FDDFD5"/>
<path id="Path 64" d="M77.8585 64.9612C77.3389 63.7923 73.6377 65.8048 73.6377 65.8048C74.5014 66.0583 78.3776 66.1301 77.8585 64.9612Z" fill="#FDDFD5"/>
<path id="Path 65" d="M70.6035 65.5156C70.6035 65.5156 72.1274 69.2016 73.1504 68.3843C74.1734 67.5671 70.6035 65.5156 70.6035 65.5156Z" fill="#FDDFD5"/>
</g>
<path id="Path 66" d="M72.9755 51.3213C72.22 49.9721 69.6326 52.0932 68.4856 53.1385C67.8986 53.4529 67.3322 53.8044 66.79 54.1909C67.4496 53.0213 68.6017 50.6885 67.4139 50.5047C66.0902 50.2995 66.2669 53.4451 66.3633 54.5063C65.6358 55.0636 64.9587 55.6837 64.3398 56.3596C64.7394 55.2831 65.7516 52.2443 64.4282 52.2761C63.0027 52.31 63.9213 55.7814 64.1491 56.5721C63.5563 57.2443 63.019 57.9635 62.5425 58.7226C62.7535 57.3577 62.9627 55.0015 61.8347 55.2265C60.5432 55.4835 61.7252 58.2849 62.1979 59.2962C61.6485 60.2524 61.185 61.2554 60.8126 62.2934C60.7708 61.0669 60.5492 58.0708 59.3687 58.5807C58.0804 59.1363 60.1429 61.9295 60.6925 62.6371C60.4824 63.2545 60.2996 63.8871 60.1442 64.5348C60.0217 65.0488 59.9146 65.5724 59.8208 66.1017C59.4072 65.0274 58.1571 62.0855 57.1861 62.9848C56.1601 63.9341 59.008 65.8701 59.7755 66.3629C59.3353 68.9103 59.2877 71.51 59.6342 74.0719C59.6682 74.3057 60.0223 74.2061 59.9881 73.9741C59.6643 71.4641 59.7184 68.9198 60.1486 66.4259C61.111 66.0603 64.3046 64.7449 63.3701 63.7412C62.5279 62.8344 60.921 64.9637 60.2214 65.9993C60.2696 65.7274 60.3198 65.4574 60.3745 65.1906C60.5396 64.3856 60.7533 63.5914 61.0146 62.8123C62.0406 62.7877 65.4952 62.6132 64.948 61.3525C64.436 60.1729 62.0521 61.8112 61.1136 62.5181C61.4594 61.5365 61.8886 60.5863 62.3965 59.6779C63.1175 59.8221 67.0001 60.5363 66.7113 59.1051C66.4328 57.7236 63.2465 59.182 62.4577 59.5665C63.0126 58.5903 63.6662 57.6736 64.4083 56.8309C65.4149 57.2069 68.6008 58.2907 68.5665 56.9362C68.5336 55.6792 65.8319 56.2505 64.6516 56.5617C65.2073 55.961 65.8102 55.4058 66.4545 54.9013C67.1651 55.3322 70.4501 57.2403 70.6662 55.8219C70.8723 54.4714 67.5953 54.6899 66.6005 54.7865C67.1663 54.3544 67.762 53.9627 68.3829 53.6143C69.7596 53.4331 73.7919 52.7778 72.9755 51.3213Z" fill="#FDDFD5"/>
</g>
<g id="Group 61">
<g id="Group 60">
<path id="Path 67" d="M2.98275 66.8676V66.8692C4.58963 66.0015 6.30266 65.3961 7.9969 65.2652C6.69703 64.9064 4.11851 63.7647 4.91343 63.0005C5.72428 62.2207 7.88543 64.647 8.39503 65.2435C9.37545 65.2048 10.3542 65.3549 11.2779 65.6859C10.1665 65.015 7.87171 63.0866 8.88251 62.5695C9.9382 62.0282 11.404 65.3329 11.6114 65.8159C12.5081 66.1991 13.3256 66.7457 14.0223 67.4279C13.2765 66.2172 12.3064 64.0204 13.328 63.9633C14.4494 63.9001 14.5093 67.1386 14.5073 67.93C15.0544 68.5371 15.54 69.1969 15.9569 69.8998C15.671 68.5199 15.5042 66.0148 16.5017 66.3249C17.5492 66.6504 16.5459 69.5707 16.2396 70.3966C16.804 71.4351 17.2365 72.5401 17.5273 73.6857C17.5364 73.7313 17.5279 73.7787 17.5035 73.8183C17.4791 73.8579 17.4406 73.8868 17.3958 73.8991C17.3509 73.9115 17.3031 73.9064 17.2618 73.8849C17.2206 73.8634 17.189 73.8271 17.1734 73.7833C16.8946 72.6881 16.4799 71.6321 15.9388 70.6399C15.4321 70.6903 12.0575 70.9807 12.263 69.7872C12.4621 68.6276 15.3235 70.2344 15.9014 70.572C15.4427 69.7329 14.8952 68.9455 14.2685 68.2233C13.6899 68.5039 10.7875 69.8476 10.5686 68.6899C10.3562 67.563 13.4313 68.014 14.1986 68.1432C14.1734 68.1151 14.149 68.0859 14.1238 68.058C13.3798 67.2265 12.4686 66.5614 11.4497 66.1063C10.9917 66.6451 8.93625 68.9642 8.27692 68.0085C7.63948 67.0842 10.4934 66.2658 11.321 66.0508C10.7144 65.7969 10.0753 65.6293 9.42219 65.5527C8.05919 65.423 6.68481 65.6165 5.41065 66.1176C5.39074 66.8544 5.24166 69.9025 4.13687 69.5753C3.08184 69.263 4.70198 66.9212 5.24587 66.1818C4.33708 66.5383 3.46113 66.9735 2.62798 67.4823C2.11307 68.2993 1.13126 69.597 0.283474 69.2038C-0.930804 68.6417 2.98275 66.8676 2.98275 66.8676Z" fill="#FDDFD5"/>
<path id="Path 68" d="M1.19041 64.9612C1.70996 63.7923 5.41119 65.8048 5.41119 65.8048C4.54814 66.0583 0.671525 66.1301 1.19041 64.9612Z" fill="#FDDFD5"/>
<path id="Path 69" d="M8.44551 65.5156C8.44551 65.5156 6.92158 69.2016 5.89862 68.3843C4.87566 67.5671 8.44551 65.5156 8.44551 65.5156Z" fill="#FDDFD5"/>
</g>
<path id="Path 70" d="M6.07324 51.3213C6.82901 49.9721 9.41615 52.0932 10.5632 53.1385C11.1502 53.4529 11.7165 53.8045 12.2588 54.1909C11.599 53.0213 10.4473 50.6885 11.6348 50.5047C12.9583 50.2995 12.7818 53.4451 12.6852 54.5063C13.4128 55.0635 14.0901 55.6836 14.709 56.3596C14.3093 55.2831 13.2972 52.2443 14.6216 52.2761C16.0471 52.31 15.1286 55.7814 14.9007 56.5721C15.4935 57.2444 16.0308 57.9636 16.5074 58.7226C16.2964 57.3577 16.0872 55.0015 17.2152 55.2265C18.5066 55.4835 17.3258 58.2849 16.852 59.2962C17.4014 60.2524 17.8651 61.2554 18.2375 62.2934C18.2793 61.0669 18.5007 58.0708 19.6813 58.5807C20.9695 59.1363 18.9072 61.9295 18.3576 62.6371C18.5677 63.2545 18.7505 63.8871 18.9059 64.5348C19.0282 65.0488 19.1355 65.5724 19.2292 66.1017C19.6428 65.0274 20.893 62.0855 21.8639 62.9848C22.89 63.9341 20.0421 65.8701 19.2746 66.3629C19.7147 68.9103 19.7624 71.51 19.4159 74.0719C19.3819 74.3057 19.0275 74.2061 19.062 73.9741C19.3856 71.4641 19.3314 68.9198 18.9012 66.4259C17.9391 66.0603 14.7455 64.7449 15.68 63.7412C16.522 62.8344 18.1289 64.9637 18.8285 65.9993C18.7805 65.7274 18.73 65.4574 18.6754 65.1906C18.5105 64.3856 18.2968 63.5914 18.0355 62.8123C17.0095 62.7877 13.5549 62.6132 14.1018 61.3525C14.6141 60.1729 16.998 61.8112 17.9364 62.5181C17.5905 61.5366 17.1613 60.5864 16.6536 59.6779C15.9323 59.8221 12.0497 60.5363 12.3388 59.1051C12.6171 57.7236 15.8036 59.182 16.5923 59.5665C16.0373 58.5903 15.3836 57.6736 14.6415 56.8309C13.6349 57.2069 10.4491 58.2907 10.4847 56.9362C10.5174 55.6792 13.2193 56.2505 14.3996 56.5617C13.8438 55.9611 13.241 55.4058 12.5967 54.9013C11.8858 55.3322 8.6011 57.2403 8.38501 55.8219C8.17865 54.4714 11.4559 54.6899 12.4507 54.7865C11.8848 54.3545 11.2892 53.9627 10.6683 53.6143C9.28986 53.4331 5.25753 52.7778 6.07324 51.3213Z" fill="#FDDFD5"/>
</g>
</g>
<g id="Group 82">
<g id="Group 63">
<path id="Path 71" d="M61.3581 17.334C61.0967 17.5942 60.764 17.771 60.4021 17.842C60.0402 17.9131 59.6654 17.8753 59.325 17.7333C58.9846 17.5913 58.6939 17.3516 58.4897 17.0445C58.2856 16.7373 58.1771 16.3765 58.178 16.0077C58.1789 15.6389 58.2891 15.2786 58.4948 14.9724C58.7004 14.6663 58.9923 14.428 59.3333 14.2877C59.6744 14.1474 60.0495 14.1114 60.411 14.1842C60.7726 14.257 61.1044 14.4354 61.3646 14.6969C61.7132 15.0475 61.9084 15.5223 61.9072 16.0168C61.906 16.5113 61.7085 16.9851 61.3581 17.334Z" fill="#5C79E5"/>
<path id="Path 72" d="M64.2355 11.841L63.9097 11.5138L63.5087 11.1108L63.3318 11.2862L63.7326 11.6892L63.4559 11.9648L63.0549 11.5618L62.8779 11.7372L63.2789 12.14L62.3977 13.0167L61.997 12.6138L61.82 12.7892L62.221 13.1921L61.4911 13.9185L61.0901 13.5155L60.9132 13.6909L61.3142 14.0939L60.2063 15.1963L60.8577 15.8509L64.5587 12.1681L64.2355 11.841Z" fill="#5C79E5"/>
<path id="Path 73" d="M60.7395 16.713C60.6011 16.8508 60.4249 16.9444 60.2333 16.9821C60.0417 17.0197 59.8432 16.9997 59.663 16.9245C59.4828 16.8494 59.3289 16.7224 59.2208 16.5598C59.1127 16.3972 59.0552 16.2062 59.0557 16.0109C59.0561 15.8156 59.1145 15.6248 59.2234 15.4627C59.3322 15.3006 59.4867 15.1744 59.6673 15.1001C59.8479 15.0258 60.0465 15.0068 60.2379 15.0453C60.4294 15.0839 60.6051 15.1783 60.7428 15.3167C60.9274 15.5024 61.0308 15.7538 61.0302 16.0156C61.0296 16.2774 60.925 16.5283 60.7395 16.713Z" fill="white"/>
</g>
<g id="Group 66">
<g id="Group 64">
<path id="Path 74" d="M37.5454 8.41729C37.9472 8.96881 38.1764 9.62709 38.2041 10.3089C38.2318 10.9907 38.0568 11.6654 37.701 12.2477C37.3453 12.83 36.8249 13.2938 36.2057 13.5804C35.5864 13.8669 34.8961 13.9635 34.222 13.8577C33.5478 13.752 32.9202 13.4488 32.4184 12.9864C31.9166 12.524 31.5632 11.9232 31.4028 11.2599C31.2424 10.5967 31.2823 9.90076 31.5174 9.26018C31.7525 8.6196 32.1723 8.06311 32.7236 7.66108C33.4634 7.12205 34.3869 6.89891 35.2911 7.04072C36.1953 7.18253 37.0062 7.67769 37.5454 8.41729Z" fill="#5C79E5"/>
<path id="Path 75" d="M36.9388 8.85952C37.2535 9.2912 37.433 9.80649 37.4548 10.3402C37.4766 10.874 37.3396 11.4022 37.0612 11.8581C36.7828 12.314 36.3754 12.6771 35.8907 12.9015C35.4059 13.1258 34.8654 13.2014 34.3377 13.1186C33.81 13.0358 33.3186 12.7984 32.9258 12.4364C32.533 12.0743 32.2564 11.604 32.131 11.0847C32.0055 10.5655 32.0368 10.0207 32.221 9.51923C32.4052 9.01779 32.7339 8.58224 33.1657 8.26764C33.4523 8.05876 33.7772 7.90837 34.122 7.82507C34.4667 7.74176 34.8245 7.72718 35.1748 7.78214C35.5252 7.8371 35.8613 7.96053 36.164 8.14539C36.4666 8.33025 36.7299 8.57291 36.9388 8.85952Z" fill="#7D9CFF"/>
</g>
<g id="Group 65">
<path id="Path 76" d="M35.7424 10.1487C35.9857 10.484 35.8751 10.8711 35.5502 11.1712L35.8508 11.5839L35.519 11.8272L35.2143 11.409C34.9428 11.5538 34.6367 11.6212 34.3295 11.6038L34.2435 11.1194C34.5581 11.1514 34.8744 11.0775 35.1424 10.9095C35.3224 10.7784 35.3821 10.6331 35.2952 10.5141C35.0298 10.1485 34.1508 11.1146 33.6503 10.4278C33.4342 10.1314 33.501 9.76892 33.7987 9.46723L33.5059 9.06556L33.8376 8.82227L34.1221 9.21287C34.3506 9.07764 34.6076 8.9978 34.8725 8.97975L34.9681 9.46634C34.7028 9.48567 34.4459 9.56809 34.2189 9.70676C34.0721 9.81382 34.0108 9.939 34.0876 10.0443C34.3486 10.401 35.2364 9.44887 35.7424 10.1487Z" fill="white"/>
</g>
</g>
<g id="Group 69">
<g id="Group 67">
<path id="Path 77" d="M50.0611 13.343C49.9616 13.8048 49.7274 14.2267 49.3881 14.5555C49.0489 14.8842 48.6198 15.1049 48.1551 15.1898C47.6904 15.2747 47.211 15.2198 46.7774 15.0323C46.3439 14.8447 45.9757 14.5328 45.7194 14.136C45.4631 13.7392 45.3301 13.2753 45.3374 12.803C45.3447 12.3307 45.4919 11.8711 45.7604 11.4824C46.0288 11.0937 46.4065 10.7934 46.8456 10.6193C47.2847 10.4452 47.7656 10.4052 48.2275 10.5044C48.5343 10.5703 48.8251 10.696 49.0834 10.8744C49.3416 11.0527 49.5622 11.2802 49.7324 11.5438C49.9027 11.8074 50.0194 12.102 50.0758 12.4107C50.1322 12.7195 50.1272 13.0363 50.0611 13.343Z" fill="#5C79E5"/>
<path id="Path 78" d="M49.5523 13.2338C49.4745 13.5954 49.2911 13.9258 49.0256 14.1832C48.76 14.4406 48.424 14.6135 48.0602 14.6799C47.6963 14.7464 47.3209 14.7035 46.9815 14.5566C46.642 14.4097 46.3538 14.1655 46.1531 13.8548C45.9525 13.5441 45.8485 13.1809 45.8542 12.8111C45.86 12.4413 45.9753 12.0815 46.1856 11.7772C46.3958 11.4729 46.6916 11.2378 47.0355 11.1016C47.3794 10.9654 47.7559 10.9343 48.1175 11.0121C48.3576 11.0637 48.5852 11.1621 48.7873 11.3017C48.9894 11.4413 49.162 11.6193 49.2952 11.8257C49.4284 12.032 49.5197 12.2626 49.5638 12.5042C49.608 12.7458 49.604 12.9937 49.5523 13.2338Z" fill="#7D9CFF"/>
</g>
<g id="Group 68">
<path id="Path 79" d="M48.3358 13.2105C48.2754 13.4912 48.0237 13.6119 47.7192 13.5827L47.6449 13.9284L47.3664 13.8685L47.4418 13.5181C47.2418 13.4449 47.0658 13.318 46.9331 13.1514L47.1437 12.8836C47.2722 13.0608 47.4562 13.1901 47.6665 13.251C47.8176 13.2835 47.92 13.2474 47.9415 13.1474C48.0078 12.8413 47.1036 12.8336 47.2271 12.2583C47.2576 12.1373 47.3327 12.0323 47.4374 11.9643C47.542 11.8963 47.6685 11.8704 47.7915 11.8918L47.864 11.5552L48.1425 11.6151L48.0722 11.9422C48.2474 11.9979 48.4071 12.0938 48.5387 12.2223L48.3316 12.4959C48.1993 12.3678 48.0382 12.2732 47.8618 12.22C47.7389 12.1935 47.646 12.22 47.6272 12.3085C47.5617 12.6071 48.4639 12.6261 48.3358 13.2105Z" fill="white"/>
</g>
</g>
<g id="Group 72">
<g id="Group 70">
<path id="Path 80" d="M25.5618 10.4395C26.0939 10.1008 26.5137 9.61185 26.7679 9.03456C27.0222 8.45727 27.0996 7.81754 26.9902 7.19628C26.8809 6.57501 26.5898 6.00012 26.1538 5.54429C25.7177 5.08846 25.1563 4.77217 24.5405 4.63542C23.9247 4.49867 23.2822 4.54759 22.6942 4.77601C22.1062 5.00443 21.5991 5.40208 21.2371 5.91867C20.8751 6.43527 20.6744 7.04761 20.6605 7.67826C20.6465 8.30891 20.8198 8.92955 21.1585 9.46169C21.3834 9.81504 21.6757 10.1206 22.0187 10.361C22.3617 10.6014 22.7487 10.7718 23.1576 10.8626C23.5665 10.9534 23.9893 10.9628 24.4018 10.8902C24.8143 10.8176 25.2085 10.6645 25.5618 10.4395ZM22.4889 5.61249C22.9115 5.34351 23.4044 5.20587 23.9052 5.21698C24.406 5.2281 24.8922 5.38747 25.3025 5.67495C25.7127 5.96242 26.0285 6.36508 26.2098 6.83202C26.3912 7.29896 26.4301 7.80919 26.3215 8.2982C26.2129 8.78721 25.9617 9.23304 25.5997 9.5793C25.2377 9.92556 24.7812 10.1567 24.2878 10.2435C23.7945 10.3303 23.2865 10.2689 22.8281 10.0669C22.3696 9.86503 21.9814 9.53171 21.7124 9.10913C21.3517 8.54245 21.2309 7.85573 21.3766 7.2C21.5222 6.54427 21.9223 5.97324 22.4889 5.61249Z" fill="#FDC010"/>
</g>
<g id="Group 71">
<path id="Path 81" d="M21.208 8.45623C20.9426 7.61575 21.2301 6.65207 21.7446 5.97349C21.8397 5.84808 21.6577 5.68109 21.5614 5.80804C20.9948 6.55563 20.6787 7.6027 20.9722 8.52856C20.9825 8.55904 21.0043 8.5843 21.0329 8.59895C21.0616 8.6136 21.0948 8.61649 21.1255 8.60701C21.1563 8.59752 21.1821 8.5764 21.1975 8.54816C21.2129 8.51991 21.2167 8.48677 21.208 8.45579V8.45623Z" fill="white"/>
</g>
</g>
<g id="Group 80">
<g id="Group 78">
<g id="Group 77">
<g id="Group 76">
<g id="Group 74">
<g id="Group 73">
<path id="Path 82" d="M57.3911 2.65205L56.7645 2.36761L56.1312 2.08008L55.448 2.35412L56.0706 2.63657L56.5415 2.85929L57.0179 3.06676L57.6187 3.33948L57.3911 2.65205Z" fill="#7D9CFF"/>
<path id="Path 83" d="M57.0174 3.06616L56.0701 2.63596L55.4475 2.35352L55.9903 4.07031L57.6195 3.34042L57.0174 3.06616Z" fill="#5C79E5"/>
</g>
</g>
<g id="Group 75">
<path id="Path 84" d="M53.5739 9.37149C54.1485 9.63179 54.7874 9.71585 55.4098 9.61304C56.0322 9.51024 56.6101 9.22519 57.0704 8.79393C57.5308 8.36268 57.853 7.80459 57.9962 7.19025C58.1393 6.57591 58.0971 5.9329 57.8749 5.34254C57.6526 4.75218 57.2603 4.24098 56.7475 3.8736C56.2347 3.50621 55.6245 3.29913 54.9941 3.27855C54.3636 3.25797 53.7412 3.42481 53.2055 3.75798C52.6699 4.09114 52.245 4.57566 51.9847 5.15027C51.8119 5.53178 51.7158 5.94361 51.7021 6.36223C51.6885 6.78086 51.7574 7.19808 51.9049 7.59007C52.0525 7.98206 52.2759 8.34114 52.5622 8.6468C52.8486 8.95246 53.1924 9.19871 53.5739 9.37149ZM55.9352 4.15939C56.3915 4.36623 56.7761 4.70372 57.0406 5.12918C57.305 5.55464 57.4373 6.04895 57.4208 6.54962C57.4043 7.05029 57.2397 7.53481 56.9478 7.94192C56.6559 8.34903 56.2498 8.66044 55.781 8.83677C55.3121 9.0131 54.8015 9.04642 54.3136 8.93253C53.8258 8.81864 53.3827 8.56265 53.0404 8.19694C52.6981 7.83122 52.4719 7.3722 52.3904 6.87793C52.309 6.38366 52.3759 5.87633 52.5828 5.42011C52.8603 4.80843 53.3693 4.33199 53.998 4.09557C54.6266 3.85915 55.3235 3.8821 55.9352 4.15939Z" fill="#FDC010"/>
</g>
</g>
</g>
</g>
<g id="Group 79">
<path id="Path 85" d="M52.9034 4.67409C53.4615 3.99175 54.4265 3.70621 55.2756 3.76571C55.4328 3.77677 55.4731 3.53303 55.3138 3.52241C54.3782 3.45605 53.3287 3.76571 52.7136 4.51772C52.6938 4.543 52.6846 4.57503 52.6879 4.607C52.6913 4.63897 52.7071 4.66836 52.7318 4.68891C52.7565 4.70946 52.7883 4.71954 52.8203 4.71703C52.8524 4.71451 52.8822 4.69958 52.9034 4.67542V4.67409Z" fill="white"/>
</g>
</g>
<g id="Group 81">
<path id="Path 86" d="M14.1963 16.4087C13.9408 16.1426 13.7699 15.8067 13.7053 15.4436C13.6407 15.0804 13.6853 14.7062 13.8333 14.3684C13.9814 14.0305 14.2263 13.7441 14.5372 13.5455C14.848 13.3468 15.2107 13.2448 15.5795 13.2523C15.9483 13.2599 16.3066 13.3766 16.6091 13.5877C16.9115 13.7989 17.1446 14.095 17.2787 14.4386C17.4129 14.7822 17.4422 15.1579 17.3628 15.5181C17.2835 15.8784 17.0991 16.207 16.833 16.4624C16.4761 16.8048 15.9979 16.9914 15.5035 16.9814C15.0091 16.9713 14.5389 16.7653 14.1963 16.4087Z" fill="#5C79E5"/>
<path id="Path 87" d="M19.637 19.3839L19.9701 19.0638L20.3801 18.6704L20.2078 18.491L19.7978 18.8847L19.5273 18.6029L19.9376 18.2092L19.765 18.0298L19.355 18.4233L18.4944 17.5264L18.9044 17.1329L18.7324 16.9533L18.3218 17.3473L17.6085 16.6041L18.0186 16.2106L17.8465 16.0312L17.4371 16.4254L16.3549 15.2974L15.6885 15.9368L19.3043 19.7037L19.637 19.3839Z" fill="#5C79E5"/>
<path id="Path 88" d="M14.8296 15.801C14.6944 15.6602 14.6041 15.4824 14.5699 15.2902C14.5358 15.098 14.5594 14.8999 14.6378 14.7211C14.7162 14.5423 14.8458 14.3908 15.0103 14.2857C15.1748 14.1806 15.3668 14.1266 15.562 14.1306C15.7572 14.1346 15.9468 14.1963 16.1069 14.3081C16.2669 14.4198 16.3903 14.5766 16.4613 14.7584C16.5323 14.9403 16.5478 15.1391 16.5059 15.3297C16.4639 15.5204 16.3663 15.6943 16.2255 15.8295C16.0366 16.0108 15.7834 16.1097 15.5216 16.1043C15.2599 16.099 15.011 15.9899 14.8296 15.801Z" fill="white"/>
</g>
</g>
</g>
</svg>
