<svg width="25" height="24" viewBox="0 0 25 24" fill="none" xmlns="http://www.w3.org/2000/svg">
<g id="excel-document-svgrepo-com 1">
<path id="Vector" fill-rule="evenodd" clip-rule="evenodd" d="M4.16702 0.00219727C3.11627 0.00219727 2.26465 0.854572 2.26465 1.90495V22.0953C2.26465 23.1464 3.11627 23.9981 4.16702 23.9981H21.3323C22.3826 23.9981 23.235 23.1464 23.235 22.0953V7.61845L16.1468 0.00219727H4.16702Z" fill="#45B058"/>
<path id="Vector_2" d="M9.53585 20.2268C9.45485 20.2268 9.38022 20.193 9.33335 20.1255L7.93535 18.2618L6.53097 20.1255C6.48372 20.193 6.40947 20.2268 6.32847 20.2268C6.17997 20.2268 6.05847 20.112 6.05847 19.9568C6.05847 19.9028 6.0716 19.842 6.11247 19.7948L7.57122 17.8707L6.2141 16.0609C6.18035 16.0137 6.15972 15.9597 6.15972 15.9057C6.15972 15.7774 6.26772 15.6357 6.4301 15.6357C6.5111 15.6357 6.5921 15.6762 6.6461 15.7437L7.93535 17.4792L9.2246 15.7369C9.27222 15.6694 9.3461 15.6357 9.42747 15.6357C9.56922 15.6357 9.70422 15.7504 9.70422 15.9057C9.70422 15.9597 9.69072 16.0137 9.6566 16.0609L8.29947 17.8639L9.7586 19.7948C9.79235 19.842 9.80547 19.896 9.80547 19.95C9.80547 20.0985 9.68397 20.2268 9.53585 20.2268ZM13.2817 20.1795H11.2361C11.013 20.1795 10.8307 19.9973 10.8307 19.7745V15.9057C10.8307 15.7572 10.9522 15.6357 11.121 15.6357C11.2695 15.6357 11.3913 15.7572 11.3913 15.9057V19.68H13.2817C13.4163 19.68 13.5247 19.788 13.5247 19.923C13.5247 20.0715 13.4163 20.1795 13.2817 20.1795ZM15.9 20.2605C15.2317 20.2605 14.7045 20.0378 14.3201 19.6999C14.2593 19.6459 14.2323 19.5717 14.2323 19.4974C14.2323 19.3624 14.3336 19.2139 14.4956 19.2139C14.5496 19.2139 14.6103 19.2274 14.658 19.2679C14.9685 19.5447 15.4005 19.7607 15.9206 19.7607C16.7242 19.7607 16.9803 19.3287 16.9803 18.984C16.9803 17.8227 14.3137 18.4643 14.3137 16.857C14.3137 16.1145 14.9752 15.6079 15.8598 15.6079C16.4403 15.6079 16.9402 15.7834 17.3047 16.0872C17.3655 16.1412 17.3996 16.2154 17.3996 16.2897C17.3996 16.4247 17.2845 16.5597 17.136 16.5597C17.0816 16.5597 17.0208 16.5394 16.974 16.4989C16.6428 16.2289 16.2315 16.1074 15.8193 16.1074C15.2793 16.1074 14.8942 16.3977 14.8942 16.8233C14.8942 17.8362 17.5612 17.2553 17.5612 18.9368C17.5612 19.5923 17.1157 20.2605 15.9 20.2605Z" fill="white"/>
<path id="Vector_3" fill-rule="evenodd" clip-rule="evenodd" d="M23.2324 7.63195V8.00695H18.4321C18.4321 8.00695 16.0651 7.53445 16.1344 5.49182C16.1344 5.49182 16.2121 7.63195 18.3852 7.63195H23.2324Z" fill="#349C42"/>
<path id="Vector_4" opacity="0.5" fill-rule="evenodd" clip-rule="evenodd" d="M16.1434 0V5.46037C16.1434 6.08138 16.5574 7.632 18.4324 7.632H23.2328L16.1434 0Z" fill="white"/>
</g>
</svg>
