<svg width="71" height="74" viewBox="0 0 71 74" fill="none" xmlns="http://www.w3.org/2000/svg">
<g filter="url(#filter0_d_3179_4047)">
<path d="M38.1651 0H35.1542H32.1433C18.8264 0 7.93042 7.5286 7.93042 16.7302V69.6376H62.3785V16.7298C62.3785 7.5286 51.4825 0 38.1651 0Z" fill="#F2F2F2"/>
</g>
<path d="M12.5457 70.4685V16.7299C12.5457 9.47345 21.3369 3.56934 32.1432 3.56934H38.1651" stroke="#182424" stroke-width="2" stroke-miterlimit="10"/>
<path d="M38.165 3.56934C48.9719 3.56934 57.7632 9.47345 57.7632 16.7299V70.4685" stroke="#182424" stroke-width="2" stroke-miterlimit="10"/>
<path d="M27.2371 35.75V30.15H29.6211C29.9411 30.15 30.2345 30.23 30.5011 30.39C30.7731 30.5447 30.9891 30.758 31.1491 31.03C31.3091 31.2967 31.3891 31.598 31.3891 31.934C31.3891 32.238 31.3091 32.5207 31.1491 32.782C30.9891 33.0433 30.7758 33.254 30.5091 33.414C30.2425 33.5687 29.9465 33.646 29.6211 33.646H28.1011V35.75H27.2371ZM30.5651 35.75L29.1411 33.222L30.0291 33.022L31.6131 35.758L30.5651 35.75ZM28.1011 32.814H29.7011C29.8558 32.814 29.9945 32.7767 30.1171 32.702C30.2398 32.622 30.3358 32.5153 30.4051 32.382C30.4745 32.2433 30.5091 32.0913 30.5091 31.926C30.5091 31.7393 30.4638 31.5767 30.3731 31.438C30.2878 31.294 30.1651 31.182 30.0051 31.102C29.8505 31.022 29.6745 30.982 29.4771 30.982H28.1011V32.814ZM32.9276 35.838C32.7516 35.838 32.6156 35.7873 32.5196 35.686C32.4236 35.5793 32.3756 35.43 32.3756 35.238C32.3756 35.062 32.4263 34.918 32.5276 34.806C32.629 34.694 32.7623 34.638 32.9276 34.638C33.1036 34.638 33.2396 34.6913 33.3356 34.798C33.4316 34.8993 33.4796 35.046 33.4796 35.238C33.4796 35.414 33.429 35.558 33.3276 35.67C33.2263 35.782 33.093 35.838 32.9276 35.838ZM34.4119 35.75V34.95H35.3159V30.95H34.4119V30.15H37.0839V30.95H36.1799V34.95H37.0839V35.75H34.4119ZM38.5683 35.838C38.3923 35.838 38.2563 35.7873 38.1603 35.686C38.0643 35.5793 38.0163 35.43 38.0163 35.238C38.0163 35.062 38.0669 34.918 38.1683 34.806C38.2696 34.694 38.4029 34.638 38.5683 34.638C38.7443 34.638 38.8803 34.6913 38.9763 34.798C39.0723 34.8993 39.1203 35.046 39.1203 35.238C39.1203 35.414 39.0696 35.558 38.9683 35.67C38.8669 35.782 38.7336 35.838 38.5683 35.838ZM40.2606 35.75V30.15H42.5406C42.8446 30.15 43.1192 30.2273 43.3646 30.382C43.6152 30.5313 43.8152 30.7367 43.9646 30.998C44.1139 31.2593 44.1886 31.55 44.1886 31.87C44.1886 32.19 44.1139 32.4807 43.9646 32.742C43.8152 33.0033 43.6152 33.214 43.3646 33.374C43.1192 33.5287 42.8446 33.606 42.5406 33.606H41.1246V35.75H40.2606ZM41.1246 32.774H42.5246C42.6686 32.774 42.7992 32.734 42.9166 32.654C43.0339 32.5687 43.1272 32.4593 43.1966 32.326C43.2712 32.1873 43.3086 32.0353 43.3086 31.87C43.3086 31.7047 43.2712 31.5553 43.1966 31.422C43.1272 31.2887 43.0339 31.182 42.9166 31.102C42.7992 31.022 42.6686 30.982 42.5246 30.982H41.1246V32.774Z" fill="#182424"/>
<path opacity="0.2" d="M48.4275 45.3804C48.7997 45.2926 49.1544 45.1654 49.4815 45.0025C50.4684 44.5807 50.539 43.492 50.6348 42.7213C50.6458 42.1711 50.8921 41.6392 51.3353 41.2087C51.4012 41.1691 51.4441 41.111 51.4546 41.047C51.4466 41.0147 51.4293 40.9841 51.404 40.9576C51.3787 40.9312 51.346 40.9094 51.3084 40.894C50.2442 40.2968 48.997 39.9245 47.69 39.8139C46.6813 39.7272 45.4872 39.8815 44.9901 40.5655C44.964 40.5972 44.9467 40.6328 44.9391 40.6699C44.944 40.7436 44.9754 40.8148 45.0299 40.8754C45.2703 41.2503 45.0433 41.692 44.9346 42.1024C44.8398 42.472 44.8457 42.8529 44.952 43.2206C44.8786 43.2241 44.804 43.2263 44.7329 43.2319C43.4258 43.3424 42.1784 43.7145 41.1139 44.3116C41.045 44.3506 40.9705 44.3983 40.9683 44.4654C40.9789 44.5292 41.0216 44.5871 41.087 44.6267C41.5307 45.0571 41.7771 45.5893 41.7875 46.1398C41.8621 46.7375 41.9243 47.5267 42.4039 48.0468C42.265 48.0278 42.1246 48.016 41.9837 48.0117C41.9317 48.4555 41.9625 48.9027 42.075 49.3397C42.1896 49.7806 42.495 50.178 42.9408 50.4667C43.2989 50.6812 44.7161 51.089 45.2989 50.8697C45.2821 51.2451 45.2865 51.6222 45.305 51.9992C44.9994 51.9452 44.6887 51.9098 44.3759 51.8935C43.5796 51.8475 42.6948 51.8675 42.103 52.2836C42.086 52.2936 42.0735 52.3076 42.0672 52.3234C42.0671 52.3344 42.0698 52.3452 42.0752 52.3554C42.0806 52.3655 42.0885 52.3747 42.0985 52.3824C42.3728 52.6714 42.6837 52.9386 43.0265 53.1799C43.6877 53.6118 44.5312 53.8404 45.3964 53.8222C45.4423 53.8222 45.4894 53.8166 45.5359 53.814C45.5466 53.8656 45.5594 53.9176 45.5712 53.9696H43.8245C43.8245 53.9696 43.3202 54.2479 44.1131 54.9725C44.906 55.6972 42.6712 61.994 42.0229 62.7742C41.3745 63.5544 41.3745 66.3413 44.6892 67.9012L45.866 67.9363V67.9571L46.214 67.9467L46.5625 67.9571V67.9363L47.7393 67.9012C51.0545 66.3409 51.0545 63.5544 50.4056 62.7742C49.7567 61.994 47.5236 55.6964 48.3159 54.9725C49.1083 54.2487 48.604 53.9696 48.604 53.9696H47.0512C46.9971 53.1839 46.8639 52.4027 46.6527 51.633C47.272 51.8003 48.5956 51.4163 48.9396 51.2087C49.3853 50.921 49.6909 50.5244 49.806 50.0844C49.9183 49.6472 49.949 49.1998 49.8973 48.7559C48.9761 48.7947 48.1108 49.1103 47.486 49.6353C47.0472 50.0112 46.6908 50.44 46.4308 50.9048C46.3058 50.5448 46.1539 50.1907 45.9758 49.8443C46.0523 49.2745 46.1716 48.7086 46.3333 48.1496C46.3372 48.1357 46.3417 48.1222 46.3456 48.1062C46.3899 48.0802 46.4376 48.0568 46.4796 48.0278C46.5279 48.0691 46.5819 48.1063 46.6404 48.1387C46.9164 48.2762 47.2391 48.3469 47.5673 48.342C48.4319 48.36 49.2749 48.1315 49.936 47.7001C50.2791 47.4586 50.5903 47.1913 50.8651 46.9022C50.8751 46.8945 50.883 46.8853 50.8882 46.8751C50.8934 46.865 50.8959 46.8541 50.8954 46.8432C50.8898 46.8272 50.8773 46.8132 50.8601 46.8033C50.2694 46.3868 49.3835 46.3664 48.5866 46.4132C48.2176 46.4309 47.8517 46.4769 47.4944 46.5507C47.5629 46.2646 47.5714 45.9719 47.5196 45.6838C47.5628 45.6283 47.6076 45.5741 47.6524 45.52C47.9192 45.5079 48.1813 45.4607 48.4275 45.3804ZM44.4039 48.8985C44.5389 48.9284 44.6788 48.9431 44.8192 48.9419C45.0411 49.2134 45.2359 49.4977 45.402 49.7922C45.3913 49.8659 45.3801 49.9392 45.3712 50.0129C45.1158 49.6091 44.7904 49.2342 44.4039 48.8985ZM46.4908 53.9696H46.1546C46.1333 53.8829 46.1137 53.8006 46.0985 53.716C46.1775 53.69 46.2527 53.6574 46.3227 53.6189C46.3908 53.5799 46.4525 53.5347 46.5065 53.4842C46.5248 53.6454 46.5399 53.8072 46.5519 53.9696H46.4908ZM46.1277 51.5584C46.2033 51.8185 46.2599 52.0812 46.3165 52.3438C46.1835 52.2666 46.0395 52.2014 45.8873 52.1496C45.8585 51.7032 45.8553 51.2575 45.8777 50.8125C45.968 51.0492 46.052 51.2958 46.1288 51.5593L46.1277 51.5584ZM45.3067 48.8114C45.4218 48.7493 45.5285 48.6782 45.625 48.5994C45.5852 48.7642 45.5505 48.9293 45.518 49.0944C45.4513 48.9986 45.3812 48.9037 45.3078 48.8118L45.3067 48.8114Z" fill="#080C0C"/>
<path d="M43.3431 45.2726C43.3319 44.7223 43.0856 44.1903 42.6426 43.7596C42.6099 43.7401 42.5824 43.7159 42.5619 43.6882C42.5413 43.6605 42.528 43.63 42.5227 43.5983C42.5255 43.5324 42.6 43.4835 42.6695 43.4445C43.7336 42.8472 44.9809 42.475 46.2879 42.3648C47.2966 42.2807 48.4902 42.4324 48.9878 43.1164C49.0137 43.1483 49.0309 43.184 49.0382 43.2212C49.0335 43.2947 49.0025 43.3657 48.9486 43.4263C48.7071 43.8016 48.934 44.2433 49.0433 44.6533C49.1468 45.0585 49.1317 45.4765 48.9989 45.8766C48.8662 46.2766 48.6192 46.6486 48.2761 46.9652C48.1301 47.1038 47.9569 47.2238 47.7628 47.321C46.8448 47.6703 45.8091 47.7904 44.799 47.6647C43.5073 47.3552 43.4479 46.1174 43.3431 45.2726Z" fill="#68121F"/>
<path d="M45.5498 47.9318C45.8215 48.069 46.1517 48.1189 46.4702 48.0708C46.7887 48.0227 47.0705 47.8805 47.2556 47.6743L47.9919 47.0814L46.5825 47.5005C46.6931 47.1269 46.7043 46.7399 46.6156 46.3628C46.1768 46.7314 45.9164 47.2062 45.8787 47.7064C45.398 47.6762 44.9209 47.6182 44.4514 47.533C44.7892 47.7083 45.1596 47.8428 45.5498 47.9318Z" fill="#5E7171"/>
<path d="M46.415 47.7686C47.1557 48.6441 47.6695 49.6225 47.9281 50.6495C48.7658 53.5517 48.4874 56.58 47.1273 59.3614" stroke="#5E7171" stroke-width="0.889" stroke-miterlimit="10"/>
<path d="M49.0399 48.7684C49.6647 48.2444 50.5292 47.9296 51.4495 47.8911C51.5015 48.335 51.4707 48.7824 51.3582 49.2196C51.2432 49.6597 50.9376 50.0563 50.4918 50.3439C50.0861 50.5879 48.3114 51.0807 47.9466 50.6221C47.598 50.1787 48.6818 49.0596 49.0399 48.7684Z" fill="#5E7171"/>
<path d="M45.9321 51.0265C45.1352 50.9806 44.251 51.0005 43.6592 51.4166C43.642 51.4266 43.6294 51.4406 43.6233 51.4565C43.623 51.4674 43.6256 51.4783 43.6309 51.4884C43.6362 51.4985 43.6441 51.5077 43.6542 51.5154C43.9288 51.8044 44.2398 52.0715 44.5827 52.3129C45.2438 52.7447 46.0871 52.9733 46.952 52.9553C47.2803 52.9598 47.603 52.8891 47.8794 52.752C47.9965 52.6905 48.0952 52.6104 48.1691 52.517C48.2429 52.4236 48.2902 52.3191 48.3076 52.2104C48.3251 52.1018 48.3124 51.9915 48.2703 51.887C48.2282 51.7825 48.1578 51.6861 48.0638 51.6043C47.4616 51.2259 46.7079 51.0216 45.9321 51.0265Z" fill="#5E7171"/>
<path d="M52.1898 41.8542C52.2008 41.3039 52.4471 40.772 52.8903 40.3415C52.956 40.3018 52.9989 40.2438 53.0097 40.1798C53.0097 40.114 52.9323 40.0654 52.8634 40.0268C51.7991 39.4297 50.552 39.0575 49.245 38.9467C48.2364 38.8601 47.0416 39.0144 46.5451 39.6983C46.519 39.7302 46.5016 39.7659 46.4941 39.8032C46.4992 39.8766 46.5304 39.9476 46.5844 40.0082C46.8253 40.3831 46.5984 40.8248 46.4891 41.2352C46.3857 41.6405 46.4009 42.0585 46.5335 42.4586C46.6662 42.8587 46.9129 43.2308 47.2557 43.5475C47.4026 43.6856 47.5758 43.8055 47.7696 43.903C48.6874 44.2522 49.7229 44.3723 50.7328 44.2467C52.0251 43.9372 52.0845 42.7002 52.1898 41.8542Z" fill="#7F1620"/>
<path d="M49.9819 44.5133C49.7102 44.6506 49.38 44.7005 49.0615 44.6525C48.743 44.6046 48.4612 44.4624 48.2761 44.2563C48.031 44.0581 47.7857 43.8603 47.5403 43.663L48.9496 44.0825C48.8388 43.7088 48.8276 43.3215 48.9166 42.9443C49.355 43.3132 49.6154 43.7878 49.6535 44.288C50.134 44.2579 50.6109 44.2 51.0802 44.1146C50.7426 44.2902 50.3722 44.4247 49.9819 44.5133Z" fill="#98B7B9"/>
<path d="M49.1173 44.3501C48.377 45.2261 47.8631 46.2047 47.6043 47.2319C47.0823 49.0367 46.9904 50.9001 47.3331 52.7304C47.6581 54.4766 48.7665 56.0873 48.78 57.8496C48.7852 58.5344 48.7592 59.2188 48.7021 59.9027" stroke="#98B7B9" stroke-width="1.029" stroke-miterlimit="10"/>
<path d="M45.9523 48.0237C45.3266 47.4992 44.4607 47.1844 43.5393 47.1465C43.4879 47.5904 43.5186 48.0377 43.6306 48.4749C43.7457 48.9156 44.051 49.313 44.4964 49.6018C44.9032 49.8454 46.678 50.3387 47.0422 49.8792C47.3924 49.4354 46.3092 48.3167 45.9523 48.0237Z" fill="#98B7B9"/>
<path d="M50.1404 45.5469C50.9372 45.5001 51.8215 45.5205 52.4133 45.937C52.4307 45.9469 52.4435 45.9609 52.4497 45.9769C52.45 45.9879 52.4474 45.9988 52.442 46.0089C52.4366 46.019 52.4285 46.0282 52.4183 46.0358C52.1437 46.3249 51.8327 46.5922 51.4898 46.8338C50.8286 47.2653 49.9853 47.4938 49.1205 47.4757C48.7923 47.4805 48.4697 47.4097 48.1936 47.2724C48.0765 47.2109 47.9778 47.1308 47.9039 47.0374C47.8301 46.944 47.7829 46.8395 47.7654 46.7308C47.7479 46.6222 47.7607 46.5119 47.8027 46.4074C47.8448 46.3029 47.9152 46.2065 48.0093 46.1247C48.6111 45.7462 49.3647 45.5419 50.1404 45.5469Z" fill="#98B7B9"/>
<path d="M51.9611 61.9081C51.3122 61.1279 49.0785 54.8307 49.8709 54.1065C50.6632 53.3822 50.1595 53.1035 50.1595 53.1035H45.3806C45.3806 53.1035 44.8762 53.3818 45.6686 54.1065C46.461 54.8311 44.2278 61.1279 43.5795 61.9081C42.9311 62.6883 42.9306 65.4752 46.2447 67.0351L47.4215 67.0702V67.091L47.77 67.0806L48.1186 67.091C48.1186 67.091 48.1186 67.0823 48.1186 67.0702L49.2954 67.0351C52.6094 65.4752 52.6094 62.6883 51.9611 61.9081Z" fill="#182424"/>
<path d="M0 72.8438V74H71V73.7109V72.8438C71 72.2656 70.4132 72.2656 70.4132 72.2656L68.6529 71.6875L66.3058 71.1094L63.9587 69.9531L62.7851 69.375H61.0248L56.9174 69.9531L48.7025 69.375L38.1405 68.2188L31.686 69.375H21.124L7.6281 72.2656L0 72.8438Z" fill="#24B755"/>
<path d="M62.6513 68.7233C59.9004 68.0299 55.1742 68.8811 55.1983 68.9288C53.7626 65.9867 46.8089 64.1871 41.4909 65.3812C40.0513 63.5799 36.3701 62.3433 32.6531 62.4114C28.9361 62.4794 25.4287 63.849 24.2318 65.698C22.2153 65.0408 19.9685 64.938 17.8659 65.4068C13.3161 66.463 6.38369 68.9695 6.39826 71.8375C4.34672 71.5614 1.62608 71.7721 0.000976562 72.8656C3.1419 73.5474 7.05839 73.1222 10.312 73.1594C10.6336 73.1629 11.0348 73.1274 11.1452 72.8933C11.6625 73.035 12.1251 73.2755 12.4901 73.5924C12.6863 73.1301 12.8828 72.6669 13.0797 72.2029C13.8318 72.4296 14.5306 72.7504 15.148 73.1525C15.3016 72.9289 15.4549 72.7054 15.6081 72.482C16.0204 72.5879 16.3881 72.7778 16.6728 73.0316C16.8014 72.9853 16.9045 72.9052 16.9636 72.8056C17.0228 72.7059 17.0341 72.5932 16.9956 72.4876L18.4066 72.9163C18.4066 72.6308 18.4066 72.3453 18.4066 72.0598C19.0177 72.3345 19.52 72.7332 19.8591 73.2128C19.512 72.5506 19.333 71.8429 19.3318 71.1284C20.4203 71.5579 21.3019 72.2463 21.8468 73.0923C21.9329 73.0314 22.0342 72.9847 22.1445 72.9552C22.2548 72.9256 22.3717 72.9138 22.4881 72.9205C22.6044 72.9272 22.7178 72.9521 22.8213 72.9939C22.9248 73.0356 23.0161 73.0933 23.0897 73.1634C23.0607 73.0918 23.0547 73.0158 23.0722 72.942C23.0897 72.8683 23.1301 72.7989 23.19 72.7399C23.3329 72.6389 23.6422 72.7399 23.5683 72.8799C23.5769 72.5245 23.5855 72.1691 23.5941 71.8137C24.1353 72.0623 24.6064 72.3926 24.9793 72.785C24.9991 72.2475 25.0178 71.7102 25.0354 71.1731C24.9995 72.2085 27.2337 72.9787 28.2334 73.3319C28.8267 72.6861 29.4196 72.0403 30.0121 71.3945C29.9747 72.1071 29.9374 72.8196 29.9 73.5322C30.6219 73.3606 31.2721 73.0442 31.7846 72.6152C32.2971 72.1862 32.6536 71.66 32.8179 71.0898C32.828 71.8668 32.8382 72.6438 32.8487 73.4208C33.3113 73.0414 33.7019 72.6131 34.0087 72.1487C34.0692 72.6419 34.1301 73.1352 34.1914 73.6284C36.5635 72.7221 38.2435 71.7265 38.661 69.7059C39.0745 71.2749 38.8548 72.1153 37.9325 73.5495C38.9212 73.014 39.7391 72.3113 40.3242 71.4947C40.4968 72.0087 40.669 72.5226 40.8408 73.0364L41.4315 72.5873L42.1532 73.1456L43.0151 72.7065L43.7139 73.2791C44.1479 73.0838 44.5388 72.8361 44.8716 72.5453C47.5446 74.1221 50.4401 73.5972 53.0111 72.4027C53.019 72.7564 53.0272 73.1102 53.0358 73.4641C53.5413 72.9475 54.0471 72.4309 54.5533 71.9142C54.8218 72.3146 55.0127 72.7434 55.1199 73.1867C55.2604 72.9546 55.465 72.749 55.7194 72.5847C55.7138 72.6716 55.7327 72.7584 55.7748 72.8391C55.8169 72.9198 55.8812 72.9924 55.9632 73.052C56.4105 72.4048 56.6777 71.6925 56.7478 70.9607C57.1075 71.729 57.4676 72.4975 57.8282 73.2661C58.4022 72.8034 58.8872 72.2792 59.2683 71.7096C59.4054 72.1249 59.5429 72.5401 59.6808 72.9553C60.3471 71.8993 60.9289 70.8127 61.423 69.7016C61.5551 71.1099 61.7795 72.5121 62.0954 73.9028C62.4619 73.4621 62.8284 73.0213 63.1949 72.5804C63.4744 73.0537 63.7546 73.5268 64.0355 73.9999C64.0951 73.8616 64.2057 73.7398 64.3537 73.6496C64.5016 73.5593 64.6805 73.5045 64.8682 73.4919C65.1208 73.4967 65.3718 73.5249 65.6157 73.576C66.4221 73.683 67.2319 73.4563 68.0433 73.3766C68.8928 73.2929 70.5162 74.3225 70.9998 74C71.5989 73.5995 71.3265 72.6071 70.9998 72.2656C70.4793 71.7225 64.5364 69.8836 64.5746 70.3912C64.5056 69.5035 63.7306 68.9951 62.6513 68.7233Z" fill="#FF9D43"/>
<path d="M30.3603 64.1241C29.9878 63.9351 29.5337 63.8676 29.0972 63.9365C28.9671 64.1845 28.9193 64.4537 28.9582 64.7197C28.983 64.8518 29.0688 64.9725 29.1997 65.0595C29.3306 65.1465 29.4978 65.1939 29.6705 65.193C29.8725 65.1594 30.0518 65.07 30.1748 64.9416C30.3523 64.7809 30.4896 64.596 30.5794 64.3963L30.3603 64.1241Z" fill="#3B4B4B"/>
<path d="M26.952 65.9252C26.9023 65.9261 26.8548 65.9416 26.8192 65.9685C26.8 65.9903 26.788 66.0155 26.7845 66.0418C26.699 66.3902 26.644 66.7426 26.6197 67.0967C26.6146 67.1198 26.6204 67.1435 26.636 67.1635C26.6531 67.1775 26.6754 67.1872 26.6999 67.1912C27.2285 67.3045 27.7737 67.3652 28.3222 67.372C28.5188 67.3806 28.7559 67.3741 28.8579 67.2441C28.8879 67.1873 28.9018 67.1262 28.8987 67.0649C28.8956 67.0036 28.8756 66.9435 28.84 66.8887C28.7366 66.5752 28.4859 66.3028 28.1368 66.1246C27.7877 65.9465 27.3653 65.8754 26.952 65.9252Z" fill="#C7E4E5"/>
<path d="M31.0961 65.9118C31.1715 65.937 31.2317 65.9835 31.2642 66.0418L31.5388 66.4098C31.5535 66.4238 31.5635 66.4405 31.5678 66.4583C31.5721 66.4761 31.5706 66.4944 31.5635 66.5116C31.5473 66.5295 31.5244 66.5431 31.4979 66.5506L31.1617 66.6755C31.1211 66.6928 31.0766 66.7041 31.0306 66.7088C30.9058 66.6945 30.7913 66.6473 30.7065 66.575C30.6217 66.5028 30.5718 66.4101 30.5654 66.3127C30.5794 66.1744 30.891 65.8663 31.0961 65.9118Z" fill="#2A3738"/>
<defs>
<filter id="filter0_d_3179_4047" x="3.93042" y="0" width="62.448" height="77.6377" filterUnits="userSpaceOnUse" color-interpolation-filters="sRGB">
<feFlood flood-opacity="0" result="BackgroundImageFix"/>
<feColorMatrix in="SourceAlpha" type="matrix" values="0 0 0 0 0 0 0 0 0 0 0 0 0 0 0 0 0 0 127 0" result="hardAlpha"/>
<feOffset dy="4"/>
<feGaussianBlur stdDeviation="2"/>
<feComposite in2="hardAlpha" operator="out"/>
<feColorMatrix type="matrix" values="0 0 0 0 0 0 0 0 0 0 0 0 0 0 0 0 0 0 0.25 0"/>
<feBlend mode="normal" in2="BackgroundImageFix" result="effect1_dropShadow_3179_4047"/>
<feBlend mode="normal" in="SourceGraphic" in2="effect1_dropShadow_3179_4047" result="shape"/>
</filter>
</defs>
</svg>
