<svg width="72" height="75" viewBox="0 0 72 75" fill="none" xmlns="http://www.w3.org/2000/svg">
<g id="Group 73 1" clip-path="url(#clip0_2756_2220)">
<g id="Group 73">
<path id="Path 143" opacity="0.5" fill-rule="evenodd" clip-rule="evenodd" d="M25.8329 2.95931C29.0803 3.19855 31.7211 6.84996 32.1605 8.17162C34.4242 14.9762 21.7644 28.9976 11.4329 26.6574C2.78389 24.6993 2.78389 15.227 0.0012207 12.8961C10.8332 11.5245 11.1896 0.102298 25.8329 2.95931Z" fill="white"/>
<path id="Rectangle 11" d="M36.8237 15.1445L36.3396 21.1978L40.5996 21.5433L41.0837 15.49L36.8237 15.1445Z" fill="#C79369"/>
<path id="Rectangle 12" d="M25.1268 18.1934L24.9875 24.2646L29.2602 24.364L29.3994 18.2928L25.1268 18.1934Z" fill="#C79369"/>
<path id="Path 144" fill-rule="evenodd" clip-rule="evenodd" d="M48.4551 61.1947C48.6661 57.3249 48.9452 53.3901 49.1551 49.5204C49.2831 47.1744 44.5319 47.0176 44.6968 49.5959C44.9275 53.166 44.9367 57.6362 45.165 61.2098L48.4551 61.1947Z" fill="#323232"/>
<path id="Path 145" fill-rule="evenodd" clip-rule="evenodd" d="M58.2862 30.2275C59.6251 30.2275 60.7079 31.7908 60.7079 33.7198C60.7079 35.6489 59.6228 37.2121 58.2862 37.2121C56.9497 37.2121 55.8645 35.6489 55.8645 33.7198C55.8645 31.7908 56.952 30.2275 58.2862 30.2275Z" fill="#F8BB13"/>
<path id="Path 146" fill-rule="evenodd" clip-rule="evenodd" d="M52.5053 65.4477C56.7559 65.4477 58.0118 63.9495 58.932 62.2074C62.3236 55.7849 52.1282 41.6741 52.4464 38.3107C52.5975 36.7266 54.1763 36.7533 55.8253 36.9635C56.6373 37.1279 57.4627 37.2149 58.2909 37.2237V30.3599C54.114 30.8546 50.3569 32.779 50.3569 36.701C50.5748 38.9169 51.1927 41.0742 52.1801 43.0666C50.0282 43.7449 48.4229 44.9109 48.5867 46.6495C48.9326 50.374 57.9922 57.6443 56.8424 61.1029C56.2462 62.2004 55.8461 62.6754 53.67 62.6754C50.0928 62.6754 49.334 65.0946 52.5053 65.4477Z" fill="#A351C1"/>
<path id="Path 147" fill-rule="evenodd" clip-rule="evenodd" d="M59.1534 61.7309C59.9607 59.7566 59.6516 57.1539 58.8374 54.3979C57.5397 55.0316 56.451 56.0288 55.7019 57.27C56.5089 58.2834 56.9355 59.5507 56.907 60.8494L59.1534 61.7309Z" fill="#6A327E"/>
<path id="Path 148" fill-rule="evenodd" clip-rule="evenodd" d="M47.3814 62.6756C42.8989 62.6756 40.6491 57.015 44.3416 51.7667C48.0341 46.5184 30.2161 51.7667 30.2161 51.7667V62.6756C30.2161 62.6756 48.9013 65.4199 47.3814 62.6756Z" fill="#A351C1"/>
<path id="Ellipse 3" d="M35.9119 67.2699C36.9275 62.9986 34.3126 58.7068 30.0714 57.684C25.8302 56.6611 21.5687 59.2946 20.5531 63.5659C19.5374 67.8372 22.1523 72.129 26.3935 73.1518C30.6347 74.1746 34.8962 71.5412 35.9119 67.2699Z" fill="#3D515C"/>
<path id="Path 149" fill-rule="evenodd" clip-rule="evenodd" d="M28.2269 61.3887C29.0185 61.3887 29.7924 61.6251 30.4507 62.068C31.1089 62.511 31.622 63.1406 31.9249 63.8772C32.2279 64.6138 32.3072 65.4243 32.1527 66.2063C31.9983 66.9883 31.617 67.7065 31.0573 68.2703C30.4975 68.8341 29.7842 69.218 29.0078 69.3736C28.2313 69.5291 27.4265 69.4493 26.6951 69.1442C25.9637 68.8391 25.3385 68.3224 24.8987 67.6594C24.4589 66.9965 24.2241 66.2171 24.2241 65.4199C24.224 64.8904 24.3274 64.3662 24.5285 63.877C24.7296 63.3878 25.0244 62.9434 25.3962 62.569C25.7679 62.1947 26.2092 61.8977 26.6949 61.6952C27.1806 61.4927 27.7012 61.3885 28.2269 61.3887Z" fill="#0C1317"/>
<path id="Path 150" opacity="0.2" fill-rule="evenodd" clip-rule="evenodd" d="M34.883 61.147C35.6926 62.4227 36.1216 63.9057 36.1192 65.4197C36.1191 65.7888 36.0936 66.1575 36.0431 66.523H20.4104C20.3598 66.1575 20.3344 65.7888 20.3342 65.4197C20.3319 63.9057 20.7609 62.4227 21.5705 61.147H34.883Z" fill="black"/>
<path id="Ellipse 4" d="M71.9332 65.4865C71.97 61.0969 68.4663 57.5083 64.1076 57.4713C59.7488 57.4343 56.1856 60.9628 56.1488 65.3525C56.1121 69.7422 59.6157 73.3308 63.9745 73.3678C68.3332 73.4048 71.8965 69.8762 71.9332 65.4865Z" fill="#3D515C"/>
<path id="Path 151" fill-rule="evenodd" clip-rule="evenodd" d="M64.0406 61.3887C64.8323 61.3887 65.6062 61.6251 66.2644 62.068C66.9227 62.511 67.4357 63.1406 67.7387 63.8772C68.0416 64.6138 68.1209 65.4243 67.9664 66.2063C67.812 66.9883 67.4308 67.7065 66.871 68.2703C66.3112 68.8341 65.5979 69.218 64.8215 69.3736C64.045 69.5291 63.2402 69.4493 62.5088 69.1442C61.7774 68.8391 61.1522 68.3224 60.7124 67.6594C60.2726 66.9965 60.0378 66.2171 60.0378 65.4199C60.0378 64.3507 60.4596 63.3254 61.2102 62.5694C61.9609 61.8134 62.979 61.3887 64.0406 61.3887Z" fill="#0C1317"/>
<path id="Path 152" opacity="0.2" fill-rule="evenodd" clip-rule="evenodd" d="M64.0406 57.4712C65.5418 57.4715 67.0118 57.9029 68.2782 58.7148C69.5446 59.5267 70.5548 60.6855 71.1904 62.0552L56.4145 67.4835C56.1011 66.3055 56.061 65.0708 56.2971 63.8747C56.5332 62.6786 57.0393 61.5532 57.7762 60.5855C58.5132 59.6178 59.4612 58.8337 60.547 58.2939C61.6328 57.7541 62.8274 57.473 64.0383 57.4724L64.0406 57.4712Z" fill="black"/>
<path id="Rectangle 13" d="M52.7842 62.6753H25.2239V65.4196H52.7842V62.6753Z" fill="#A351C1"/>
<path id="Path 153" fill-rule="evenodd" clip-rule="evenodd" d="M17.3556 56.4678C16.0167 56.4678 14.9338 58.0321 14.9338 59.96C14.9338 61.8879 16.019 63.4524 17.3556 63.4524C18.6921 63.4524 19.7773 61.8891 19.7773 59.96C19.7773 58.031 18.6944 56.4678 17.3556 56.4678Z" fill="#CC271E"/>
<path id="Path 154" fill-rule="evenodd" clip-rule="evenodd" d="M16.3074 59.7056C16.2887 59.8449 16.2205 59.9726 16.1154 60.0651C16.0104 60.1576 15.8756 60.2085 15.736 60.2085C15.5964 60.2085 15.4616 60.1576 15.3565 60.0651C15.2515 59.9726 15.1833 59.8449 15.1646 59.7056C15.1385 59.1072 15.2506 58.5109 15.4921 57.9635C15.7152 57.5238 16.0513 57.1525 16.4654 56.8881C16.5898 56.8055 16.7413 56.7754 16.8876 56.804C17.0338 56.8327 17.163 56.9179 17.2476 57.0413C17.3322 57.1648 17.3655 57.3168 17.3402 57.4646C17.3149 57.6124 17.2331 57.7444 17.1123 57.8322C16.8603 57.9887 16.6538 58.2095 16.5138 58.4722C16.3541 58.8626 16.2836 59.2841 16.3074 59.7056Z" fill="#E93D33"/>
<path id="Rectangle 14" d="M25.894 56.4678H17.3557V63.6881H25.894V56.4678Z" fill="#E93D33"/>
<path id="Rectangle 15" d="M17.7443 56.4678H17.3557V63.6881H17.7443V56.4678Z" fill="#FA8A84"/>
<path id="Path 155" fill-rule="evenodd" clip-rule="evenodd" d="M28.2269 53.499C34.2882 53.499 39.2008 58.8414 39.2008 65.4195H17.252C17.252 58.8368 22.1657 53.499 28.2269 53.499Z" fill="#6A327E"/>
<path id="Path 156" fill-rule="evenodd" clip-rule="evenodd" d="M28.2267 54.8276C33.6168 54.8276 37.9874 59.5696 37.9874 65.4195H18.4661C18.4661 59.5696 22.8367 54.8276 28.2267 54.8276Z" fill="#A351C1"/>
<path id="Rectangle 16" d="M42.326 48.4692H26.7013C25.3224 48.4692 24.2046 49.595 24.2046 50.9836V50.9848C24.2046 52.3735 25.3224 53.4992 26.7013 53.4992H42.326C43.7048 53.4992 44.8226 52.3735 44.8226 50.9848V50.9836C44.8226 49.595 43.7048 48.4692 42.326 48.4692Z" fill="#3D515C"/>
<path id="Rectangle 17" d="M31.4027 62.9297H25.0509C24.7821 62.9297 24.5642 63.1489 24.5642 63.4192C24.5642 63.6896 24.7821 63.9087 25.0509 63.9087H31.4027C31.6715 63.9087 31.8893 63.6896 31.8893 63.4192C31.8893 63.1489 31.6715 62.9297 31.4027 62.9297Z" fill="#44494C"/>
<path id="Rectangle 18" d="M31.4027 61.1934H25.0509C24.7821 61.1934 24.5642 61.4125 24.5642 61.6829C24.5642 61.9532 24.7821 62.1724 25.0509 62.1724H31.4027C31.6715 62.1724 31.8893 61.9532 31.8893 61.6829C31.8893 61.4125 31.6715 61.1934 31.4027 61.1934Z" fill="#44494C"/>
<path id="Rectangle 19" d="M31.4027 59.4585H25.0509C24.7821 59.4585 24.5642 59.6777 24.5642 59.948C24.5642 60.2184 24.7821 60.4375 25.0509 60.4375H31.4027C31.6715 60.4375 31.8893 60.2184 31.8893 59.948C31.8893 59.6777 31.6715 59.4585 31.4027 59.4585Z" fill="#44494C"/>
<path id="Path 157" fill-rule="evenodd" clip-rule="evenodd" d="M21.0656 61.8393C21.0113 61.9776 20.9059 62.0894 20.7715 62.1511C20.6371 62.2128 20.4842 62.2196 20.3449 62.1701C20.2056 62.1206 20.0907 62.0187 20.0245 61.8858C19.9583 61.7528 19.9458 61.5992 19.9896 61.4572C20.4549 60.1398 21.2247 58.9529 22.2356 57.9945C23.2464 57.036 24.4692 56.3336 25.8029 55.9452C25.9475 55.9048 26.1021 55.9235 26.233 55.9973C26.364 56.0712 26.4606 56.1942 26.5018 56.3395C26.5431 56.4848 26.5256 56.6407 26.4532 56.773C26.3808 56.9054 26.2594 57.0036 26.1154 57.0462C24.9571 57.3853 23.8953 57.9965 23.0174 58.8296C22.1394 59.6627 21.4705 60.6938 21.0656 61.8381V61.8393Z" fill="#FA8A84"/>
<path id="Path 158" fill-rule="evenodd" clip-rule="evenodd" d="M26.189 50.9849C26.2 51.067 26.1935 51.1505 26.1698 51.2298C26.1461 51.3091 26.1059 51.3825 26.0518 51.4448C25.9976 51.5072 25.9309 51.5572 25.856 51.5914C25.7811 51.6257 25.6999 51.6434 25.6176 51.6434C25.5354 51.6434 25.4541 51.6257 25.3792 51.5914C25.3043 51.5572 25.2376 51.5072 25.1835 51.4448C25.1293 51.3825 25.0891 51.3091 25.0654 51.2298C25.0417 51.1505 25.0352 51.067 25.0462 50.9849C25.0466 50.7213 25.0986 50.4603 25.1994 50.217C25.3001 49.9736 25.4475 49.7527 25.6332 49.5669C25.818 49.38 26.0376 49.2317 26.2794 49.1305C26.5212 49.0292 26.7805 48.977 27.0424 48.9769C27.1239 48.9658 27.2068 48.9724 27.2856 48.9963C27.3643 49.0201 27.4371 49.0606 27.499 49.1151C27.5609 49.1696 27.6106 49.2369 27.6446 49.3123C27.6786 49.3877 27.6962 49.4695 27.6962 49.5524C27.6962 49.6352 27.6786 49.7171 27.6446 49.7925C27.6106 49.8679 27.5609 49.9351 27.499 49.9896C27.4371 50.0441 27.3643 50.0846 27.2856 50.1085C27.2068 50.1323 27.1239 50.1389 27.0424 50.1278C26.9305 50.1279 26.8198 50.1502 26.7165 50.1935C26.6132 50.2367 26.5194 50.3 26.4404 50.3798C26.361 50.4591 26.2979 50.5533 26.2548 50.6571C26.2117 50.761 26.1893 50.8724 26.189 50.9849Z" fill="#B3BFC7"/>
<path id="Path 159" fill-rule="evenodd" clip-rule="evenodd" d="M60.6503 54.6852C61.6009 54.3462 62.6086 54.1991 63.6157 54.2523C64.6228 54.3055 65.6097 54.558 66.5199 54.9953C67.4301 55.4326 68.2459 56.0462 68.9207 56.801C69.5954 57.5559 70.1159 58.4372 70.4525 59.3947L56.1678 64.8799C55.4499 62.9273 55.5167 60.7698 56.3538 58.866C57.1908 56.9622 58.7322 55.4623 60.6503 54.6852Z" fill="#A351C1"/>
<path id="Rectangle 20" d="M36.269 19.5407L35.9751 21.7134L40.6234 22.3511L40.9173 20.1785L36.269 19.5407Z" fill="white"/>
<path id="Path 160" fill-rule="evenodd" clip-rule="evenodd" d="M47.9937 47.1989C44.0728 44.9051 41.4332 44.6299 38.3576 42.7926C36.4767 41.385 33.2051 40.3664 31.8605 42.306C30.1733 44.7449 31.8501 48.747 34.7977 48.4613C38.4695 48.4555 41.7803 49.5449 45.7773 51.0941C49.358 52.4832 50.7845 48.8318 47.9937 47.1989Z" fill="#323232"/>
<path id="Path 161" fill-rule="evenodd" clip-rule="evenodd" d="M41.3261 42.3731L31.8699 41.0747L31.4858 42.984L41.0574 44.2987L41.3261 42.3731Z" fill="#1A1A1A"/>
<path id="Path 162" fill-rule="evenodd" clip-rule="evenodd" d="M30.9842 24.5818C32.0292 26.5632 33.2735 28.4312 34.6975 30.1565C36.2981 32.031 33.7553 33.1111 32.7509 32.1669C31.1994 30.8354 29.7564 29.381 28.4356 27.8175C26.1338 24.5482 28.8992 20.7493 30.9842 24.5818Z" fill="#E7B791"/>
<path id="Path 163" fill-rule="evenodd" clip-rule="evenodd" d="M35.1644 30.4005C37.0522 31.4899 39.2629 33.4201 42.1505 34.2772L41.7042 35.686C39.4543 35.758 35.6753 34.0147 33.6479 32.7117C31.6206 31.4086 33.2778 29.3123 35.1644 30.4005Z" fill="#E7B791"/>
<path id="Path 164" fill-rule="evenodd" clip-rule="evenodd" d="M31.6125 42.3489L36.0443 20.9434L39.8821 21.6878L42.4053 33.0311L41.1645 43.6148L31.6125 42.3489Z" fill="#323232"/>
<path id="Path 165" fill-rule="evenodd" clip-rule="evenodd" d="M41.9961 37.1213C42.4574 37.1213 42.8426 36.3838 42.8426 35.4791C42.8426 34.5744 42.462 33.8369 41.9961 33.8369C41.5302 33.8369 41.1497 34.5744 41.1497 35.4791C41.1497 36.3838 41.5302 37.1213 41.9961 37.1213Z" fill="#E7B791"/>
<path id="Path 166" fill-rule="evenodd" clip-rule="evenodd" d="M39.7439 21.429L42.4055 33.0312L42.9717 31.0406L40.2132 21.0283L39.7439 21.429Z" fill="white"/>
<g id="Group 40">
<g id="Group 38">
<path id="Path 167" fill-rule="evenodd" clip-rule="evenodd" d="M42.2473 20.187C41.4401 20.3833 41.3721 20.6968 40.8151 21.1951L40.8047 22.3251C41.4701 22.9186 41.5058 23.2078 42.2185 23.332C42.6314 22.3268 42.6418 21.1997 42.2473 20.187Z" fill="#A351C1"/>
<path id="Path 168" fill-rule="evenodd" clip-rule="evenodd" d="M42.1344 21.2986C41.5432 21.2611 40.9554 21.4131 40.4553 21.7329C41.0238 22.0082 41.0838 22.2985 42.0779 22.4297C41.1611 22.086 41.3548 21.5366 42.1344 21.2986Z" fill="#6A327E"/>
</g>
<path id="Path 169" fill-rule="evenodd" clip-rule="evenodd" d="M40.829 21.1949L40.1083 21.188L40.0979 22.318L40.8186 22.325C40.9568 21.9618 40.9605 21.5606 40.829 21.1949Z" fill="#6A327E"/>
<g id="Group 39">
<path id="Path 170" fill-rule="evenodd" clip-rule="evenodd" d="M37.9425 20.064C38.7498 20.2753 38.8513 20.6737 39.399 21.1812C39.399 21.5583 39.3956 21.935 39.3887 22.3112C38.7117 22.8919 38.6275 23.0975 37.9126 23.209C37.5184 22.1962 37.5291 21.069 37.9425 20.064Z" fill="#A351C1"/>
<path id="Path 171" fill-rule="evenodd" clip-rule="evenodd" d="M38.1028 21.1626C39.4024 21.2485 39.211 21.5041 39.7484 21.7259C39.2671 22.0507 38.7113 22.2462 38.1339 22.2938C39.0611 21.9674 38.8777 21.4158 38.1028 21.1626Z" fill="#6A327E"/>
</g>
<path id="Path 172" fill-rule="evenodd" clip-rule="evenodd" d="M39.3875 21.1812L40.1082 21.1881L40.0979 22.3181L39.3771 22.3112C39.2455 21.9455 39.2492 21.5443 39.3875 21.1812Z" fill="#6A327E"/>
<path id="Rectangle 21" d="M39.3873 21.181L39.3772 22.311L40.8175 22.3241L40.8276 21.1941L39.3873 21.181Z" fill="#A351C1"/>
</g>
<path id="Path 173" fill-rule="evenodd" clip-rule="evenodd" d="M40.4 24.5425C41.3226 26.6435 41.9545 28.6678 42.9555 31.4122C43.9565 34.1565 41.2488 34.9242 40.3239 33.6989C38.6183 31.4412 37.148 27.8339 36.1874 26.4054C33.9236 23.042 38.2793 19.7251 40.4 24.5425Z" fill="#1A1A1A"/>
<path id="Path 174" fill-rule="evenodd" clip-rule="evenodd" d="M42.5981 30.9717C46.0577 31.5721 49.3351 32.4676 53.0242 32.3178L53.0576 34.1005C49.5675 34.902 45.9723 35.1349 42.409 34.7903C38.1952 34.2433 40.6642 30.6361 42.5981 30.9717Z" fill="#1A1A1A"/>
<path id="Path 175" fill-rule="evenodd" clip-rule="evenodd" d="M53.9259 31.1808C56.0628 31.1657 56.1723 32.7498 56.117 33.2503C55.9551 33.789 55.5934 34.2442 55.107 34.5213C54.6205 34.7984 54.0468 34.876 53.505 34.7381C52.1799 34.5767 51.1986 33.651 51.3139 32.6685C51.4292 31.6859 52.5916 31.1866 53.9259 31.1808Z" fill="#E7B791"/>
<path id="Path 176" fill-rule="evenodd" clip-rule="evenodd" d="M47.9672 59.5011C46.1636 59.5139 44.7071 60.263 44.7129 61.1759C44.7187 62.0887 46.1856 62.8181 47.9903 62.8018C49.7951 62.7856 51.2504 62.0399 51.2446 61.1271C51.2389 60.2142 49.7708 59.4884 47.9672 59.5011Z" fill="#1A1A1A"/>
<path id="Path 177" fill-rule="evenodd" clip-rule="evenodd" d="M26.1361 25.4135C23.4653 25.7097 21.2811 27.288 17.6151 29.1148C14.9512 30.4435 14.9997 27.7584 16.0249 26.9837C18.1204 25.2692 20.4031 23.8006 22.8287 22.6064C24.4997 21.9479 25.8213 23.8155 26.1361 25.4135Z" fill="#E7B791"/>
<path id="Path 178" fill-rule="evenodd" clip-rule="evenodd" d="M21.7598 35.2247L21.3516 23.5806C22.3371 22.7289 23.5583 22.202 24.8504 22.0708C26.3313 22.5984 27.8822 22.9002 29.4516 22.9663C30.1146 23.9381 30.6568 24.988 31.0661 26.0927L26.1673 36.5742L21.7598 35.2247Z" fill="#E7B791"/>
<path id="Path 179" fill-rule="evenodd" clip-rule="evenodd" d="M25.8742 34.916C31.6252 36.2086 36.102 48.0571 29.1136 48.3881C30.7869 53.1149 33.5315 54.8199 33.6768 61.5965C22.914 65.8426 12.8431 65.6475 5.69556 58.1867C6.0519 43.6194 16.501 32.8034 25.8742 34.916Z" fill="white"/>
<path id="Path 180" fill-rule="evenodd" clip-rule="evenodd" d="M20.7126 34.7544L21.0263 26.6909C21.0236 26.59 21.0317 26.4892 21.0505 26.3901C21.2579 25.8391 21.6683 25.3897 22.1962 25.1356C22.7241 24.8814 23.329 24.842 23.8851 25.0255C24.2827 25.0873 24.6625 25.2342 24.9989 25.4564C25.3352 25.6786 25.6204 25.9709 25.8352 26.3135C26.1604 26.0752 26.5327 25.9099 26.9268 25.8288C27.3208 25.7476 27.7276 25.7525 28.1197 25.8431C29.4908 26.1079 30.4457 27.1485 30.2519 28.1659C30.2336 28.2619 30.2054 28.3557 30.1677 28.4458L27.5234 36.0691L20.7126 34.7544Z" fill="white"/>
<path id="Path 181" fill-rule="evenodd" clip-rule="evenodd" d="M28.8356 66.0075C27.7666 67.4453 26.3182 68.1723 25.6067 67.6334C24.8951 67.0945 25.1753 65.4883 26.2444 64.0517C27.3134 62.615 28.7618 61.888 29.4733 62.4257C30.1849 62.9635 29.9046 64.5697 28.8356 66.0075Z" fill="white"/>
<g id="Group 41">
<path id="Path 182" fill-rule="evenodd" clip-rule="evenodd" d="M20.2467 33.4166C20.0588 33.6593 20.1879 34.0762 20.535 34.3457C20.5529 34.3354 20.5731 34.3302 20.5936 34.3304C20.6142 34.3307 20.6343 34.3365 20.6519 34.3472C20.6694 34.3579 20.6839 34.3731 20.6936 34.3913C20.7034 34.4095 20.7082 34.43 20.7074 34.4507C20.7067 34.4713 20.7005 34.4914 20.6895 34.5089C20.6785 34.5263 20.663 34.5405 20.6447 34.5499C20.6265 34.5594 20.606 34.5637 20.5855 34.5625C20.565 34.5613 20.5452 34.5546 20.5281 34.5431C20.1626 34.7917 20.0057 35.1982 20.1764 35.4537C20.3471 35.7092 20.7807 35.7138 21.1462 35.4664C21.1982 35.4319 21.2472 35.393 21.2927 35.3503C21.3002 35.4131 21.3125 35.4752 21.3296 35.5361C21.4507 35.9623 21.7909 36.2388 22.0803 36.154C22.3698 36.0692 22.5128 35.6546 22.3917 35.2248C22.3747 35.1639 22.3527 35.1045 22.326 35.0472C22.3875 35.0597 22.45 35.0671 22.5128 35.0692C22.9521 35.0843 23.32 34.8486 23.3292 34.5408C23.3385 34.233 22.9914 33.9717 22.552 33.9601C22.4892 33.9579 22.4263 33.961 22.364 33.9694C22.395 33.9144 22.4212 33.8569 22.4424 33.7975C22.5935 33.3806 22.4828 32.9578 22.1956 32.8521C21.9085 32.7464 21.5545 32.9997 21.4034 33.4166C21.3818 33.4763 21.3652 33.5376 21.3538 33.6001C21.3113 33.5534 21.265 33.5103 21.2154 33.4712C20.8683 33.1994 20.4359 33.175 20.2467 33.4166Z" fill="#A351C1"/>
<path id="Path 183" fill-rule="evenodd" clip-rule="evenodd" d="M21.8473 34.2157C21.7927 34.1623 21.7236 34.1263 21.6487 34.1124C21.5738 34.0985 21.4966 34.1072 21.4266 34.1375C21.3567 34.1678 21.2972 34.2183 21.2557 34.2826C21.2143 34.3469 21.1927 34.4221 21.1936 34.4988C21.1946 34.5754 21.2181 34.6501 21.2612 34.7133C21.3043 34.7766 21.365 34.8255 21.4356 34.854C21.5063 34.8825 21.5838 34.8892 21.6583 34.8734C21.7328 34.8576 21.8009 34.8199 21.8542 34.765C21.8896 34.7286 21.9175 34.6854 21.9364 34.638C21.9552 34.5906 21.9646 34.54 21.9639 34.4889C21.9633 34.4379 21.9526 34.3875 21.9326 34.3406C21.9126 34.2937 21.8836 34.2513 21.8473 34.2157Z" fill="white"/>
</g>
<g id="Group 42">
<path id="Path 184" fill-rule="evenodd" clip-rule="evenodd" d="M22.7654 35.2063C22.5497 35.4235 22.627 35.8532 22.9372 36.1679C22.9562 36.16 22.9769 36.1573 22.9972 36.1602C23.0176 36.163 23.0368 36.1712 23.0529 36.184C23.069 36.1969 23.0815 36.2138 23.0889 36.233C23.0964 36.2523 23.0986 36.2732 23.0953 36.2936C23.0921 36.314 23.0835 36.3332 23.0704 36.3492C23.0573 36.3651 23.0403 36.3772 23.021 36.3843C23.0017 36.3914 22.9808 36.3932 22.9606 36.3894C22.9404 36.3857 22.9216 36.3766 22.9061 36.3631C22.514 36.564 22.3076 36.9438 22.4448 37.2225C22.582 37.5012 23.0133 37.5558 23.4054 37.3549C23.4614 37.326 23.515 37.2926 23.5657 37.255C23.5651 37.3184 23.5697 37.3817 23.5795 37.4443C23.6476 37.8822 23.9474 38.1981 24.2495 38.1504C24.5517 38.1028 24.7397 37.7091 24.6716 37.2713C24.6617 37.2086 24.6466 37.1468 24.6266 37.0866C24.6864 37.1069 24.7477 37.1221 24.81 37.1319C25.2448 37.2016 25.6357 37.0158 25.6841 36.7092C25.7326 36.4026 25.4189 36.1029 24.9841 36.0332C24.922 36.0229 24.8591 36.0179 24.7962 36.0181C24.8337 35.9672 24.8669 35.9132 24.8953 35.8567C25.096 35.4618 25.0383 35.0286 24.7662 34.8893C24.494 34.7499 24.1123 34.9555 23.9117 35.3538C23.8831 35.4102 23.8591 35.4689 23.8402 35.5292C23.8035 35.4775 23.7626 35.4289 23.7179 35.384C23.4089 35.0681 22.981 34.988 22.7654 35.2063Z" fill="#A351C1"/>
<path id="Path 185" fill-rule="evenodd" clip-rule="evenodd" d="M24.2564 36.1995C24.2089 36.1395 24.1447 36.0951 24.0721 36.0719C23.9994 36.0487 23.9216 36.0477 23.8484 36.069C23.7752 36.0903 23.7099 36.1331 23.6608 36.1918C23.6117 36.2505 23.5811 36.3226 23.5727 36.3989C23.5643 36.4752 23.5785 36.5522 23.6136 36.6204C23.6488 36.6885 23.7032 36.7446 23.7699 36.7815C23.8367 36.8185 23.9129 36.8347 23.9888 36.828C24.0648 36.8214 24.137 36.7922 24.1965 36.7442C24.2761 36.6799 24.3271 36.5865 24.3383 36.4844C24.3495 36.3822 24.3201 36.2798 24.2564 36.1995Z" fill="white"/>
</g>
<g id="Group 43">
<path id="Path 186" fill-rule="evenodd" clip-rule="evenodd" d="M26.6631 34.3897C26.3863 34.5186 26.3114 34.9495 26.4959 35.3525C26.5223 35.41 26.5536 35.4652 26.5893 35.5174C26.5265 35.5146 26.4637 35.517 26.4013 35.5244C25.9643 35.5766 25.639 35.867 25.676 36.1724C25.7129 36.4779 26.0957 36.6823 26.5328 36.63C26.5952 36.6222 26.6569 36.6094 26.7173 36.5917C26.6948 36.6508 26.6775 36.7119 26.6654 36.774C26.5801 37.2095 26.753 37.6102 27.0529 37.6694C27.3527 37.7287 27.6641 37.4244 27.7448 36.99C27.7566 36.928 27.7636 36.865 27.7656 36.8019C27.8148 36.8415 27.8673 36.8768 27.9224 36.9076C28.3064 37.1247 28.7389 37.0818 28.8876 36.8135C29.0364 36.5452 28.8449 36.1527 28.4609 35.9367C28.406 35.9055 28.3485 35.8791 28.2891 35.8577C28.3415 35.8233 28.3909 35.7845 28.4367 35.7415C28.7596 35.4407 28.8542 35.0134 28.6466 34.7881C28.439 34.5628 28.0089 34.6243 27.686 34.9251C27.64 34.968 27.5976 35.0146 27.5591 35.0644C27.5425 35.0035 27.5209 34.9441 27.4945 34.8868C27.3135 34.4826 26.9399 34.2608 26.6631 34.3897Z" fill="#A351C1"/>
<path id="Path 187" fill-rule="evenodd" clip-rule="evenodd" d="M27.7228 35.8393C27.6986 35.7666 27.6535 35.7027 27.5933 35.6558C27.533 35.6089 27.4603 35.581 27.3844 35.5756C27.3084 35.5703 27.2326 35.5878 27.1665 35.6258C27.1003 35.6639 27.0469 35.7208 27.0129 35.7895C26.9789 35.8581 26.9659 35.9353 26.9755 36.0114C26.9851 36.0875 27.0168 36.159 27.0667 36.2169C27.1167 36.2748 27.1825 36.3165 27.256 36.3368C27.3294 36.357 27.4072 36.3548 27.4795 36.3306C27.5275 36.3144 27.5719 36.2889 27.6101 36.2555C27.6483 36.2221 27.6797 36.1814 27.7023 36.1357C27.7248 36.0901 27.7383 36.0404 27.7418 35.9896C27.7453 35.9387 27.7389 35.8877 27.7228 35.8393Z" fill="white"/>
</g>
<path id="Path 188" fill-rule="evenodd" clip-rule="evenodd" d="M54.033 32.2178C54.3487 32.2178 54.6573 32.312 54.9197 32.4887C55.1822 32.6653 55.3868 32.9163 55.5076 33.21C55.6284 33.5037 55.66 33.8269 55.5984 34.1387C55.5368 34.4505 55.3848 34.7369 55.1616 34.9617C54.9384 35.1865 54.654 35.3396 54.3444 35.4016C54.0348 35.4636 53.7139 35.4318 53.4223 35.3101C53.1306 35.1885 52.8814 34.9825 52.706 34.7181C52.5306 34.4538 52.437 34.143 52.437 33.8251C52.437 33.6141 52.4783 33.405 52.5585 33.21C52.6387 33.015 52.7563 32.8378 52.9045 32.6886C53.0527 32.5393 53.2286 32.4209 53.4223 32.3402C53.6159 32.2594 53.8234 32.2178 54.033 32.2178Z" fill="#3D515C"/>
<path id="Path 189" fill-rule="evenodd" clip-rule="evenodd" d="M32.5917 64.7111C31.5227 66.1489 30.0743 66.8747 29.3628 66.337C28.6512 65.7993 28.9315 64.1919 30.0005 62.7553C31.0695 61.3187 32.5179 60.5916 33.2294 61.1294C33.941 61.6671 33.6619 63.2733 32.5917 64.7111Z" fill="white"/>
<path id="Path 190" fill-rule="evenodd" clip-rule="evenodd" d="M17.9345 29.3178C18.5393 31.9987 19.494 34.5871 20.7737 37.0155L19.3898 37.6973C17.8243 35.444 16.5232 33.0156 15.5128 30.4606C14.2085 27.0659 17.1734 25.6699 17.9345 29.3178Z" fill="#E7B791"/>
<g id="Group 52">
<path id="Path 191" fill-rule="evenodd" clip-rule="evenodd" d="M23.6533 38.5288C23.1563 38.7994 23.139 39.1199 23.44 39.3847C22.6592 39.6879 22.3317 40.5171 22.5416 40.9061C22.6312 41.3643 22.8621 41.7823 23.2015 42.1005C23.5409 42.4187 23.9714 42.6209 24.4316 42.6782C24.8918 42.7355 25.3582 42.6449 25.7643 42.4195C26.1704 42.1941 26.4954 41.8453 26.693 41.4229C26.8907 41.0004 26.9509 40.5259 26.8649 40.067C26.779 39.6081 26.5514 39.1882 26.2146 38.8673C25.8777 38.5464 25.4489 38.3407 24.9892 38.2797C24.5294 38.2187 24.0623 38.3055 23.6544 38.5276L23.6533 38.5288Z" fill="#E7B791"/>
<g id="Group 44">
<path id="Path 192" d="M21.5717 40.5103C19.9077 42.2361 18.9286 45.1465 18.864 48.626" stroke="#A351C1" stroke-width="2.4" stroke-miterlimit="22.926"/>
<path id="Path 193" d="M22.4609 41.0737C21.769 43.3768 22.2303 46.4161 23.7686 49.5333" stroke="#A351C1" stroke-width="2.4" stroke-miterlimit="22.926"/>
</g>
<path id="Path 194" fill-rule="evenodd" clip-rule="evenodd" d="M28.0561 39.2325C27.9536 39.2592 27.8614 39.3165 27.7917 39.3969C27.7221 39.4772 27.6781 39.577 27.6656 39.6829C27.6532 39.7889 27.6728 39.8961 27.7219 39.9907C27.771 40.0852 27.8473 40.1626 27.9408 40.2127C27.9271 40.4698 27.8575 40.7207 27.7369 40.9477C27.6164 41.1747 27.4478 41.3723 27.2431 41.5265C27.0384 41.6807 26.8026 41.7877 26.5523 41.8401C26.3021 41.8924 26.0434 41.8887 25.7947 41.8293C25.7131 42.1191 25.5589 42.3828 25.3469 42.5952C25.135 42.8077 24.8724 42.9617 24.5843 43.0425C24.2963 43.1233 23.9924 43.1282 23.7019 43.0567C23.4115 42.9852 23.1441 42.8397 22.9255 42.6342C22.8486 42.5632 22.778 42.4854 22.7145 42.4019C22.4671 42.5709 22.1807 42.6731 21.8829 42.6985C21.585 42.724 21.2857 42.672 21.0135 42.5475C20.7413 42.423 20.5055 42.2301 20.3286 41.9875C20.1517 41.7448 20.0397 41.4604 20.0033 41.1616C19.9904 41.056 19.987 40.9495 19.9929 40.8433C19.6956 40.8127 19.411 40.7056 19.1665 40.5324C18.9221 40.3592 18.7259 40.1256 18.5968 39.8541C18.4678 39.5825 18.4101 39.2822 18.4294 38.9818C18.4487 38.6814 18.5444 38.391 18.7071 38.1385C18.7649 38.0492 18.8305 37.9652 18.9032 37.8876C18.6952 37.6716 18.5457 37.4055 18.4692 37.1146C18.3926 36.8238 18.3915 36.518 18.4659 36.2266C18.5403 35.9352 18.6878 35.6679 18.8942 35.4503C19.1006 35.2328 19.359 35.0723 19.6447 34.9842C19.7456 34.9533 19.849 34.9316 19.9537 34.9191C19.9326 34.6191 19.9883 34.3187 20.1154 34.0465C20.2426 33.7744 20.437 33.5397 20.68 33.3649C20.923 33.19 21.2065 33.081 21.5034 33.0481C21.8002 33.0152 22.1005 33.0596 22.3755 33.177C22.4727 33.2185 22.5661 33.2686 22.6545 33.3269C22.8297 33.083 23.0641 32.8885 23.3353 32.7621C23.6065 32.6357 23.9054 32.5816 24.2034 32.6049C24.5013 32.6282 24.7883 32.7282 25.0369 32.8953C25.2854 33.0624 25.4872 33.2909 25.6229 33.5591C25.67 33.6542 25.7086 33.7533 25.7382 33.8553C26.4457 34.9823 27.347 35.9734 28.3998 36.782C28.675 37.1535 28.7933 37.6195 28.729 38.0785C28.6646 38.5375 28.4228 38.9523 28.0561 39.2325Z" fill="#F7E1E8"/>
<g id="Group 45">
<path id="Path 195" fill-rule="evenodd" clip-rule="evenodd" d="M24.1191 33.8567C24.1341 34.1633 23.7893 34.4304 23.35 34.4524C23.2873 34.4558 23.2244 34.4538 23.162 34.4466C23.1936 34.5012 23.2206 34.5583 23.2427 34.6174C23.3995 35.032 23.2946 35.4559 23.0121 35.5662C22.7295 35.6765 22.3686 35.428 22.2118 35.0134C22.1894 34.9542 22.172 34.8932 22.1599 34.831C22.1181 34.8785 22.0726 34.9224 22.0238 34.9623C21.6778 35.2399 21.2477 35.2712 21.0562 35.032C20.8648 34.7927 20.9882 34.3735 21.3307 34.0947C21.3487 34.105 21.369 34.1102 21.3896 34.1098C21.4102 34.1094 21.4304 34.1035 21.4479 34.0926C21.4655 34.0817 21.4799 34.0663 21.4895 34.0479C21.4991 34.0295 21.5037 34.0089 21.5027 33.9882C21.5017 33.9674 21.4953 33.9473 21.4839 33.9299C21.4726 33.9126 21.4569 33.8986 21.4384 33.8894C21.4199 33.8803 21.3993 33.8763 21.3787 33.8779C21.3581 33.8795 21.3384 33.8866 21.3215 33.8985C20.9525 33.6557 20.7899 33.2504 20.9559 32.9937C21.122 32.7371 21.5567 32.7243 21.9258 32.967C21.9784 33.0016 22.0282 33.0404 22.0745 33.0831C22.081 33.0204 22.0926 32.9582 22.1091 32.8974C22.2244 32.4688 22.5566 32.1866 22.8506 32.2679C23.1447 32.3492 23.29 32.7603 23.1747 33.1888C23.1585 33.2498 23.1373 33.3092 23.1112 33.3665C23.1727 33.3532 23.2352 33.345 23.2981 33.3422C23.7351 33.3189 24.1042 33.55 24.1191 33.8567Z" fill="#A351C1"/>
<path id="Path 196" fill-rule="evenodd" clip-rule="evenodd" d="M22.3537 33.584C22.4289 33.5719 22.5059 33.5825 22.5751 33.6145C22.6444 33.6465 22.7026 33.6984 22.7425 33.7637C22.7824 33.8291 22.8022 33.9048 22.7994 33.9815C22.7965 34.0581 22.7712 34.1322 22.7266 34.1943C22.6819 34.2565 22.62 34.3039 22.5486 34.3306C22.4772 34.3574 22.3996 34.3621 22.3255 34.3444C22.2514 34.3267 22.1842 34.2873 22.1323 34.2311C22.0805 34.1749 22.0463 34.1045 22.0342 34.0288C22.0262 33.9784 22.028 33.927 22.0397 33.8774C22.0514 33.8278 22.0727 33.781 22.1024 33.7397C22.132 33.6984 22.1695 33.6634 22.2126 33.6366C22.2557 33.6099 22.3037 33.592 22.3537 33.584Z" fill="white"/>
</g>
<g id="Group 46">
<path id="Path 197" fill-rule="evenodd" clip-rule="evenodd" d="M20.6272 36.5822C20.4577 36.8377 20.023 36.8435 19.6574 36.5961C19.6051 36.5615 19.5558 36.5227 19.5098 36.48C19.5028 36.5428 19.4904 36.605 19.4729 36.6658C19.3576 37.092 19.0116 37.3696 18.7233 37.286C18.435 37.2023 18.2897 36.7877 18.4096 36.3569C18.4267 36.2959 18.4487 36.2365 18.4754 36.1792C18.4138 36.1917 18.3513 36.1991 18.2885 36.2012C17.848 36.2175 17.4813 35.9817 17.4709 35.6751C17.4606 35.3685 17.8065 35.106 18.247 35.0944C18.3098 35.0925 18.3727 35.0956 18.435 35.1037C18.4042 35.0487 18.378 34.9912 18.3566 34.9319C18.2055 34.5149 18.3151 34.0922 18.6011 33.9865C18.8871 33.8808 19.2422 34.1328 19.3945 34.5486C19.4157 34.6084 19.4323 34.6697 19.4441 34.7321C19.486 34.6852 19.532 34.6421 19.5813 34.6032C19.9272 34.3291 20.362 34.3035 20.55 34.5451C20.738 34.7867 20.6099 35.2048 20.264 35.4742C20.2147 35.5134 20.1622 35.5483 20.1071 35.5787C20.1646 35.6046 20.2198 35.6353 20.2721 35.6705C20.6411 35.919 20.7968 36.329 20.6272 36.5822Z" fill="#A351C1"/>
<path id="Path 198" fill-rule="evenodd" clip-rule="evenodd" d="M19.3748 35.2987C19.4422 35.3343 19.4977 35.3893 19.5341 35.4566C19.5706 35.524 19.5864 35.6007 19.5796 35.6771C19.5727 35.7535 19.5436 35.8261 19.4957 35.8858C19.4479 35.9456 19.3836 35.9896 19.3109 36.0125C19.2382 36.0354 19.1604 36.0361 19.0873 36.0144C19.0142 35.9928 18.9492 35.9498 18.9004 35.891C18.8515 35.8321 18.8211 35.76 18.813 35.6837C18.8049 35.6074 18.8194 35.5305 18.8547 35.4625C18.8781 35.4173 18.9102 35.3772 18.949 35.3446C18.9879 35.3119 19.0327 35.2873 19.081 35.2721C19.1293 35.2568 19.1801 35.2514 19.2305 35.256C19.2809 35.2605 19.3299 35.275 19.3748 35.2987Z" fill="white"/>
</g>
<g id="Group 47">
<path id="Path 199" fill-rule="evenodd" clip-rule="evenodd" d="M22.2232 39.5999C22.2381 39.9065 21.8945 40.1736 21.454 40.1956C21.3913 40.199 21.3284 40.197 21.266 40.1898C21.2974 40.2445 21.3244 40.3016 21.3467 40.3606C21.5036 40.7752 21.3986 41.2002 21.1161 41.3094C20.8336 41.4186 20.4726 41.1712 20.3169 40.7566C20.2946 40.6974 20.2772 40.6364 20.265 40.5742C20.2234 40.6218 20.1779 40.6657 20.1289 40.7055C19.783 40.9842 19.3528 41.0144 19.1614 40.7752C18.97 40.5359 19.0922 40.1167 19.4359 39.8379C19.4848 39.7981 19.5369 39.7624 19.5916 39.7311C19.5338 39.7057 19.4782 39.6753 19.4255 39.6405C19.0565 39.3978 18.8939 38.9936 19.0599 38.7358C19.226 38.4779 19.6607 38.4663 20.0298 38.7091C20.0825 38.7435 20.1322 38.7824 20.1785 38.8252C20.1847 38.762 20.1963 38.6994 20.2131 38.6382C20.3284 38.2097 20.6606 37.9286 20.9546 38.0088C21.2487 38.0889 21.3952 38.5012 21.2798 38.9297C21.2636 38.991 21.2424 39.0508 21.2164 39.1086C21.2779 39.0952 21.3404 39.0871 21.4032 39.0842C21.8391 39.0621 22.207 39.2932 22.2232 39.5999Z" fill="#A351C1"/>
<path id="Path 200" fill-rule="evenodd" clip-rule="evenodd" d="M20.4564 39.3257C20.5316 39.3136 20.6087 39.3242 20.6779 39.3562C20.7471 39.3882 20.8054 39.4401 20.8453 39.5054C20.8852 39.5708 20.905 39.6465 20.9021 39.7232C20.8993 39.7998 20.874 39.8739 20.8294 39.936C20.7847 39.9982 20.7228 40.0456 20.6514 40.0723C20.58 40.099 20.5024 40.1038 20.4283 40.0861C20.3542 40.0684 20.287 40.029 20.2351 39.9728C20.1833 39.9166 20.1491 39.8462 20.137 39.7705C20.1289 39.7202 20.1308 39.6687 20.1425 39.6191C20.1542 39.5695 20.1755 39.5227 20.2052 39.4814C20.2348 39.4401 20.2723 39.4051 20.3154 39.3783C20.3585 39.3516 20.4064 39.3337 20.4564 39.3257Z" fill="white"/>
</g>
<g id="Group 48">
<path id="Path 201" fill-rule="evenodd" clip-rule="evenodd" d="M24.6946 36.549C24.9172 36.7592 24.8538 37.1912 24.5528 37.5152C24.5098 37.5616 24.4632 37.6043 24.4133 37.643C24.4738 37.6601 24.5328 37.6822 24.5897 37.7092C24.9887 37.8973 25.2067 38.276 25.0775 38.5535C24.9483 38.8311 24.5193 38.9019 24.1215 38.7161C24.0645 38.6892 24.0097 38.6578 23.9577 38.622C23.9603 38.6853 23.9576 38.7486 23.9497 38.8113C23.8955 39.2515 23.6037 39.5767 23.3027 39.5395C23.0017 39.5024 22.7988 39.1133 22.853 38.6743C22.8605 38.6114 22.8732 38.5493 22.891 38.4885C22.8321 38.5104 22.7716 38.5274 22.71 38.5396C22.2775 38.6232 21.8808 38.4467 21.8232 38.1447C21.7655 37.8427 22.07 37.5303 22.5013 37.4479C22.5628 37.4355 22.6253 37.4286 22.6881 37.427C22.6488 37.3774 22.6137 37.3245 22.5831 37.269C22.3709 36.8811 22.4148 36.4456 22.6823 36.2969C22.9498 36.1483 23.3385 36.3434 23.5507 36.7313C23.5811 36.7867 23.607 36.8446 23.6279 36.9043C23.6623 36.8517 23.7008 36.802 23.7432 36.7557C24.0465 36.4305 24.4721 36.3387 24.6946 36.549Z" fill="#A351C1"/>
<path id="Path 202" fill-rule="evenodd" clip-rule="evenodd" d="M23.2346 37.5886C23.2804 37.5273 23.3431 37.4809 23.415 37.4555C23.4868 37.4301 23.5645 37.4267 23.6383 37.4457C23.7121 37.4648 23.7786 37.5054 23.8294 37.5625C23.8802 37.6196 23.9131 37.6906 23.9239 37.7665C23.9347 37.8425 23.9229 37.9199 23.89 37.989C23.8571 38.0582 23.8046 38.116 23.7391 38.1551C23.6736 38.1943 23.5981 38.213 23.522 38.2089C23.446 38.2048 23.3729 38.178 23.3119 38.1321C23.2714 38.1015 23.2372 38.0632 23.2114 38.0194C23.1855 37.9755 23.1685 37.927 23.1614 37.8765C23.1542 37.826 23.157 37.7746 23.1695 37.7252C23.1821 37.6758 23.2042 37.6294 23.2346 37.5886Z" fill="white"/>
</g>
<g id="Group 49">
<path id="Path 203" fill-rule="evenodd" clip-rule="evenodd" d="M27.3447 33.9635C27.5673 34.1737 27.5039 34.6058 27.2029 34.9298C27.1599 34.9761 27.1133 35.0188 27.0634 35.0575C27.1239 35.0746 27.1829 35.0968 27.2398 35.1237C27.6388 35.3119 27.8568 35.6905 27.7265 35.968C27.5961 36.2456 27.1683 36.3165 26.7704 36.1318C26.7134 36.1046 26.6586 36.0728 26.6067 36.0366C26.6093 36.0998 26.6066 36.1631 26.5986 36.2259C26.5444 36.6661 26.2527 36.9912 25.9517 36.9541C25.6507 36.9169 25.4477 36.5278 25.5019 36.0888C25.5094 36.0259 25.5221 35.9638 25.54 35.903C25.4811 35.9249 25.4205 35.942 25.3589 35.9541C24.9265 36.0377 24.5298 35.8612 24.4721 35.5593C24.4145 35.2573 24.7178 34.9449 25.1502 34.8624C25.2118 34.8501 25.2743 34.8431 25.337 34.8415C25.2978 34.7918 25.2627 34.739 25.2321 34.6836C25.0199 34.2945 25.0637 33.8601 25.3313 33.7115C25.5988 33.5628 25.9874 33.7579 26.1996 34.1458C26.23 34.2013 26.2559 34.2592 26.2769 34.3189C26.3112 34.2663 26.3498 34.2165 26.3922 34.1702C26.6966 33.845 27.121 33.7533 27.3447 33.9635Z" fill="#A351C1"/>
<path id="Path 204" fill-rule="evenodd" clip-rule="evenodd" d="M25.8848 35.0031C25.9305 34.9418 25.9933 34.8955 26.0651 34.8701C26.137 34.8447 26.2147 34.8413 26.2884 34.8603C26.3622 34.8793 26.4287 34.92 26.4795 34.9771C26.5304 35.0342 26.5633 35.1052 26.5741 35.1811C26.5849 35.257 26.5731 35.3344 26.5402 35.4036C26.5073 35.4728 26.4548 35.5306 26.3893 35.5697C26.3238 35.6088 26.2482 35.6275 26.1722 35.6234C26.0962 35.6193 26.023 35.5926 25.9621 35.5467C25.9215 35.5161 25.8873 35.4778 25.8615 35.4339C25.8357 35.3901 25.8187 35.3415 25.8115 35.291C25.8043 35.2405 25.8071 35.1891 25.8197 35.1397C25.8323 35.0903 25.8544 35.0439 25.8848 35.0031Z" fill="white"/>
</g>
<g id="Group 50">
<path id="Path 205" fill-rule="evenodd" clip-rule="evenodd" d="M28.883 39.2653C28.9223 39.5696 28.6005 39.8634 28.1634 39.9203C28.1012 39.9287 28.0383 39.9318 27.9755 39.9296C28.0131 39.9806 28.0467 40.0346 28.0758 40.091C28.2638 40.4917 28.1911 40.9225 27.919 41.0549C27.6468 41.1873 27.2663 40.969 27.0771 40.5683C27.0503 40.511 27.0283 40.4516 27.0114 40.3906C26.9734 40.4409 26.9314 40.4879 26.8857 40.5312C26.5651 40.8366 26.1361 40.9016 25.9262 40.6787C25.7164 40.4557 25.8109 40.0271 26.1257 39.7228C26.1717 39.6802 26.2211 39.6413 26.2734 39.6067C26.2141 39.586 26.1566 39.5604 26.1015 39.5301C25.7152 39.3175 25.5249 38.9273 25.6656 38.6567C25.8063 38.3861 26.2422 38.3396 26.6297 38.5522C26.6852 38.5825 26.738 38.6175 26.7877 38.6567C26.7891 38.5935 26.7956 38.5306 26.8073 38.4686C26.888 38.033 27.1971 37.7253 27.4992 37.7822C27.8013 37.8391 27.9766 38.2374 27.8959 38.6729C27.8845 38.7354 27.868 38.7968 27.8463 38.8564C27.9066 38.8381 27.9683 38.8249 28.0308 38.817C28.4575 38.76 28.8438 38.9598 28.883 39.2653Z" fill="#A351C1"/>
<path id="Path 206" fill-rule="evenodd" clip-rule="evenodd" d="M27.1003 39.1327C27.1745 39.1144 27.2524 39.1188 27.3241 39.1452C27.3958 39.1716 27.4581 39.2189 27.5031 39.2811C27.5481 39.3432 27.5737 39.4175 27.5767 39.4943C27.5797 39.5712 27.5599 39.6472 27.5199 39.7127C27.4799 39.7782 27.4214 39.8303 27.352 39.8623C27.2825 39.8943 27.2052 39.9047 27.1298 39.8923C27.0545 39.88 26.9844 39.8453 26.9287 39.7928C26.8729 39.7402 26.8339 39.6721 26.8166 39.5972C26.7937 39.4978 26.8106 39.3932 26.8637 39.3063C26.9168 39.2193 27.0018 39.1569 27.1003 39.1327Z" fill="white"/>
</g>
<g id="Group 51">
<path id="Path 207" fill-rule="evenodd" clip-rule="evenodd" d="M24.8651 40.3173C25.0877 40.5275 25.0243 40.9607 24.7233 41.2836C24.6805 41.3298 24.6338 41.3721 24.5838 41.4102C24.6442 41.4274 24.7033 41.4496 24.7602 41.4764C25.1592 41.6646 25.3772 42.0432 25.248 42.3207C25.1188 42.5983 24.6899 42.6692 24.292 42.4833C24.2353 42.4567 24.1809 42.4252 24.1294 42.3892C24.1318 42.4525 24.1291 42.5158 24.1213 42.5786C24.0671 43.0187 23.7754 43.3439 23.4744 43.3067C23.1734 43.2696 22.9704 42.8817 23.0246 42.4415C23.0322 42.3786 23.0449 42.3165 23.0627 42.2557C23.0038 42.2777 22.9433 42.2948 22.8816 42.3068C22.4492 42.3904 22.0513 42.2139 21.9948 41.9119C21.9383 41.61 22.2405 41.2975 22.6729 41.2151C22.6841 41.2324 22.6998 41.2464 22.7182 41.2556C22.7366 41.2648 22.7571 41.2689 22.7776 41.2674C22.7981 41.266 22.8178 41.259 22.8348 41.2473C22.8517 41.2356 22.8652 41.2195 22.8739 41.2008C22.8826 41.182 22.8862 41.1613 22.8843 41.1407C22.8823 41.1201 22.875 41.1003 22.8629 41.0836C22.8509 41.0668 22.8346 41.0536 22.8158 41.0452C22.797 41.0369 22.7763 41.0338 22.7559 41.0362C22.5437 40.6483 22.5876 40.2128 22.854 40.0642C23.1203 39.9155 23.5101 40.1094 23.7235 40.4985C23.7539 40.554 23.7797 40.6119 23.8007 40.6716C23.8351 40.619 23.8737 40.5692 23.9161 40.5229C24.217 40.2 24.6414 40.1071 24.8651 40.3173Z" fill="#A351C1"/>
<path id="Path 208" fill-rule="evenodd" clip-rule="evenodd" d="M23.4063 41.3581C23.452 41.2968 23.5148 41.2505 23.5866 41.2251C23.6584 41.1996 23.7362 41.1962 23.8099 41.2153C23.8837 41.2343 23.9502 41.275 24.001 41.3321C24.0519 41.3892 24.0848 41.4602 24.0956 41.5361C24.1063 41.612 24.0945 41.6894 24.0617 41.7586C24.0288 41.8277 23.9763 41.8855 23.9108 41.9247C23.8453 41.9638 23.7697 41.9825 23.6937 41.9784C23.6176 41.9743 23.5445 41.9476 23.4835 41.9016C23.443 41.8711 23.4088 41.8328 23.383 41.7889C23.3572 41.7451 23.3402 41.6965 23.333 41.646C23.3258 41.5955 23.3286 41.5441 23.3412 41.4947C23.3537 41.4453 23.3759 41.3989 23.4063 41.3581Z" fill="white"/>
</g>
</g>
<g id="Group 55">
<path id="Path 209" fill-rule="evenodd" clip-rule="evenodd" d="M24.5437 2.75132C25.6493 2.61547 26.7701 2.81208 27.7649 3.31645C28.7598 3.82082 29.5842 4.61038 30.1343 5.58567C30.6845 6.56096 30.9358 7.67841 30.8567 8.79727C30.7775 9.91613 30.3714 10.9864 29.6895 11.8732C29.0076 12.7601 28.0803 13.424 27.0245 13.7812C25.9687 14.1384 24.8316 14.173 23.7563 13.8807C22.681 13.5883 21.7156 12.9821 20.9818 12.1383C20.2479 11.2945 19.7783 10.2509 19.6322 9.13894C19.4425 7.63597 19.8534 6.11866 20.7744 4.92076C21.6955 3.72287 23.0513 2.9425 24.5437 2.75132Z" fill="#5E3A1D"/>
<path id="Path 210" fill-rule="evenodd" clip-rule="evenodd" d="M24.87 5.23089C28.3977 4.76634 31.5159 6.34698 31.8354 8.77428C32.1548 11.2016 29.5532 13.5499 26.0256 14.0191C22.4979 14.4883 19.3797 12.903 19.0602 10.4757C18.7408 8.04841 21.3424 5.70009 24.87 5.23089Z" fill="white"/>
<path id="Path 211" fill-rule="evenodd" clip-rule="evenodd" d="M24.976 6.03936C28.8969 5.51674 32.315 6.87905 32.6044 9.08336C32.8939 11.2877 29.9521 13.4966 26.0243 14.0204C22.0965 14.5442 18.6853 13.1807 18.3959 10.9764C18.1064 8.77211 21.0517 6.56199 24.976 6.03936Z" fill="#5E3A1D"/>
<path id="Path 212" fill-rule="evenodd" clip-rule="evenodd" d="M25.0822 7.2143C19.9793 7.89371 16.2649 11.6554 16.7861 15.6169C17.3073 19.5784 21.8602 22.2368 26.9665 21.5586C32.0729 20.8803 35.7839 17.1163 35.2627 13.1559C34.7414 9.19562 30.1851 6.53489 25.0822 7.2143Z" fill="#E7B791"/>
<g id="Group 53">
<path id="Path 213" fill-rule="evenodd" clip-rule="evenodd" d="M23.0999 14.0842C23.2043 14.0676 23.3112 14.0827 23.4071 14.1276C23.5029 14.1725 23.5833 14.2451 23.638 14.3362C23.6926 14.4274 23.719 14.5328 23.7139 14.6392C23.7087 14.7455 23.6722 14.8479 23.609 14.9332C23.5458 15.0185 23.4587 15.0829 23.359 15.1182C23.2593 15.1534 23.1513 15.158 23.049 15.1312C22.9467 15.1044 22.8547 15.0475 22.7847 14.9677C22.7146 14.888 22.6698 14.789 22.6559 14.6835C22.6459 14.6148 22.6495 14.5447 22.6665 14.4774C22.6834 14.4101 22.7133 14.3468 22.7546 14.2912C22.7958 14.2355 22.8475 14.1886 22.9068 14.1531C22.966 14.1176 23.0316 14.0942 23.0999 14.0842Z" fill="#323232"/>
<path id="Path 214" fill-rule="evenodd" clip-rule="evenodd" d="M28.7171 13.3362C28.8215 13.3195 28.9284 13.3346 29.0243 13.3795C29.1201 13.4244 29.2005 13.4971 29.2552 13.5882C29.3098 13.6793 29.3362 13.7848 29.3311 13.8911C29.3259 13.9975 29.2894 14.0998 29.2262 14.1852C29.163 14.2705 29.0759 14.3349 28.9762 14.3702C28.8764 14.4054 28.7685 14.4099 28.6662 14.3831C28.5639 14.3563 28.4719 14.2994 28.4018 14.2197C28.3318 14.1399 28.287 14.041 28.2731 13.9354C28.2631 13.8667 28.2667 13.7967 28.2836 13.7294C28.3006 13.6621 28.3305 13.5988 28.3717 13.5431C28.413 13.4875 28.4647 13.4405 28.5239 13.405C28.5832 13.3695 28.6488 13.3461 28.7171 13.3362Z" fill="#323232"/>
</g>
<path id="Path 215" fill-rule="evenodd" clip-rule="evenodd" d="M29.612 16.6611C27.5017 17.2092 25.3333 17.4982 23.1541 17.5217C25.0707 19.3079 28.5602 18.9142 29.612 16.6611Z" fill="#C79369"/>
<path id="Path 216" fill-rule="evenodd" clip-rule="evenodd" d="M16.0422 13.6207C16.7422 13.3559 17.6429 14.0353 18.0546 15.1363C18.4663 16.2373 18.231 17.343 17.5299 17.6112C16.8287 17.8795 15.9292 17.1978 15.5187 16.1014C15.1081 15.0051 15.3422 13.8809 16.0422 13.6207Z" fill="#E7B791"/>
<path id="Path 217" fill-rule="evenodd" clip-rule="evenodd" d="M35.4782 11.132C34.7332 11.06 34.039 11.945 33.926 13.1226C33.813 14.3003 34.3262 15.3026 35.0711 15.3757C35.8161 15.4489 36.5103 14.557 36.6222 13.3851C36.734 12.2133 36.2232 11.2075 35.4782 11.132Z" fill="#E7B791"/>
<g id="Group 54">
<path id="Path 218" fill-rule="evenodd" clip-rule="evenodd" d="M19.6357 9.1378C20.3277 12.2666 31.1401 13.3815 35.5164 13.1817C35.3476 11.7943 34.8033 10.4804 33.943 9.38353C33.0827 8.28667 31.9395 7.44915 30.6384 6.96251C28.7791 6.29959 26.7771 6.15174 24.8416 6.53439C22.9061 6.91705 21.1082 7.81617 19.6357 9.1378Z" fill="#5E3A1D"/>
<path id="Path 219" fill-rule="evenodd" clip-rule="evenodd" d="M25.5642 7.13421C25.103 10.3327 20.0612 15.0421 16.4332 15.7285C15.5556 10.6079 20.7312 5.81255 25.5642 7.13421Z" fill="#5E3A1D"/>
</g>
<path id="Path 220" fill-rule="evenodd" clip-rule="evenodd" d="M26.5467 14.5396C26.6916 14.6808 26.7963 14.8586 26.8499 15.0544C26.9034 15.2503 26.9038 15.457 26.8511 15.6531C26.7983 15.8491 26.6943 16.0273 26.5499 16.1691C26.4055 16.3109 26.226 16.4112 26.03 16.4593C26.6101 16.4605 28.2915 15.795 26.5467 14.5396Z" fill="#C79369"/>
</g>
<path id="Path 221" fill-rule="evenodd" clip-rule="evenodd" d="M29.4966 12.7472C29.5681 14.7645 32.0002 17.8271 33.9318 17.8991C35.8634 17.9711 31.6784 9.93781 29.4966 12.7472Z" fill="#C79369"/>
<g id="Group 57">
<path id="Path 222" fill-rule="evenodd" clip-rule="evenodd" d="M49.9417 9.99827C49.2291 9.76599 48.3642 10.4942 48.009 11.6161C47.6538 12.738 47.9455 13.832 48.6582 14.055C49.3709 14.278 50.2358 13.5591 50.591 12.4384C50.9462 11.3176 50.6544 10.2271 49.9417 9.99827Z" fill="#E7B791"/>
<path id="Path 223" fill-rule="evenodd" clip-rule="evenodd" d="M29.3513 7.42946C30.0917 7.31332 30.8297 8.17275 31.0015 9.33762C31.1734 10.5025 30.7121 11.535 29.9717 11.6465C29.2314 11.758 28.4933 10.9032 28.3215 9.7383C28.1497 8.57343 28.6121 7.53979 29.3513 7.42946Z" fill="#E7B791"/>
<path id="Path 224" fill-rule="evenodd" clip-rule="evenodd" d="M39.8558 4.03837C45.2931 4.4797 49.4273 8.25887 49.0906 12.4805C48.7539 16.7021 44.0707 19.7659 38.6334 19.3245C33.1961 18.8832 29.0619 15.1041 29.3986 10.8824C29.7353 6.66079 34.4185 3.59705 39.8558 4.03837Z" fill="#E7B791"/>
<path id="Path 225" fill-rule="evenodd" clip-rule="evenodd" d="M47.3239 5.19503C42.4597 4.59576 33.9837 11.7534 29.1541 9.30749C30.5771 3.3368 37.0212 0.443792 42.2002 1.74919C43.2393 1.95022 44.228 2.35865 45.1079 2.95045C45.9879 3.54224 46.7413 4.30544 47.3239 5.19503Z" fill="#5E3A1D"/>
<path id="Path 226" fill-rule="evenodd" clip-rule="evenodd" d="M43.7905 2.82812C42.4758 6.91853 46.158 11.8695 49.3005 12.0298C50.0823 8.63038 47.3631 3.75027 43.7905 2.82812Z" fill="#5E3A1D"/>
<path id="Path 227" fill-rule="evenodd" clip-rule="evenodd" d="M42.2661 14.7856C40.0868 14.8743 37.9049 14.6972 35.7678 14.2583C37.2751 16.4115 40.7693 16.7646 42.2661 14.7856Z" fill="#C79369"/>
<path id="Path 228" fill-rule="evenodd" clip-rule="evenodd" d="M47.309 5.37032C40.5593 3.23454 30.5957 11.3085 28.5222 3.12304C31.8307 4.69324 32.3093 3.44476 35.679 1.97328C37.6931 1.00055 39.9925 0.809219 42.1379 1.43587C44.2833 2.06251 46.1242 3.4632 47.309 5.37032Z" fill="#5E3A1D"/>
<path id="Path 229" fill-rule="evenodd" clip-rule="evenodd" d="M48.0332 7.15996C42.0827 3.30648 30.3558 8.44676 30.5046 0C33.2849 2.39362 34.0726 1.31699 37.7086 0.793207C39.9057 0.390763 42.1731 0.81753 44.0776 1.99195C45.9821 3.16637 47.3903 5.00617 48.0332 7.15996Z" fill="#5E3A1D"/>
<g id="Group 56">
<path id="Path 230" fill-rule="evenodd" clip-rule="evenodd" d="M36.3559 10.133C36.4679 10.1389 36.5757 10.1783 36.6653 10.2463C36.755 10.3142 36.8225 10.4075 36.8592 10.5143C36.896 10.6211 36.9002 10.7365 36.8714 10.8457C36.8427 10.9549 36.7822 11.0531 36.6978 11.1275C36.6133 11.2019 36.5088 11.2493 36.3975 11.2635C36.2861 11.2778 36.1731 11.2582 36.0729 11.2074C35.9727 11.1567 35.8898 11.0769 35.8348 10.9784C35.7798 10.8799 35.7553 10.7671 35.7643 10.6545C35.7743 10.5064 35.8423 10.3684 35.9531 10.2707C36.064 10.173 36.2088 10.1234 36.3559 10.133Z" fill="#323232"/>
<path id="Path 231" fill-rule="evenodd" clip-rule="evenodd" d="M42.3422 10.6184C42.4543 10.6243 42.562 10.6637 42.6517 10.7317C42.7414 10.7996 42.8089 10.8929 42.8456 10.9997C42.8823 11.1065 42.8865 11.2219 42.8578 11.3311C42.829 11.4403 42.7685 11.5384 42.6841 11.6128C42.5997 11.6873 42.4951 11.7346 42.3838 11.7489C42.2725 11.7631 42.1595 11.7436 42.0592 11.6928C41.959 11.642 41.8761 11.5623 41.8211 11.4638C41.7661 11.3653 41.7416 11.2525 41.7506 11.1398C41.7607 10.9918 41.8286 10.8538 41.9395 10.756C42.0503 10.6583 42.1952 10.6088 42.3422 10.6184Z" fill="#323232"/>
</g>
<path id="Path 232" fill-rule="evenodd" clip-rule="evenodd" d="M39.594 12.0806C39.8985 12.6613 40.0865 13.5718 38.8318 13.9156C39.4061 13.9934 41.1659 13.5555 39.594 12.0806Z" fill="#C79369"/>
<path id="Path 233" fill-rule="evenodd" clip-rule="evenodd" d="M39.594 12.0806C39.8985 12.6613 40.0865 13.5718 38.8318 13.9156C39.4061 13.9934 41.1659 13.5555 39.594 12.0806Z" fill="#C79369"/>
</g>
</g>
</g>
<defs>
<clipPath id="clip0_2756_2220">
<rect width="72" height="75" fill="white"/>
</clipPath>
</defs>
</svg>
