<svg width="26" height="25" viewBox="0 0 26 25" fill="none" xmlns="http://www.w3.org/2000/svg">
<g id="pdf-svgrepo-com (1) 2">
<g id="Group">
<path id="Vector" d="M18.8758 0H3.45801V25H23.0419V4.16614L18.8758 0Z" fill="#E8E8E8"/>
<path id="Vector_2" d="M19.7161 12.3633C19.4157 11.8279 18.3778 11.6597 17.9016 11.584C17.5262 11.5243 17.1431 11.5065 16.7634 11.5068C16.4653 11.5048 16.1716 11.5195 15.8817 11.536C15.7748 11.5431 15.6691 11.5524 15.5633 11.5615C15.455 11.4494 15.3503 11.3335 15.2489 11.215C14.6041 10.4517 14.0835 9.58611 13.6592 8.68658C13.7719 8.25195 13.862 7.79835 13.9164 7.32728C14.0158 6.4675 14.0499 5.48766 13.7278 4.66795C13.6165 4.38504 13.3199 4.04062 12.9777 4.21213C12.5843 4.40937 12.4737 4.96818 12.4416 5.3643C12.4158 5.68448 12.4339 6.00549 12.4876 6.32031C12.5424 6.63728 12.6305 6.93825 12.7265 7.2388C12.816 7.51437 12.9147 7.7878 13.0223 8.05867C12.9541 8.27191 12.8816 8.48143 12.8055 8.68559C12.628 9.1509 12.4362 9.59295 12.2516 10.0182C12.1543 10.229 12.0591 10.4354 11.9659 10.6372C11.671 11.2849 11.3509 11.9207 10.9917 12.5354C10.1537 12.831 9.40166 13.1737 8.77713 13.5764C8.4421 13.7928 8.14616 14.0279 7.8997 14.2857C7.66701 14.5292 7.43052 14.8451 7.40982 15.1948C7.3982 15.3922 7.47637 15.5837 7.63806 15.7008C7.86045 15.8669 8.15515 15.8559 8.41316 15.8018C9.25835 15.6245 9.90737 14.898 10.4601 14.2857C10.8408 13.8639 11.2741 13.3283 11.7274 12.6806C11.7283 12.6792 11.7293 12.6777 11.7304 12.6762C12.5078 12.4352 13.3539 12.2317 14.2519 12.0821C14.6621 12.0141 15.0832 11.9584 15.5127 11.9193C15.8148 12.2022 16.1411 12.4598 16.4972 12.6749C16.7745 12.8456 17.0694 12.9896 17.3781 13.097C17.6903 13.199 18.0044 13.2823 18.3287 13.335C18.4925 13.3584 18.6599 13.3691 18.831 13.3626C19.2129 13.3482 19.761 13.2018 19.7969 12.7384C19.808 12.5966 19.7774 12.4723 19.7161 12.3633ZM10.5742 13.2134C10.3953 13.4904 10.2228 13.7396 10.0603 13.9589C9.6623 14.5005 9.20772 15.1437 8.54954 15.3842C8.42454 15.4299 8.25995 15.4771 8.08647 15.4669C7.93194 15.4578 7.77956 15.3896 7.78657 15.2141C7.79003 15.1223 7.83497 15.0051 7.90391 14.89C7.97935 14.7638 8.07278 14.648 8.17395 14.5415C8.39073 14.3138 8.66482 14.093 8.98013 13.8886C9.46375 13.5749 10.0411 13.2925 10.6847 13.0405C10.6477 13.099 10.6107 13.1572 10.5742 13.2134ZM12.8188 6.26556C12.7692 5.97581 12.7617 5.68201 12.7922 5.39951C12.8074 5.25826 12.8362 5.1204 12.8778 4.99119C12.9131 4.88152 12.9893 4.61386 13.1108 4.57948C13.3112 4.52275 13.3728 4.95293 13.3955 5.07463C13.5246 5.76694 13.4108 6.53684 13.2559 7.21596C13.2312 7.32398 13.2038 7.43027 13.1756 7.53614C13.1276 7.40413 13.0819 7.2717 13.0397 7.13862C12.949 6.84795 12.8661 6.55391 12.8188 6.26556ZM14.1945 11.7308C13.4416 11.8529 12.7255 12.0127 12.0523 12.2015C12.1334 12.1788 12.5038 11.4768 12.5864 11.3311C12.9757 10.6455 13.2941 9.92591 13.5229 9.17102C13.927 9.97011 14.4174 10.7346 15.0198 11.415C15.0753 11.4768 15.1317 11.5378 15.1891 11.5981C14.8515 11.6344 14.5193 11.6787 14.1945 11.7308ZM19.2857 12.6951C19.2582 12.8439 18.9403 12.929 18.792 12.9524C18.3536 13.0214 17.8899 12.9662 17.4703 12.8253C17.1825 12.7286 16.9048 12.597 16.6411 12.4387C16.3788 12.2803 16.1335 12.094 15.9042 11.8885C16.187 11.8715 16.4732 11.8604 16.7608 11.8658C17.0484 11.8687 17.3382 11.8832 17.6245 11.9205C18.1614 11.9804 18.763 12.1647 19.1856 12.5131C19.2688 12.5818 19.2954 12.6425 19.2857 12.6951Z" fill="#FB3449"/>
<path id="Vector_3" d="M19.5205 2.08311H3.45801V0H18.8758L19.5205 2.08311Z" fill="#FB3449"/>
<g id="Group_2">
<path id="Vector_4" d="M11.2088 19.8846C11.2088 20.3267 11.0786 20.6681 10.8178 20.9088C10.5571 21.1497 10.1869 21.2701 9.70697 21.2701H9.40658V22.5826H8.33777V18.6263H9.70705C10.2067 18.6263 10.582 18.7355 10.8328 18.9538C11.0835 19.172 11.2088 19.4823 11.2088 19.8846ZM9.40666 20.3988H9.60151C9.76205 20.3988 9.88969 20.3537 9.98444 20.2634C10.0792 20.1732 10.1265 20.0487 10.1265 19.89C10.1265 19.623 9.97858 19.4895 9.68273 19.4895H9.40666V20.3988Z" fill="#A4A9AD"/>
<path id="Vector_5" d="M15.1976 20.5205C15.1976 21.1808 15.0158 21.6895 14.6523 22.0467C14.2888 22.4039 13.7778 22.5826 13.1193 22.5826H11.8394V18.6263H13.2086C13.8436 18.6263 14.3338 18.7887 14.6793 19.1134C15.0248 19.4381 15.1976 19.9072 15.1976 20.5205ZM14.0881 20.5585C14.0881 20.1958 14.0164 19.9271 13.873 19.752C13.7296 19.5771 13.5118 19.4896 13.2194 19.4896H12.9083V21.7058H13.1465C13.4713 21.7058 13.7093 21.6115 13.8609 21.423C14.0123 21.2345 14.0881 20.9464 14.0881 20.5585Z" fill="#A4A9AD"/>
<path id="Vector_6" d="M16.9593 22.5826H15.9066V18.6263H18.2447V19.4841H16.9593V20.2391H18.1445V21.0969H16.9593V22.5826Z" fill="#A4A9AD"/>
</g>
<path id="Vector_7" d="M18.8757 4.16614H23.0419L18.8757 0V4.16614Z" fill="#D1D3D3"/>
</g>
</g>
</svg>
