<svg width="71" height="49" viewBox="0 0 71 49" fill="none" xmlns="http://www.w3.org/2000/svg">
<g id="Group 93 1" clip-path="url(#clip0_3072_19305)">
<g id="Group 93">
<path id="Rectangle 72" d="M71 47.2871H0V48.9997H71V47.2871Z" fill="#5958AE"/>
<path id="Rectangle 73" d="M1.7439 49L1.7439 3.94092H0.000114202L0.000114202 49H1.7439Z" fill="#5958AE"/>
<g id="Group 91">
<g id="Group 87">
<path id="Rectangle 74" d="M8.48903 35.1958H12.5402C13.0278 35.1958 13.4954 35.386 13.8401 35.7246C14.1849 36.0632 14.3786 36.5224 14.3786 37.0013V47.291H6.65063V37.0013C6.65063 36.5224 6.84432 36.0632 7.18909 35.7246C7.53385 35.386 8.00146 35.1958 8.48903 35.1958Z" fill="#229FDF"/>
<g id="Path 163" style="mix-blend-mode:multiply">
<path d="M12.7261 35.2046C12.7327 35.2655 12.736 35.3268 12.7359 35.388V42.6283C12.7359 43.028 12.6558 43.4239 12.5 43.7931C12.3442 44.1624 12.116 44.498 11.8282 44.7806C11.5404 45.0633 11.1987 45.2875 10.8227 45.4405C10.4466 45.5934 10.0436 45.6722 9.63659 45.6722H6.65063V47.2846H14.3778V37.0005C14.3775 36.5535 14.2085 36.1225 13.9034 35.7907C13.5984 35.459 13.1789 35.2502 12.7261 35.2046Z" fill="#E4E5E6"/>
</g>
<g id="Path 164" style="mix-blend-mode:screen">
<path d="M9.1946 44.6787C8.87286 44.6787 8.56428 44.5532 8.33671 44.3299C8.10913 44.1065 7.98117 43.8036 7.98096 43.4876V37.8101C7.98096 37.494 8.10882 37.1908 8.33642 36.9673C8.56402 36.7437 8.87272 36.6182 9.1946 36.6182C9.51633 36.6184 9.8248 36.7441 10.0522 36.9676C10.2796 37.1911 10.4074 37.4941 10.4074 37.8101V43.4876C10.4074 43.8035 10.2796 44.1065 10.0522 44.3298C9.82473 44.5532 9.51626 44.6787 9.1946 44.6787Z" fill="#414042"/>
</g>
</g>
<g id="Group 88">
<path id="Rectangle 75" d="M24.7864 21.1177H28.8375C29.3251 21.1177 29.7927 21.3079 30.1375 21.6465C30.4823 21.9851 30.6759 22.4443 30.6759 22.9231V47.2874H22.948V22.9231C22.948 22.4443 23.1417 21.9851 23.4865 21.6465C23.8312 21.3079 24.2988 21.1177 24.7864 21.1177Z" fill="#7CBF48"/>
<g id="Path 165" style="mix-blend-mode:multiply">
<path d="M29.0245 21.125C29.0302 21.1851 29.0335 21.246 29.0335 21.3084V42.6264C29.0335 43.0262 28.9533 43.422 28.7975 43.7913C28.6418 44.1606 28.4135 44.4961 28.1257 44.7787C27.8379 45.0614 27.4962 45.2856 27.1202 45.4386C26.7442 45.5915 26.3411 45.6703 25.9341 45.6703H22.9465V47.2827H30.6745V22.9233C30.6752 22.476 30.5069 22.0444 30.202 21.7122C29.8971 21.3799 29.4775 21.1707 29.0245 21.125Z" fill="#E4E5E6"/>
</g>
<g id="Path 166" style="mix-blend-mode:screen">
<path d="M25.4921 44.6792C25.1705 44.6792 24.862 44.5538 24.6345 44.3304C24.4071 44.107 24.2793 43.804 24.2793 43.4881V23.7321C24.2793 23.4162 24.4071 23.1133 24.6345 22.8899C24.862 22.6665 25.1705 22.541 25.4921 22.541C25.8138 22.541 26.1224 22.6665 26.35 22.8898C26.5776 23.1132 26.7055 23.4161 26.7057 23.7321V43.4881C26.7055 43.8041 26.5776 44.1071 26.35 44.3304C26.1224 44.5538 25.8138 44.6792 25.4921 44.6792Z" fill="#414042"/>
</g>
</g>
<g id="Group 89">
<path id="Rectangle 76" d="M41.085 25.7104H45.1361C45.6236 25.7107 46.091 25.901 46.4355 26.2395C46.7801 26.5781 46.9737 27.0372 46.9737 27.5159V47.2872H39.2466V27.5159C39.2466 27.0371 39.4403 26.5779 39.785 26.2393C40.1298 25.9007 40.5974 25.7104 41.085 25.7104Z" fill="#C261AF"/>
<g id="Path 167" style="mix-blend-mode:multiply">
<path d="M45.3221 25.7202C45.3287 25.7811 45.3319 25.8424 45.3319 25.9036V42.6287C45.3319 43.0284 45.2517 43.4242 45.0959 43.7935C44.9402 44.1628 44.7119 44.4983 44.4241 44.781C44.1363 45.0636 43.7946 45.2878 43.4186 45.4408C43.0426 45.5938 42.6395 45.6725 42.2325 45.6725H39.249V47.2849H46.9761V27.5161C46.9758 27.0687 46.8065 26.6374 46.5009 26.3056C46.1953 25.9739 45.7753 25.7652 45.3221 25.7202Z" fill="#E4E5E6"/>
</g>
<g id="Path 168" style="mix-blend-mode:screen">
<path d="M41.7871 44.6792C41.4654 44.6792 41.1568 44.5537 40.9292 44.3304C40.7017 44.107 40.5737 43.8041 40.5735 43.4881V28.3258C40.5733 28.1692 40.6045 28.014 40.6654 27.8692C40.7263 27.7244 40.8157 27.5928 40.9284 27.482C41.0411 27.3711 41.175 27.2832 41.3223 27.2232C41.4697 27.1632 41.6276 27.1323 41.7871 27.1323C42.1089 27.1325 42.4173 27.2582 42.6448 27.4817C42.8722 27.7052 42.9999 28.0083 42.9999 28.3242V43.4865C43.0002 43.643 42.9689 43.7981 42.9081 43.9428C42.8472 44.0875 42.7579 44.219 42.6453 44.3298C42.5326 44.4405 42.3989 44.5284 42.2516 44.5884C42.1044 44.6483 41.9465 44.6792 41.7871 44.6792Z" fill="#414042"/>
</g>
</g>
<g id="Group 90">
<path id="Rectangle 77" d="M57.3826 10.9351H61.4337C61.9212 10.9353 62.3886 11.1256 62.7332 11.4642C63.0777 11.8027 63.2713 12.2618 63.2713 12.7405V47.288H55.5442V12.7405C55.5442 12.2617 55.7379 11.8025 56.0826 11.4639C56.4274 11.1253 56.895 10.9351 57.3826 10.9351Z" fill="#F2B03B"/>
<g id="Path 169" style="mix-blend-mode:multiply">
<path d="M61.6205 10.9438C61.6262 11.0047 61.6295 11.0656 61.6295 11.1273V42.6285C61.6295 43.0282 61.5493 43.424 61.3936 43.7933C61.2378 44.1626 61.0095 44.4981 60.7217 44.7808C60.4339 45.0634 60.0922 45.2876 59.7162 45.4406C59.3402 45.5936 58.9372 45.6723 58.5301 45.6723H55.5466V47.2847H63.2746V12.7373C63.2737 12.2904 63.104 11.8596 62.7985 11.5284C62.493 11.1971 62.0733 10.9888 61.6205 10.9438Z" fill="#E4E5E6"/>
</g>
<g id="Path 170" style="mix-blend-mode:screen">
<path d="M58.0881 44.6789C57.7664 44.6789 57.4579 44.5534 57.2305 44.33C57.003 44.1066 56.8752 43.8037 56.8752 43.4878V13.5493C56.8752 13.2333 57.003 12.9303 57.2304 12.7068C57.4578 12.4833 57.7663 12.3576 58.0881 12.3574C58.4099 12.3574 58.7186 12.483 58.9462 12.7065C59.1738 12.93 59.3017 13.2332 59.3017 13.5493V43.4878C59.3015 43.8037 59.1735 44.1067 58.9459 44.33C58.7184 44.5534 58.4098 44.6789 58.0881 44.6789Z" fill="#414042"/>
</g>
</g>
</g>
<g id="Group 92">
<path id="Path 171" d="M10.4073 29.8854C10.125 29.6316 9.95688 29.2781 9.9399 28.9025C9.92292 28.527 10.0585 28.1603 10.3168 27.8829L23.8984 13.3045C24.6136 12.5298 25.5892 12.0341 26.6464 11.9085C27.7035 11.7828 28.7714 12.0356 29.6542 12.6205L41.6021 20.4607C41.9297 20.6738 42.3268 20.7586 42.7149 20.6984C43.1031 20.6382 43.4542 20.4374 43.699 20.1355L58.2757 2.00635L60.5406 3.76216L45.964 21.8922C45.2672 22.7503 44.2686 23.3212 43.1646 23.4924C42.0607 23.6636 40.9316 23.4228 39.9994 22.8173L28.0507 14.9771C27.7403 14.7715 27.3649 14.6827 26.9933 14.7268C26.6217 14.771 26.2787 14.9451 26.0271 15.2174L12.4463 29.7957C12.188 30.073 11.8281 30.2383 11.4457 30.2551C11.0634 30.272 10.6899 30.139 10.4073 29.8854Z" fill="#5958AE"/>
<g id="Path 172" style="mix-blend-mode:screen">
<path d="M19.8553 18.693L17.786 20.915C17.6599 21.0514 17.5932 21.2309 17.6004 21.4149C17.6075 21.599 17.688 21.773 17.8244 21.8995L17.835 21.9099C17.9038 21.9736 17.9849 22.0233 18.0735 22.0559C18.1621 22.0885 18.2564 22.1035 18.3509 22.0999C18.4455 22.0963 18.5383 22.0743 18.6241 22.035C18.7099 21.9958 18.7868 21.9402 18.8504 21.8714L20.9221 19.6478C20.9935 19.5706 21.0466 19.4787 21.0775 19.3788C21.1084 19.279 21.1163 19.1736 21.1007 19.0704C21.0851 18.9672 21.0463 18.8687 20.9872 18.7819C20.9281 18.6952 20.8502 18.6224 20.759 18.5689L20.7467 18.5617C20.6054 18.4795 20.4396 18.4477 20.2772 18.4716C20.1148 18.4956 19.9658 18.5738 19.8553 18.693Z" fill="#231F20"/>
</g>
<g id="Path 173" style="mix-blend-mode:screen">
<path d="M33.95 17.2709C34.0214 17.197 34.0755 17.1087 34.1084 17.012C34.1414 16.9154 34.1523 16.8129 34.1406 16.7117C34.1289 16.6104 34.0947 16.5129 34.0405 16.4261C33.9863 16.3392 33.9134 16.265 33.8268 16.2088L29.2537 13.2074C28.5143 12.7168 27.6194 12.5046 26.7335 12.6098C25.8476 12.715 25.03 13.1306 24.431 13.7801L23.6276 14.642C23.5562 14.7187 23.503 14.8099 23.4719 14.9092C23.4408 15.0084 23.4324 15.1132 23.4475 15.216C23.4625 15.3189 23.5006 15.4171 23.559 15.5037C23.6173 15.5903 23.6945 15.6632 23.785 15.717L23.7981 15.7242C23.9395 15.8082 24.1062 15.8413 24.2698 15.8181C24.4334 15.7949 24.5838 15.7167 24.6952 15.5968L25.4962 14.7373C25.8638 14.3401 26.3648 14.0859 26.9074 14.0214C27.4501 13.9568 27.9983 14.0861 28.4519 14.3857L33.0243 17.3855C33.1649 17.477 33.334 17.5167 33.5016 17.4977C33.6692 17.4786 33.8246 17.402 33.9402 17.2813L33.95 17.2709Z" fill="#231F20"/>
</g>
<g id="Path 174" style="mix-blend-mode:screen">
<path d="M55.6005 6.4742L51.9123 11.0616C51.8162 11.1814 51.7625 11.3288 51.7594 11.4813C51.7563 11.6338 51.804 11.7831 51.8952 11.9066L51.9041 11.9186C51.9686 12.0073 52.0532 12.0799 52.1512 12.1307C52.2493 12.1816 52.3581 12.2093 52.4689 12.2116C52.5798 12.214 52.6897 12.1909 52.7899 12.1442C52.89 12.0975 52.9777 12.0285 53.046 11.9427L56.7366 7.3529C56.8506 7.21 56.9039 7.02941 56.8855 6.84883C56.8671 6.66824 56.7784 6.5016 56.638 6.38368L56.6265 6.37407C56.5536 6.31209 56.4685 6.26536 56.3765 6.23673C56.2846 6.2081 56.1876 6.19815 56.0916 6.20752C55.9956 6.21689 55.9025 6.24537 55.8181 6.29122C55.7337 6.33707 55.6596 6.39933 55.6005 6.4742Z" fill="#231F20"/>
</g>
<g id="Path 175" style="mix-blend-mode:screen">
<path d="M49.2762 14.3402L46.7608 17.4689C46.6449 17.6119 46.5906 17.7938 46.6097 17.9756C46.6288 18.1574 46.7196 18.3246 46.8628 18.4413L46.8742 18.4502C46.9475 18.5102 47.0323 18.5552 47.1236 18.5825C47.2149 18.6099 47.3108 18.619 47.4057 18.6094C47.5006 18.5997 47.5927 18.5715 47.6763 18.5265C47.76 18.4814 47.8336 18.4203 47.8929 18.3468L50.4058 15.2229C50.5052 15.1007 50.5597 14.9492 50.5606 14.7928C50.5615 14.6364 50.5087 14.4843 50.4107 14.361L50.4017 14.349C50.3355 14.2647 50.2506 14.1963 50.1535 14.1489C50.0564 14.1016 49.9495 14.0766 49.8411 14.0757C49.7327 14.0749 49.6255 14.0982 49.5276 14.144C49.4297 14.1899 49.3438 14.2569 49.2762 14.3402Z" fill="#231F20"/>
</g>
<g id="Path 176" style="mix-blend-mode:screen">
<path d="M45.5023 20.2437C45.43 20.1787 45.3448 20.1291 45.252 20.0979C45.1593 20.0668 45.061 20.0548 44.9633 20.0627C44.8656 20.0706 44.7706 20.0982 44.6843 20.1438C44.5979 20.1894 44.5221 20.2521 44.4616 20.3278L44.265 20.5681C44.01 20.8843 43.673 21.1274 43.2895 21.2718C42.9059 21.4163 42.4899 21.4568 42.0849 21.3891C41.7534 21.3318 41.4385 21.2047 41.1616 21.0167L38.1439 19.0342C38.0147 18.9488 37.8606 18.9074 37.7052 18.9162C37.5498 18.925 37.4017 18.9836 37.2834 19.083L37.272 19.0926C37.1875 19.1632 37.1208 19.252 37.0772 19.3521C37.0336 19.4523 37.0143 19.561 37.0208 19.6697C37.0272 19.7784 37.0593 19.8842 37.1145 19.9787C37.1697 20.0731 37.2465 20.1537 37.3388 20.2141L40.4039 22.2254C41.1853 22.7319 42.1313 22.9332 43.0561 22.7897C43.9809 22.6463 44.8176 22.1684 45.402 21.45L45.5978 21.2097C45.7093 21.0701 45.7628 20.8942 45.7477 20.7174C45.7326 20.5406 45.6499 20.3759 45.5162 20.2565L45.5023 20.2437Z" fill="#231F20"/>
</g>
</g>
<path id="Path 177" d="M61.224 0.0158922L56.6182 1.14451C56.5198 1.16838 56.4303 1.21897 56.3598 1.29048C56.2893 1.36199 56.2407 1.45154 56.2196 1.5489C56.1985 1.64625 56.2057 1.74748 56.2404 1.84099C56.2752 1.9345 56.336 2.01653 56.416 2.07769L61.0111 5.61173C61.0909 5.67313 61.1866 5.71128 61.2874 5.72183C61.3882 5.73238 61.4899 5.71491 61.5811 5.6714C61.6722 5.6279 61.7491 5.56011 61.8029 5.47577C61.8567 5.39143 61.8853 5.29393 61.8855 5.1944L61.8961 0.531738C61.8962 0.450962 61.8775 0.371235 61.8415 0.298608C61.8055 0.225982 61.7531 0.162374 61.6883 0.112632C61.6235 0.0628912 61.548 0.0283291 61.4675 0.0115655C61.3871 -0.00519813 61.3038 -0.00372315 61.224 0.0158922Z" fill="#5958AE"/>
</g>
</g>
<defs>
<clipPath id="clip0_3072_19305">
<rect width="71" height="49" fill="white"/>
</clipPath>
</defs>
</svg>
